<svg xmlns="http://www.w3.org/2000/svg" xmlns:xlink="http://www.w3.org/1999/xlink" version="1.1" id="Layer_2" x="0px" y="0px" viewBox="0 0 851 360" enable-background="new 0 0 851 360" xml:space="preserve">
	<g>
	<path fill="#FFFFFF" d="M851,293.8c0,23.8-19.5,43.4-43.4,43.4H43.4C19.5,337.2,0,317.7,0,293.8V66.2c0-23.8,19.5-43.4,43.4-43.4
		h764.3c23.8,0,43.4,19.5,43.4,43.4V293.8z"/>
</g>
<g>
	<polygon fill="#00B3B4" points="496.9,85 496.8,84.6 496.8,84.6 	"/>
	<path fill="#00B3B4" d="M469.4,81.8l-0.2,0.5c0,0,0,0,0,0L469.4,81.8z"/>
	<path fill="#00B3B4" d="M462.3,78.1l-0.2,0.4c0,0,0,0,0,0L462.3,78.1z"/>
	<polygon fill="#00B3B4" points="465.8,80.1 465.6,80.4 465.6,80.4 	"/>
	<path fill="#00B3B4" d="M472.8,84.1l-42.5,118.6c2.1,0.2,4.3,0.4,6.5,0.7L472.8,84.1C472.8,84.1,472.8,84.1,472.8,84.1"/>
	<path fill="#00B3B4" d="M488.9,90.1l0.7,129.3c2.3,1.1,4.6,2.2,7,3.4l-7.4-132.6C489,90.1,489,90.1,488.9,90.1"/>
	<path fill="#00B3B4" d="M465.6,80.4l-71.2,124.8c2.9-0.7,5.9-1.3,9-1.7L465.6,80.4C465.6,80.4,465.6,80.4,465.6,80.4"/>
	<path fill="#00B3B4" d="M458.6,76.3L344.9,213.2c1.3,3.1,2.7,6.3,4.3,9.5L458.6,76.3C458.6,76.3,458.6,76.3,458.6,76.3"/>
	<path fill="#00B3B4" d="M480.5,87.4l-20.7,120.8c2,0.6,4.1,1.2,6.2,1.9l14.6-122.6C480.6,87.5,480.5,87.4,480.5,87.4"/>
	<path fill="#00B3B4" d="M484.6,88.9L474.4,213c2.1,0.8,4.2,1.6,6.4,2.5l4-126.7C484.7,88.9,484.7,88.9,484.6,88.9"/>
	<path fill="#00B3B4" d="M455.1,74.1L338.2,192.2c0.7,3.2,1.6,6.5,2.6,9.8L455.1,74.1C455.1,74.1,455.1,74.1,455.1,74.1"/>
	<path fill="#00B3B4" d="M476.6,85.8l-31.2,118.9c2,0.4,4.1,0.8,6.2,1.3L476.6,85.8C476.6,85.9,476.6,85.9,476.6,85.8"/>
	<path fill="#00B3B4" d="M469.1,82.3l-55.3,120.1c2.4-0.1,4.8-0.2,7.3-0.1L469.1,82.3C469.2,82.3,469.1,82.3,469.1,82.3"/>
	<path fill="#00B3B4" d="M451.5,71.7l-116.1,98.4c0.1,3.3,0.3,6.7,0.7,10.1L451.6,71.8C451.6,71.7,451.6,71.7,451.5,71.7"/>
	<path fill="#00B3B4" d="M435.8,60l-54.7,20.2c-2.7,2.2-5.3,4.6-8,7.2l63.1-27C436.1,60.3,435.9,60.2,435.8,60"/>
	<path fill="#00B3B4" d="M431.1,56.3l-26.3,7.2c-2.4,1.4-4.8,2.9-7.3,4.6l34.3-11.3C431.5,56.6,431.3,56.5,431.1,56.3"/>
	<path fill="#00B3B4" d="M447.9,69.2l-110.2,78c-0.7,3.3-1.3,6.8-1.7,10.3l112-88.1C448,69.2,447.9,69.2,447.9,69.2"/>
	<path fill="#00B3B4" d="M444.1,66.4L346,123.7c-1.6,3.2-3,6.6-4.3,10l102.6-67.1C444.2,66.5,444.1,66.5,444.1,66.4"/>
	<path fill="#00B3B4" d="M440.1,63.4l-79.4,37.5c-2.3,2.9-4.6,5.9-6.7,9.1l86.4-46.3C440.3,63.6,440.2,63.5,440.1,63.4"/>
	<path fill="#00B3B4" d="M462.1,78.4l-95.8,138.2c4-2.5,8.9-5,14.6-7.3L462.1,78.4C462.1,78.4,462.1,78.4,462.1,78.4"/>
	<path fill="#00B3B4" d="M493.4,91l12.7,136.7c2.6,1.4,5.3,3,8,4.6L493.7,91.1C493.6,91.1,493.5,91.1,493.4,91"/>
	<path fill="#0A7ABE" d="M540.7,42.9l7.7,0.6c-0.3-0.3-0.6-0.5-0.8-0.8l-6.7-0.2C540.7,42.6,540.7,42.8,540.7,42.9"/>
	<path fill="#0A7ABE" d="M539.9,47.5L555,50c-0.4-0.4-0.9-0.9-1.3-1.3L540,47.1C539.9,47.2,539.9,47.3,539.9,47.5"/>
	<path fill="#0A7ABE" d="M533.1,69.8l67.5,46.7c-0.9-2.4-1.9-4.8-3-7.3l-64.2-39.8C533.2,69.6,533.2,69.7,533.1,69.8"/>
	<path fill="#0A7ABE" d="M524.9,82l82.4,97.2c0.5-2.9,0.9-5.9,1.2-9l-83.2-88.6C525.1,81.7,525,81.9,524.9,82"/>
	<path fill="#0A7ABE" d="M539,52l23.9,6.3c-0.6-0.7-1.3-1.4-1.9-2l-21.9-4.6C539,51.8,539,51.9,539,52"/>
	<path fill="#0A7ABE" d="M528.1,78.2l80.8,79.9c0-2.9-0.2-5.9-0.5-8.9l-80-71.5C528.3,78,528.2,78.1,528.1,78.2"/>
	<path fill="#0A7ABE" d="M537.9,56.5l34,12.2c-0.8-1-1.7-2-2.5-3.1L538,56.1C538,56.2,537.9,56.4,537.9,56.5"/>
	<path fill="#0A7ABE" d="M530.8,74.1l75.7,62.9c-0.6-2.7-1.2-5.5-2-8.3l-73.5-55C531,73.8,530.9,74,530.8,74.1"/>
	<path fill="#0A7ABE" d="M536.6,61l45.2,20.8c-1-1.5-2.1-2.9-3.1-4.4l-42-16.8C536.7,60.7,536.6,60.9,536.6,61"/>
	<path fill="#0A7ABE" d="M535,65.4l56.8,32.4c-1.1-2-2.2-3.9-3.4-5.9L535.2,65C535.1,65.2,535,65.3,535,65.4"/>
	<path fill="#0A7ABE" d="M502.9,91.7l44.6,163.1c3.3,2.5,6.7,5.1,10.1,7.8c0,0,0.5-0.4,1.5-1.3L503.4,91.7
		C503.2,91.7,503.1,91.7,502.9,91.7"/>
	<path fill="#0A7ABE" d="M512.5,89.9l69.3,146.7c1.9-2.5,3.7-5.2,5.6-8.1L513,89.8C512.9,89.8,512.7,89.9,512.5,89.9"/>
	<path fill="#0A7ABE" d="M521.2,85.3L602,199.4c1-2.9,1.9-5.8,2.8-8.8L521.6,84.9C521.5,85.1,521.3,85.2,521.2,85.3"/>
	<path fill="#0A7ABE" d="M507.8,91.2l59.9,162.1c2.1-2.2,4.4-4.7,6.8-7.5L508.3,91.1C508.1,91.1,507.9,91.1,507.8,91.2"/>
	<path fill="#0A7ABE" d="M517.1,88l76.3,130.6c1.5-2.7,2.9-5.6,4.3-8.5L517.5,87.7C517.4,87.8,517.2,87.9,517.1,88"/>
	<path fill="#00B3E3" d="M498.5,91.6c-0.1,0-0.2,0-0.4,0L524.9,239c3.2,2.1,6.4,4.2,9.7,6.5L498.5,91.6z"/>
	<path fill="#00B3E3" d="M527.8,255.3l6,32.9c3.2-1.8,6.5-4.7,9-7.5l-4.2-18.1C534.5,259.3,530.2,256.7,527.8,255.3"/>
	<path fill="#555759" d="M291.5,316.5c-1.3-3.3-2.8-7.6-4.6-13H249c-1.8,5.3-3.3,9.7-4.6,13h-2.3l25.7-72.5l25.9,72.5H291.5z
		 M286.2,301.2c-7.1-19.6-17-46.8-18.3-50.4c-1,3.6-10.9,30.8-18.1,50.4H286.2z"/>
	<polygon fill="#0A7ABE" points="347.2,316.5 347.2,282.4 303.7,282.4 303.7,316.5 301.4,316.5 301.4,246 303.7,246 303.7,280.1 
		347.2,280.1 347.2,246 349.5,246 349.5,316.5 	"/>
	<path fill="#0A7ABE" d="M350.5,317.5h-4.3v-34.1h-41.5v34.1h-4.3V245h4.3v34.1h41.5V245h4.3V317.5z M348.2,315.5h0.3V247h-0.3v34.1
		h-45.5V247h-0.3v68.5h0.3v-34.1h45.5V315.5z"/>
	<path fill="#0A7ABE" d="M360.8,316.3v-70H384c11.7,0,20.6,8.9,20.6,20.4c0,11.4-9.2,20.6-20.6,20.6h-20.9v29H360.8z M363.1,248.6
		V285H384c10.2,0,18.3-8.1,18.3-18.3c0-10.2-7.9-18.1-18.3-18.1H363.1z"/>
	<path fill="#0A7ABE" d="M364.1,317.2h-4.3v-71.9H384c12.1,0,21.6,9.4,21.6,21.3c0,11.9-9.7,21.6-21.6,21.6h-19.9V317.2z
		 M361.8,315.3h0.3v-29H384c10.8,0,19.6-8.8,19.6-19.6c0-11-8.4-19.4-19.6-19.4h-22.2V315.3z M384,285.9h-21.8v-38.4H384
		c11,0,19.3,8.2,19.3,19C403.3,277.3,394.6,285.9,384,285.9 M364.1,284H384c9.6,0,17.3-7.8,17.3-17.3c0-9.7-7.4-17.1-17.3-17.1
		h-19.9V284z"/>
	<path fill="#555759" d="M449.4,316.5c-4.8-9.2-12.7-23.9-15.3-29.5h-20.4v29.5h-2.3V246h23.1c11.7,0,20.9,8.9,20.9,20.4
		c0,10.7-8.4,19.6-18.8,20.6c3.1,6.4,10.7,20.9,15.3,29.5H449.4z M413.7,285h20.9c10.2,0,18.6-8.4,18.6-18.6
		c0-10.2-8.1-18.1-18.6-18.1h-20.9V285z"/>
	<path fill="#555759" d="M506.7,316.5c-1.3-3.3-2.8-7.6-4.6-13h-37.9c-1.8,5.3-3.3,9.7-4.6,13h-2.3l25.7-72.5l26,72.5H506.7z
		 M501.4,301.2c-7.1-19.6-17-46.8-18.3-50.4c-1,3.6-10.9,30.8-18.1,50.4H501.4z"/>
</g>
</svg>
