<svg version="1.1" id="Layer_1" xmlns="http://www.w3.org/2000/svg" xmlns:xlink="http://www.w3.org/1999/xlink" x="0px" y="0px"
	 viewBox="0 0 851 360" enable-background="new 0 0 851 360" xml:space="preserve">
<g>
	<path fill="#FFFFFF" d="M851,293.8c0,23.8-19.5,43.4-43.4,43.4H43.4C19.5,337.2,0,317.7,0,293.8V66.2c0-23.8,19.5-43.4,43.4-43.4
		h764.3c23.8,0,43.4,19.5,43.4,43.4V293.8z"/>
</g>
<g>
	<path d="M524.2,133.4l-2.7-20.1c-1.1-3.8-1.1-6.5-1.6-8.7l0,0c-0.5,1.6-1.1,3.8-1.6,6l-7.6,22.2h-4.9l-7-20.1
		c-1.1-2.7-1.6-5.4-2.2-7.6l0,0c0,2.7-0.5,5.4-1.1,8.7l-2.2,19.5h-4.9l4.9-34.7h6l7,21.7c1.1,2.7,1.6,4.9,2.2,7l0,0
		c0.5-2.2,1.1-4.3,1.6-6.5l7.6-22.2h6l5.4,34.1h-4.9V133.4z"/>
	<path d="M544.2,110.6c-3.3,0-5.4,2.7-6,6h11.9C550.2,113.3,548,110.6,544.2,110.6 M554.5,120.4h-16.8c0,7,2.7,9.8,8.1,9.8
		c2.7,0,5.4-0.5,7.6-1.6l0.5,3.8c-2.7,1.1-5.4,1.6-8.7,1.6c-7.6,0-11.9-4.3-11.9-13c0-7.6,4.3-13,11.4-13c7,0,10.3,4.9,10.3,10.8
		C555,118.7,554.5,119.3,554.5,120.4"/>
	<path d="M593,133.4v-16.3c0-3.3-1.1-6-4.3-6c-3.8,0-7,3.8-7,9.8v11.9h-4.3v-16.3c0-3.3-0.5-6-4.3-6c-3.8,0-7,4.3-7,9.8v11.9h-4.3
		v-25.5h4.3c0,1.6,0,3.8-0.5,5.4l0,0c1.6-3.8,4.9-6,8.7-6c5.4,0,7,3.8,7,6c1.1-2.2,3.8-6,8.7-6s7.6,2.7,7.6,8.1v17.3H593V133.4z"/>
	<path d="M617.9,111.2c-4.3,0-7,5.4-7,9.8v8.7c1.1,0.5,2.7,0.5,4.3,0.5c4.9,0,8.1-2.7,8.1-10.3C623.3,114.4,621.7,111.2,617.9,111.2
		 M615.2,133.4c-3.3,0-6-0.5-8.7-1.1V96h4.3v12.5c0,1.6,0,3.3-0.5,4.9l0,0c1.6-3.8,4.3-5.4,8.1-5.4c6,0,9.2,4.3,9.2,11.9
		C628.2,128,623.3,133.4,615.2,133.4"/>
	<path d="M643.4,110.6c-3.3,0-5.4,2.7-6,6h11.9C649.4,113.3,647.2,110.6,643.4,110.6 M653.7,120.4h-16.8c0,7,2.7,9.8,8.1,9.8
		c2.7,0,5.4-0.5,7.6-1.6l0.5,3.8c-2.7,1.1-5.4,1.6-8.7,1.6c-7.6,0-11.9-4.3-11.9-13c0-7.6,4.3-13,11.4-13c7,0,10.3,4.9,10.3,10.8
		C653.7,118.7,653.7,119.3,653.7,120.4"/>
	<path d="M673.2,111.7c-5.4-1.1-8.1,3.3-8.1,11.4v10.3h-4.3v-25.5h4.3c0,1.6,0,3.8-0.5,6l0,0c1.1-3.3,3.8-7,8.7-6.5V111.7z"/>
	<path d="M503,164.3c-0.5-1.6-1.1-3.3-1.6-4.9l0,0c-0.5,1.6-1.1,3.3-1.6,5.4l-4.3,12.5h11.9L503,164.3z M511.7,188.1L509,180h-14.6
		l-2.7,8.1h-4.9l12.5-34.1h5.4l12.5,34.1H511.7z"/>
	<path d="M537.7,188.1c0-1.6,0-3.8,0.5-5.4l0,0c-1.6,3.3-4.3,6-8.7,6c-6,0-7.6-3.8-7.6-8.1v-17.9h4.3v16.3c0,3.8,1.1,5.4,4.3,5.4
		c4.3,0,7-4.3,7-9.8v-11.9h4.3v25.5H537.7z"/>
	<path d="M555,188.7c-1.6,0-3.8,0-5.4-0.5v-4.3c1.6,0.5,3.8,1.1,5.4,1.1c3.3,0,5.4-1.6,5.4-3.8c0-5.4-11.9-2.2-11.9-10.8
		c0-4.3,3.3-7.6,10.3-7.6c1.6,0,3.3,0,4.9,0.5v3.8c-1.6-0.5-3.3-0.5-4.9-0.5c-3.3,0-4.9,1.6-4.9,3.8c0,5.4,11.9,2.7,11.9,10.8
		C565.9,185.4,561.6,188.7,555,188.7"/>
	<path d="M580.5,188.7c-5.4,0-6.5-2.2-6.5-7.6v-14.6h-5.4v-3.8h5.4v-8.1l4.3-1.1v9.8h7v3.8h-7v13c0,4.3,0.5,5.4,3.8,5.4
		c1.1,0,2.7,0,3.3-0.5v3.8C583.8,188.7,582.1,188.7,580.5,188.7"/>
	<path d="M603.8,167c-5.4-1.1-8.1,3.3-8.1,10.8v10.3h-4.3v-25.5h4.3c0,1.6,0,3.8-0.5,6l0,0c1.1-3.3,3.8-7,8.7-6.5V167z"/>
	<path d="M622.8,176.7c-8.7,0-10.8,2.7-10.8,4.9s1.6,3.3,3.8,3.3C620.1,185.4,622.8,181.1,622.8,176.7L622.8,176.7z M622.8,188.1
		c0-1.6,0-3.8,0-4.9l0,0c-1.1,3.3-4.3,5.4-8.7,5.4s-7-2.2-7-6.5c0-5.4,5.4-9.2,15.2-9.2v-1.6c0-3.3-1.6-5.4-5.4-5.4
		c-2.2,0-5.4,0.5-7.6,2.2l-0.5-3.8c2.7-1.1,5.4-1.6,8.7-1.6c7,0,9.2,3.3,9.2,8.7v10.3c0,2.2,0,4.9,0,7h-3.8V188.1z"/>
	<rect x="635.8" y="151.3" width="4.3" height="37.4"/>
	<path d="M649.4,163.2h4.3v25.5h-4.3V163.2z M651.5,158.9c-1.6,0-3.3-1.1-3.3-3.3c0-1.6,1.6-2.7,3.3-2.7s3.3,1.1,3.3,2.7
		C654.8,157.2,653.2,158.9,651.5,158.9"/>
	<path d="M675.9,176.7c-8.7,0-10.8,2.7-10.8,4.9s1.6,3.3,3.8,3.3C673.2,185.4,675.9,181.1,675.9,176.7L675.9,176.7z M675.9,188.1
		c0-1.6,0-3.8,0-4.9l0,0c-1.1,3.3-4.3,5.4-8.7,5.4s-7-2.2-7-6.5c0-5.4,5.4-9.2,15.2-9.2v-1.6c0-3.3-1.6-5.4-5.4-5.4
		c-2.2,0-5.4,0.5-7.6,2.2l-0.5-3.8c2.7-1.1,5.4-1.6,8.7-1.6c7,0,9.2,3.3,9.2,8.7v10.3c0,2.2,0,4.9,0,7h-3.8V188.1z"/>
	<path d="M705.2,188.1v-16.3c0-3.8-1.1-5.4-4.3-5.4c-4.3,0-7,4.3-7,9.8v11.9h-4.3v-25.5h4.3c0,1.6,0,3.8-0.5,5.4l0,0
		c1.6-3.3,4.3-6,8.7-6c6,0,7.6,3.8,7.6,8.1v17.9L705.2,188.1L705.2,188.1z"/>
	<path d="M498.1,213.1c-1.1,0-2.2,0-3.3,0v13.6c1.1,0,1.6,0,2.7,0c4.9,0,8.1-2.7,8.1-7C506.3,215.2,503.6,213.1,498.1,213.1
		 M497.6,230.4c-1.1,0-1.6,0-2.7,0v13H490v-34.1c2.7,0,5.4,0,8.7,0c8.1,0,12.5,3.8,12.5,10.3C511.1,225.5,505.7,230.4,497.6,230.4"
		/>
	<path d="M520.9,244c-1.6,0-3.8,0-5.4-0.5v-4.3c1.6,0.5,3.8,1.1,5.4,1.1c3.3,0,5.4-1.6,5.4-3.8c0-5.4-11.9-2.2-11.9-10.8
		c0-4.3,3.3-7.6,10.3-7.6c1.6,0,3.3,0,4.9,0.5v3.8c-1.6-0.5-3.3-0.5-4.9-0.5c-3.3,0-4.9,1.6-4.9,3.8c0,5.4,11.9,2.7,11.9,10.8
		C531.7,240.7,527.9,244,520.9,244"/>
	<path d="M548,246.1c-2.7,7.6-5.4,10.3-10.8,10.3c-1.1,0-2.2,0-3.3-0.5l0.5-4.3c1.1,0.5,2.2,0.5,3.3,0.5c2.7,0,4.3-1.1,6-6l1.1-2.7
		l-9.8-25.5h5.4l4.9,13c0.5,2.2,1.6,4.3,2.2,6.5l0,0c0.5-1.6,1.6-4.9,2.7-7.6l4.3-11.4h4.9L548,246.1z"/>
	<path d="M571.9,244c-6,0-10.8-2.7-10.8-11.9c0-8.1,4.3-14.1,12.5-14.1c2.2,0,3.8,0.5,6,1.1l-0.5,3.8c-1.6-0.5-3.3-1.1-5.4-1.1
		c-4.9,0-7.6,3.8-7.6,9.8c0,4.9,1.6,8.7,7,8.7c2.2,0,4.3-0.5,6-1.6l0.5,3.8C577.8,243.4,575.1,244,571.9,244"/>
	<path d="M601.1,243.4v-16.3c0-3.8-1.1-5.4-4.3-5.4c-4.3,0-7,4.3-7,9.8v11.9h-4.3V206h4.3v11.9c0,1.6,0,3.8-0.5,4.9l0,0
		c1.6-3.3,4.3-6,8.7-6c6,0,7.6,3.8,7.6,8.1v17.9h-4.3V243.4z"/>
	<path d="M623.9,221.7c-3.8,0-7,2.7-7,9.2c0,6,2.7,9.2,7,9.2c3.8,0,7-2.7,7-9.2C630.9,225,628.8,221.7,623.9,221.7 M623.3,244
		c-7,0-11.4-3.8-11.4-13c0-7.6,4.9-13.6,12.5-13.6c6.5,0,11.4,3.8,11.4,12.5C635.8,238,630.9,244,623.3,244"/>
	<rect x="642.3" y="206.6" width="4.3" height="37.4"/>
	<path d="M665.1,221.7c-3.8,0-7,2.7-7,9.2c0,6,2.7,9.2,7,9.2c3.8,0,7-2.7,7-9.2C672.1,225,670,221.7,665.1,221.7 M664.5,244
		c-7,0-11.4-3.8-11.4-13c0-7.6,4.9-13.6,12.5-13.6c6.5,0,11.4,3.8,11.4,12.5C677,238,672.1,244,664.5,244"/>
	<path d="M692.7,221.2c-3.8,0-6.5,2.7-6.5,6c0,3.8,2.2,6,6.5,6c3.8,0,6.5-2.2,6.5-6C698.7,223.4,696.5,221.2,692.7,221.2 M695.4,244
		h-6.5c-2.2,1.1-3.3,2.7-3.3,4.9c0,3.3,2.7,4.9,7,4.9c5.4,0,8.1-2.2,8.1-5.4C700.9,245,698.7,244,695.4,244 M691.6,257
		c-6.5,0-10.8-2.7-10.8-7.6c0-3.3,2.2-5.4,4.3-6.5c-1.6-0.5-2.7-2.2-2.7-3.8c0-1.6,1.1-3.3,2.7-4.3c-2.7-1.6-3.8-3.8-3.8-7
		c0-5.4,3.8-9.8,10.8-9.8c1.6,0,2.7,0,3.8,0.5h8.7v3.8h-4.3c1.1,1.1,2.2,2.7,2.2,4.9c0,5.4-3.8,9.2-10.8,9.2c-1.1,0-2.2,0-3.3-0.5
		c-1.1,0.5-1.6,1.1-1.6,2.2c0,1.6,1.1,2.2,4.3,2.2h4.9c5.4,0,8.7,2.7,8.7,7C705.2,252.6,699.8,257,691.6,257"/>
	<path d="M711.7,217.9h4.3v25.5h-4.3V217.9z M713.9,214.1c-1.6,0-3.3-1.1-3.3-3.3c0-1.6,1.6-2.7,3.3-2.7c1.6,0,3.3,1.1,3.3,2.7
		C717.1,212.5,715.5,214.1,713.9,214.1"/>
	<path d="M733.9,244c-6,0-10.8-2.7-10.8-11.9c0-8.1,4.3-14.1,12.5-14.1c2.2,0,3.8,0.5,6,1.1l-0.5,3.8c-1.6-0.5-3.3-1.1-5.4-1.1
		c-4.9,0-7.6,3.8-7.6,9.8c0,4.9,1.6,8.7,7,8.7c2.2,0,4.3-0.5,6-1.6l0.5,3.8C739.3,243.4,736.6,244,733.9,244"/>
	<path d="M760.5,232c-8.7,0-10.8,2.7-10.8,4.9c0,2.2,1.6,3.3,3.8,3.3C757.2,240.2,760.5,236.4,760.5,232L760.5,232z M760.5,243.4
		c0-1.6,0-3.8,0-4.9l0,0c-1.1,3.3-4.3,5.4-8.7,5.4c-4.3,0-7-2.2-7-6.5c0-5.4,5.4-9.2,15.2-9.2v-1.6c0-3.3-1.6-5.4-5.4-5.4
		c-2.2,0-5.4,0.5-7.6,2.2l-0.5-3.8c2.7-1.1,5.4-1.6,8.7-1.6c7,0,9.2,3.3,9.2,8.7v10.3c0,2.2,0,4.9,0,7h-3.8V243.4z"/>
	<rect x="773.5" y="206.6" width="4.3" height="37.4"/>
	<path d="M496,299.2c-2.7,0-4.9-0.5-7-1.1v-4.3c2.2,0.5,4.9,1.1,7,1.1c4.3,0,7.6-1.6,7.6-6c0-7.6-15.7-4.9-15.7-15.7
		c0-5.4,4.3-9.8,12.5-9.8c2.2,0,4.3,0,6,0.5v4.3c-2.2-0.5-4.3-1.1-6-1.1c-4.9,0-7,2.2-7,5.4c0,7.6,15.7,4.9,15.7,15.7
		C509,294.9,504.1,299.2,496,299.2"/>
	<path d="M525.8,276.5c-3.8,0-7,2.7-7,9.2c0,6,2.7,9.2,7,9.2c3.8,0,7-2.7,7-9.2C532.3,280.3,530.1,276.5,525.8,276.5 M524.7,299.2
		c-7,0-11.4-3.8-11.4-13c0-7.6,4.9-13.6,12.5-13.6c6.5,0,11.4,3.8,11.4,12.5C537.2,293.3,532.3,299.2,524.7,299.2"/>
	<path d="M552.3,299.2c-6,0-10.8-2.7-10.8-11.9c0-8.1,4.3-14.1,12.5-14.1c2.2,0,3.8,0.5,6,1.1l-0.5,3.8c-1.6-0.5-3.3-1.1-5.4-1.1
		c-4.9,0-7.6,3.8-7.6,9.8c0,4.9,1.6,8.7,7,8.7c2.2,0,4.3-0.5,6-1.6l0.5,3.8C558.3,298.2,555.6,299.2,552.3,299.2"/>
	<path d="M565.9,273.2h4.3v25.5h-4.3V273.2z M568.1,269.4c-1.6,0-3.3-1.1-3.3-3.3c0-1.6,1.6-2.7,3.3-2.7c1.6,0,3.3,1.1,3.3,2.7
		C571.3,267.8,569.7,269.4,568.1,269.4"/>
	<path d="M588.1,276.5c-3.3,0-5.4,2.7-6,6h11.9C593.5,278.7,591.4,276.5,588.1,276.5 M598.4,285.7h-16.8c0,6.5,2.7,9.8,8.1,9.8
		c2.7,0,5.4-0.5,7.6-1.6l0.5,3.8c-2.7,1.1-5.4,1.6-8.7,1.6c-7.6,0-11.9-4.3-11.9-13c0-7.6,4.3-13,11.4-13c7,0,10.3,4.9,10.3,10.8
		C598.4,284.1,598.4,285.2,598.4,285.7"/>
	<path d="M612.5,299.2c-5.4,0-7-2.2-7-7.6V277H600v-3.8h5.4v-8.1l4.3-1.1v9.8h7v3.8h-7v13c0,4.3,0.5,5.4,3.8,5.4
		c1.1,0,2.7,0,3.3-0.5v3.8C616.3,298.7,614.1,299.2,612.5,299.2"/>
	<path d="M633.1,301.4c-2.7,7.6-5.4,10.3-10.8,10.3c-1.1,0-2.2,0-3.3-0.5l0.5-4.3c1.1,0.5,2.2,0.5,3.3,0.5c2.7,0,4.3-1.1,6-6
		l1.1-2.7l-9.8-25.5h5.4l4.9,13c0.5,2.2,1.6,4.3,2.2,6.5l0,0c0.5-1.6,1.6-4.9,2.7-7.6l4.3-11.4h4.9L633.1,301.4z"/>
	<path d="M683.5,298.7l-2.2-14.6c-0.5-2.7-0.5-4.9-0.5-6.5l0,0c0,1.1-0.5,2.7-1.1,4.9l-5.4,16.3h-3.8l-5.4-15.2
		c-0.5-2.2-1.1-3.8-1.6-6l0,0c0,2.2-0.5,4.3-0.5,6.5l-1.6,14.6h-3.8l3.8-25.5h4.3l5.4,16.3c0.5,1.6,1.1,3.8,1.6,4.9l0,0
		c0.5-1.6,0.5-3.3,1.6-4.9l5.4-16.3h4.3l3.8,25.5L683.5,298.7L683.5,298.7z"/>
	<path d="M701.4,280.8c-0.5-1.1-1.1-2.7-1.1-3.8l0,0c-0.5,1.1-0.5,2.7-1.1,3.8L696,290h9.2L701.4,280.8z M707.9,298.7l-2.2-6h-10.8
		l-2.2,6h-3.8l9.2-25.5h3.8l9.2,25.5H707.9z"/>
	<path d="M721.5,275.9c-1.1,0-1.6,0-2.2,0v10.3c0.5,0,1.6,0,2.2,0c3.8,0,6-2.2,6-5.4C727.4,277.6,725.2,275.9,721.5,275.9
		 M720.9,288.9c-0.5,0-1.6,0-2.2,0v9.8h-3.3v-25.5c1.6,0,3.8,0,6.5,0c6,0,9.2,2.7,9.2,7.6C730.7,285.7,726.9,288.9,720.9,288.9"/>
	<path d="M739.9,299.2c-1.6,0-3.8,0-5.4-0.5v-3.3c1.6,0.5,3.3,1.1,5.4,1.1c3.3,0,5.4-1.1,5.4-4.3c0-6-11.4-3.3-11.4-11.9
		c0-4.3,3.3-7,9.2-7c1.6,0,3.3,0,4.9,0.5v3.3c-1.6-0.5-3.3-0.5-4.9-0.5c-3.3,0-5.4,1.6-5.4,3.8c0,5.4,11.4,3.8,11.4,11.4
		C749.1,296,745.3,299.2,739.9,299.2"/>
	<rect x="456.9" y="94.4" width="2.7" height="212.5"/>
	<path d="M184.3,262.9h30.9l-15.7-40.7L184.3,262.9z M190.8,222.3c1.1-2.2,2.2-7,2.2-8.1c0-5.4-5.4-6-10.8-6.5v-3.3h26l34.1,93.8
		h-14.6l-10.3-29.3h-35.8l-10.3,29.3h-8.7L190.8,222.3z"/>
	<path d="M272.1,250.5h7c10.8,0,20.6-3.8,20.6-20.6c0-15.7-7.6-19-20.1-19c-7.6,0-8.1,2.7-8.1,8.1v31.4H272.1z M256.9,223.4
		c0-13.6-0.5-13.6-13.6-15.7v-3.3h43.4c17.3,0,28.2,9.2,28.2,26c0,26.6-21.1,26.6-38.5,26.6h-4.9v41.7h-15.2v-75.3H256.9z"/>
	<path d="M377.3,215.8c-3.8-1.6-14.1-6.5-24.9-6.5c-7.6,0-13.6,4.3-13.6,13.6c0,21.7,45.5,19.5,45.5,49.3
		c0,20.1-15.7,27.6-35.2,27.6c-10.8,0-21.7-2.7-24.4-3.8v-11.4c4.3,2.7,15.7,8.1,26.6,8.1c8.7,0,17.3-3.8,17.3-16.3
		c0-22.8-45.5-20.6-45.5-49.9c0-15.2,11.9-24.4,31.4-24.4c9.8,0,19,1.6,22.2,2.7v10.8H377.3z"/>
	<path d="M114.4,123.6l42.8,42.8l43.4-42.8c-0.5-2.2-1.1-4.3-1.6-7l-41.7,41.7L116,117.1C115.5,119.3,114.9,121.5,114.4,123.6"/>
	<path d="M125.8,98.7l31.4,31.4l32-31.4c-1.1-1.6-2.7-3.3-3.8-4.9l-28.2,27.6l-27.6-27.6C128.5,95.4,126.8,97.1,125.8,98.7"/>
	<path d="M118.7,110.1l38.5,38.5l39-38.5c-1.1-2.2-2.2-3.8-3.3-5.4l-35.8,35.2L122,104.7C120.9,106.3,119.8,108.5,118.7,110.1"/>
	<path d="M180.5,88.9c-1.6-1.6-3.3-2.7-4.9-3.8l-18.4,18.4l-17.9-17.9c-1.6,1.1-3.3,2.7-4.9,3.8l22.8,22.8L180.5,88.9z"/>
	<path d="M242.8,115.5c0-36.9-30.4-67.2-67.2-67.2c-21.7,0-40.7,10.3-53.1,26c-28.2,7-49.3,32.5-49.3,62.9
		c0,35.8,28.7,64.5,64.5,64.5c5.4,0,10.8-0.5,16.3-2.2v-27.1l-40.7-40.1c0-0.5,0-0.5,0-1.1c0-1.1-0.5-1.6-0.5-2.7c0-0.5,0-1.1,0-1.1
		c0-1.1-0.5-1.6-0.5-2.7c0-0.5,0-1.1,0-1.1c0-1.1,0-1.6-0.5-2.7c0-0.5,0-1.1,0-1.1c0-1.1,0-2.7,0-3.8c0,0,0,0,0-0.5
		c0-1.1,0-2.2,0-3.3v-0.5c0-0.5,0-1.6,0-2.2s0-0.5,0-1.1s0-1.1,0-2.2c0-0.5,0-0.5,0-1.1s0-1.1,0.5-1.6c0-0.5,0-1.1,0-1.1
		c0-0.5,0-1.1,0.5-1.6c0-0.5,0-1.1,0.5-1.1c0-0.5,0.5-1.1,0.5-1.6c0-0.5,0-1.1,0.5-1.1c0-0.5,0.5-1.1,0.5-1.6c0-0.5,0.5-1.1,0.5-1.1
		c0-0.5,0.5-1.1,0.5-1.6c0.5-1.1,0.5-1.6,1.1-2.7c0-0.5,0.5-0.5,0.5-1.1s0.5-1.1,0.5-1.6s0.5-0.5,0.5-1.1c0.5-0.5,0.5-1.1,1.1-1.6
		c0-0.5,0.5-0.5,0.5-1.1c0.5-0.5,0.5-1.1,1.1-1.6c0-0.5,0.5-0.5,0.5-1.1c0.5-0.5,0.5-1.1,1.1-1.6c0-0.5,0.5-0.5,0.5-0.5
		c0.5-0.5,0.5-1.1,1.1-1.6l0.5-0.5c0.5-0.5,1.1-1.1,1.1-1.6c11.9-14.1,29.8-23.3,49.3-23.3c35.8,0,64.5,28.7,64.5,64.5
		c0,32-22.8,58-53.1,63.4l0,0c9.8-11.4,15.2-26,15.2-41.7c0-1.6,0-3.8,0-5.4l-40.7,40.1v24.9c8.7-3.3,16.8-8.7,22.8-15.7
		C217.4,177.8,242.8,149.6,242.8,115.5"/>
</g>
</svg>
