<?xml version="1.0" encoding="utf-8"?>
<!-- Generator: Adobe Illustrator 18.1.1, SVG Export Plug-In . SVG Version: 6.00 Build 0)  -->
<!DOCTYPE svg PUBLIC "-//W3C//DTD SVG 1.1//EN" "http://www.w3.org/Graphics/SVG/1.1/DTD/svg11.dtd">
<svg version="1.1" id="Layer_1" xmlns="http://www.w3.org/2000/svg" xmlns:xlink="http://www.w3.org/1999/xlink" x="0px" y="0px"
	 viewBox="0 0 704.6 263.4" enable-background="new 0 0 704.6 263.4" xml:space="preserve">
<g>
	<path d="M451,85.1L448.3,65c-1.1-3.8-1.1-6.5-1.6-8.7l0,0c-0.5,1.6-1.1,3.8-1.6,6l-7.6,22.2h-4.9l-7-20.1c-1.1-2.7-1.6-5.4-2.2-7.6
		l0,0c0,2.7-0.5,5.4-1.1,8.7L420.1,85h-4.9l4.9-34.7h6l7,21.7c1.1,2.7,1.6,4.9,2.2,7l0,0c0.5-2.2,1.1-4.3,1.6-6.5l7.6-22.2h6
		l5.4,34.1H451V85.1z"/>
	<path d="M471,62.3c-3.3,0-5.4,2.7-6,6h11.9C477,65,474.8,62.3,471,62.3 M481.3,72.1h-16.8c0,7,2.7,9.8,8.1,9.8
		c2.7,0,5.4-0.5,7.6-1.6l0.5,3.8c-2.7,1.1-5.4,1.6-8.7,1.6c-7.6,0-11.9-4.3-11.9-13c0-7.6,4.3-13,11.4-13c7,0,10.3,4.9,10.3,10.8
		C481.8,70.4,481.3,71,481.3,72.1"/>
	<path d="M519.8,85.1V68.8c0-3.3-1.1-6-4.3-6c-3.8,0-7,3.8-7,9.8v11.9h-4.3V68.2c0-3.3-0.5-6-4.3-6s-7,4.3-7,9.8v11.9h-4.3V58.4h4.3
		c0,1.6,0,3.8-0.5,5.4l0,0c1.6-3.8,4.9-6,8.7-6c5.4,0,7,3.8,7,6c1.1-2.2,3.8-6,8.7-6s7.6,2.7,7.6,8.1v17.3h-4.6V85.1z"/>
	<path d="M544.7,62.9c-4.3,0-7,5.4-7,9.8v8.7c1.1,0.5,2.7,0.5,4.3,0.5c4.9,0,8.1-2.7,8.1-10.3C550.1,66.1,548.5,62.9,544.7,62.9
		 M542,85.1c-3.3,0-6-0.5-8.7-1.1V47.7h4.3v12.5c0,1.6,0,3.3-0.5,4.9l0,0c1.6-3.8,4.3-5.4,8.1-5.4c6,0,9.2,4.3,9.2,11.9
		C555,79.7,550.1,85.1,542,85.1"/>
	<path d="M570.2,62.3c-3.3,0-5.4,2.7-6,6h11.9C576.2,65,574,62.3,570.2,62.3 M580.5,72.1h-16.8c0,7,2.7,9.8,8.1,9.8
		c2.7,0,5.4-0.5,7.6-1.6l0.5,3.8c-2.7,1.1-5.4,1.6-8.7,1.6c-7.6,0-11.9-4.3-11.9-13c0-7.6,4.3-13,11.4-13c7,0,10.3,4.9,10.3,10.8
		C580.5,70.4,580.5,71,580.5,72.1"/>
	<path d="M600,63.4c-5.4-1.1-8.1,3.3-8.1,11.4v10.3h-4.3V59.6h4.3c0,1.6,0,3.8-0.5,6l0,0c1.1-3.3,3.8-7,8.7-6.5v4.3H600z"/>
	<path d="M429.8,116c-0.5-1.6-1.1-3.3-1.6-4.9l0,0c-0.5,1.6-1.1,3.3-1.6,5.4l-4.3,12.5h11.9L429.8,116z M438.5,139.8l-2.7-8.1h-14.6
		l-2.7,8.1h-4.9l12.5-34.1h5.4l12.5,34.1H438.5z"/>
	<path d="M464.5,139.8c0-1.6,0-3.8,0.5-5.4l0,0c-1.6,3.3-4.3,6-8.7,6c-6,0-7.6-3.8-7.6-8.1v-17.9h4.3v16.3c0,3.8,1.1,5.4,4.3,5.4
		c4.3,0,7-4.3,7-9.8v-11.9h4.3v25.5L464.5,139.8L464.5,139.8z"/>
	<path d="M481.8,140.4c-1.6,0-3.8,0-5.4-0.5v-4.3c1.6,0.5,3.8,1.1,5.4,1.1c3.3,0,5.4-1.6,5.4-3.8c0-5.4-11.9-2.2-11.9-10.8
		c0-4.3,3.3-7.6,10.3-7.6c1.6,0,3.3,0,4.9,0.5v3.8c-1.6-0.5-3.3-0.5-4.9-0.5c-3.3,0-4.9,1.6-4.9,3.8c0,5.4,11.9,2.7,11.9,10.8
		C492.7,137.1,488.4,140.4,481.8,140.4"/>
	<path d="M507.3,140.4c-5.4,0-6.5-2.2-6.5-7.6v-14.6h-5.4v-3.8h5.4v-8.1l4.3-1.1v9.8h7v3.8h-7v13c0,4.3,0.5,5.4,3.8,5.4
		c1.1,0,2.7,0,3.3-0.5v3.8C510.6,140.4,508.9,140.4,507.3,140.4"/>
	<path d="M530.6,118.7c-5.4-1.1-8.1,3.3-8.1,10.8v10.3h-4.3v-25.5h4.3c0,1.6,0,3.8-0.5,6l0,0c1.1-3.3,3.8-7,8.7-6.5v4.9H530.6z"/>
	<path d="M549.6,128.4c-8.7,0-10.8,2.7-10.8,4.9s1.6,3.3,3.8,3.3C546.9,137.1,549.6,132.8,549.6,128.4L549.6,128.4z M549.6,139.8
		c0-1.6,0-3.8,0-4.9l0,0c-1.1,3.3-4.3,5.4-8.7,5.4s-7-2.2-7-6.5c0-5.4,5.4-9.2,15.2-9.2V123c0-3.3-1.6-5.4-5.4-5.4
		c-2.2,0-5.4,0.5-7.6,2.2l-0.5-3.8c2.7-1.1,5.4-1.6,8.7-1.6c7,0,9.2,3.3,9.2,8.7v10.3c0,2.2,0,4.9,0,7h-3.8v-0.6L549.6,139.8
		L549.6,139.8z"/>
	<rect x="562.6" y="103" width="4.3" height="37.4"/>
	<path d="M576.2,114.9h4.3v25.5h-4.3V114.9z M578.3,110.6c-1.6,0-3.3-1.1-3.3-3.3c0-1.6,1.6-2.7,3.3-2.7s3.3,1.1,3.3,2.7
		C581.6,108.9,580,110.6,578.3,110.6"/>
	<path d="M602.7,128.4c-8.7,0-10.8,2.7-10.8,4.9s1.6,3.3,3.8,3.3C600,137.1,602.7,132.8,602.7,128.4L602.7,128.4z M602.7,139.8
		c0-1.6,0-3.8,0-4.9l0,0c-1.1,3.3-4.3,5.4-8.7,5.4s-7-2.2-7-6.5c0-5.4,5.4-9.2,15.2-9.2V123c0-3.3-1.6-5.4-5.4-5.4
		c-2.2,0-5.4,0.5-7.6,2.2l-0.5-3.8c2.7-1.1,5.4-1.6,8.7-1.6c7,0,9.2,3.3,9.2,8.7v10.3c0,2.2,0,4.9,0,7h-3.8L602.7,139.8L602.7,139.8
		L602.7,139.8z"/>
	<path d="M632,139.8v-16.3c0-3.8-1.1-5.4-4.3-5.4c-4.3,0-7,4.3-7,9.8v11.9h-4.3v-25.5h4.3c0,1.6,0,3.8-0.5,5.4l0,0
		c1.6-3.3,4.3-6,8.7-6c6,0,7.6,3.8,7.6,8.1v17.9L632,139.8L632,139.8z"/>
	<path d="M424.9,164.8c-1.1,0-2.2,0-3.3,0v13.6c1.1,0,1.6,0,2.7,0c4.9,0,8.1-2.7,8.1-7C433.1,166.9,430.4,164.8,424.9,164.8
		 M424.4,182.1c-1.1,0-1.6,0-2.7,0v13h-4.9V161c2.7,0,5.4,0,8.7,0c8.1,0,12.5,3.8,12.5,10.3C437.9,177.2,432.5,182.1,424.4,182.1"/>
	<path d="M447.7,195.7c-1.6,0-3.8,0-5.4-0.5v-4.3c1.6,0.5,3.8,1.1,5.4,1.1c3.3,0,5.4-1.6,5.4-3.8c0-5.4-11.9-2.2-11.9-10.8
		c0-4.3,3.3-7.6,10.3-7.6c1.6,0,3.3,0,4.9,0.5v3.8c-1.6-0.5-3.3-0.5-4.9-0.5c-3.3,0-4.9,1.6-4.9,3.8c0,5.4,11.9,2.7,11.9,10.8
		C458.5,192.4,454.7,195.7,447.7,195.7"/>
	<path d="M474.8,197.8c-2.7,7.6-5.4,10.3-10.8,10.3c-1.1,0-2.2,0-3.3-0.5l0.5-4.3c1.1,0.5,2.2,0.5,3.3,0.5c2.7,0,4.3-1.1,6-6
		l1.1-2.7l-9.8-25.5h5.4l4.9,13c0.5,2.2,1.6,4.3,2.2,6.5l0,0c0.5-1.6,1.6-4.9,2.7-7.6l4.3-11.4h4.9L474.8,197.8z"/>
	<path d="M498.7,195.7c-6,0-10.8-2.7-10.8-11.9c0-8.1,4.3-14.1,12.5-14.1c2.2,0,3.8,0.5,6,1.1l-0.5,3.8c-1.6-0.5-3.3-1.1-5.4-1.1
		c-4.9,0-7.6,3.8-7.6,9.8c0,4.9,1.6,8.7,7,8.7c2.2,0,4.3-0.5,6-1.6l0.5,3.8C504.6,195.1,501.9,195.7,498.7,195.7"/>
	<path d="M527.9,195.1v-16.3c0-3.8-1.1-5.4-4.3-5.4c-4.3,0-7,4.3-7,9.8v11.9h-4.3v-37.4h4.3v11.9c0,1.6,0,3.8-0.5,4.9l0,0
		c1.6-3.3,4.3-6,8.7-6c6,0,7.6,3.8,7.6,8.1v17.9h-4.3v0.6H527.9z"/>
	<path d="M550.7,173.4c-3.8,0-7,2.7-7,9.2c0,6,2.7,9.2,7,9.2c3.8,0,7-2.7,7-9.2C557.7,176.7,555.6,173.4,550.7,173.4 M550.1,195.7
		c-7,0-11.4-3.8-11.4-13c0-7.6,4.9-13.6,12.5-13.6c6.5,0,11.4,3.8,11.4,12.5C562.6,189.7,557.7,195.7,550.1,195.7"/>
	<rect x="569.1" y="158.3" width="4.3" height="37.4"/>
	<path d="M591.9,173.4c-3.8,0-7,2.7-7,9.2c0,6,2.7,9.2,7,9.2c3.8,0,7-2.7,7-9.2C598.9,176.7,596.8,173.4,591.9,173.4 M591.3,195.7
		c-7,0-11.4-3.8-11.4-13c0-7.6,4.9-13.6,12.5-13.6c6.5,0,11.4,3.8,11.4,12.5C603.8,189.7,598.9,195.7,591.3,195.7"/>
	<path d="M619.5,172.9c-3.8,0-6.5,2.7-6.5,6c0,3.8,2.2,6,6.5,6c3.8,0,6.5-2.2,6.5-6C625.5,175.1,623.3,172.9,619.5,172.9
		 M622.2,195.7h-6.5c-2.2,1.1-3.3,2.7-3.3,4.9c0,3.3,2.7,4.9,7,4.9c5.4,0,8.1-2.2,8.1-5.4C627.7,196.7,625.5,195.7,622.2,195.7
		 M618.4,208.7c-6.5,0-10.8-2.7-10.8-7.6c0-3.3,2.2-5.4,4.3-6.5c-1.6-0.5-2.7-2.2-2.7-3.8s1.1-3.3,2.7-4.3c-2.7-1.6-3.8-3.8-3.8-7
		c0-5.4,3.8-9.8,10.8-9.8c1.6,0,2.7,0,3.8,0.5h8.7v3.8h-4.3c1.1,1.1,2.2,2.7,2.2,4.9c0,5.4-3.8,9.2-10.8,9.2c-1.1,0-2.2,0-3.3-0.5
		c-1.1,0.5-1.6,1.1-1.6,2.2c0,1.6,1.1,2.2,4.3,2.2h4.9c5.4,0,8.7,2.7,8.7,7C632,204.3,626.6,208.7,618.4,208.7"/>
	<path d="M638.5,169.6h4.3v25.5h-4.3V169.6z M640.7,165.8c-1.6,0-3.3-1.1-3.3-3.3c0-1.6,1.6-2.7,3.3-2.7c1.6,0,3.3,1.1,3.3,2.7
		C643.9,164.2,642.3,165.8,640.7,165.8"/>
	<path d="M660.7,195.7c-6,0-10.8-2.7-10.8-11.9c0-8.1,4.3-14.1,12.5-14.1c2.2,0,3.8,0.5,6,1.1l-0.5,3.8c-1.6-0.5-3.3-1.1-5.4-1.1
		c-4.9,0-7.6,3.8-7.6,9.8c0,4.9,1.6,8.7,7,8.7c2.2,0,4.3-0.5,6-1.6l0.5,3.8C666.1,195.1,663.4,195.7,660.7,195.7"/>
	<path d="M687.3,183.7c-8.7,0-10.8,2.7-10.8,4.9s1.6,3.3,3.8,3.3C684,191.9,687.3,188.1,687.3,183.7L687.3,183.7z M687.3,195.1
		c0-1.6,0-3.8,0-4.9l0,0c-1.1,3.3-4.3,5.4-8.7,5.4c-4.3,0-7-2.2-7-6.5c0-5.4,5.4-9.2,15.2-9.2v-1.6c0-3.3-1.6-5.4-5.4-5.4
		c-2.2,0-5.4,0.5-7.6,2.2l-0.5-3.8c2.7-1.1,5.4-1.6,8.7-1.6c7,0,9.2,3.3,9.2,8.7v10.3c0,2.2,0,4.9,0,7h-3.8v-0.6H687.3z"/>
	<rect x="700.3" y="158.3" width="4.3" height="37.4"/>
	<path d="M422.8,250.9c-2.7,0-4.9-0.5-7-1.1v-4.3c2.2,0.5,4.9,1.1,7,1.1c4.3,0,7.6-1.6,7.6-6c0-7.6-15.7-4.9-15.7-15.7
		c0-5.4,4.3-9.8,12.5-9.8c2.2,0,4.3,0,6,0.5v4.3c-2.2-0.5-4.3-1.1-6-1.1c-4.9,0-7,2.2-7,5.4c0,7.6,15.7,4.9,15.7,15.7
		C435.8,246.6,430.9,250.9,422.8,250.9"/>
	<path d="M452.6,228.2c-3.8,0-7,2.7-7,9.2c0,6,2.7,9.2,7,9.2c3.8,0,7-2.7,7-9.2C459.1,232,456.9,228.2,452.6,228.2 M451.5,250.9
		c-7,0-11.4-3.8-11.4-13c0-7.6,4.9-13.6,12.5-13.6c6.5,0,11.4,3.8,11.4,12.5C464,245,459.1,250.9,451.5,250.9"/>
	<path d="M479.1,250.9c-6,0-10.8-2.7-10.8-11.9c0-8.1,4.3-14.1,12.5-14.1c2.2,0,3.8,0.5,6,1.1l-0.5,3.8c-1.6-0.5-3.3-1.1-5.4-1.1
		c-4.9,0-7.6,3.8-7.6,9.8c0,4.9,1.6,8.7,7,8.7c2.2,0,4.3-0.5,6-1.6l0.5,3.8C485.1,249.9,482.4,250.9,479.1,250.9"/>
	<path d="M492.7,224.9h4.3v25.5h-4.3V224.9z M494.9,221.1c-1.6,0-3.3-1.1-3.3-3.3c0-1.6,1.6-2.7,3.3-2.7c1.6,0,3.3,1.1,3.3,2.7
		C498.1,219.5,496.5,221.1,494.9,221.1"/>
	<path d="M514.9,228.2c-3.3,0-5.4,2.7-6,6h11.9C520.3,230.4,518.2,228.2,514.9,228.2 M525.2,237.4h-16.8c0,6.5,2.7,9.8,8.1,9.8
		c2.7,0,5.4-0.5,7.6-1.6l0.5,3.8c-2.7,1.1-5.4,1.6-8.7,1.6c-7.6,0-11.9-4.3-11.9-13c0-7.6,4.3-13,11.4-13c7,0,10.3,4.9,10.3,10.8
		C525.2,235.8,525.2,236.9,525.2,237.4"/>
	<path d="M539.3,250.9c-5.4,0-7-2.2-7-7.6v-14.6h-5.5v-3.8h5.4v-8.1l4.3-1.1v9.8h7v3.8h-7v13c0,4.3,0.5,5.4,3.8,5.4
		c1.1,0,2.7,0,3.3-0.5v3.8C543.1,250.4,540.9,250.9,539.3,250.9"/>
	<path d="M559.9,253.1c-2.7,7.6-5.4,10.3-10.8,10.3c-1.1,0-2.2,0-3.3-0.5l0.5-4.3c1.1,0.5,2.2,0.5,3.3,0.5c2.7,0,4.3-1.1,6-6
		l1.1-2.7l-9.8-25.5h5.4l4.9,13c0.5,2.2,1.6,4.3,2.2,6.5l0,0c0.5-1.6,1.6-4.9,2.7-7.6l4.3-11.4h4.9L559.9,253.1z"/>
	<path d="M610.3,250.4l-2.2-14.6c-0.5-2.7-0.5-4.9-0.5-6.5l0,0c0,1.1-0.5,2.7-1.1,4.9l-5.4,16.3h-3.8l-5.4-15.2
		c-0.5-2.2-1.1-3.8-1.6-6l0,0c0,2.2-0.5,4.3-0.5,6.5l-1.6,14.6h-3.8l3.8-25.5h4.3l5.4,16.3c0.5,1.6,1.1,3.8,1.6,4.9l0,0
		c0.5-1.6,0.5-3.3,1.6-4.9l5.4-16.3h4.3l3.8,25.5L610.3,250.4L610.3,250.4z"/>
	<path d="M628.2,232.5c-0.5-1.1-1.1-2.7-1.1-3.8l0,0c-0.5,1.1-0.5,2.7-1.1,3.8l-3.2,9.2h9.2L628.2,232.5z M634.7,250.4l-2.2-6h-10.8
		l-2.2,6h-3.8l9.2-25.5h3.8l9.2,25.5H634.7z"/>
	<path d="M648.3,227.6c-1.1,0-1.6,0-2.2,0v10.3c0.5,0,1.6,0,2.2,0c3.8,0,6-2.2,6-5.4C654.2,229.3,652,227.6,648.3,227.6
		 M647.7,240.6c-0.5,0-1.6,0-2.2,0v9.8h-3.3v-25.5c1.6,0,3.8,0,6.5,0c6,0,9.2,2.7,9.2,7.6C657.5,237.4,653.7,240.6,647.7,240.6"/>
	<path d="M666.7,250.9c-1.6,0-3.8,0-5.4-0.5v-3.3c1.6,0.5,3.3,1.1,5.4,1.1c3.3,0,5.4-1.1,5.4-4.3c0-6-11.4-3.3-11.4-11.9
		c0-4.3,3.3-7,9.2-7c1.6,0,3.3,0,4.9,0.5v3.3c-1.6-0.5-3.3-0.5-4.9-0.5c-3.3,0-5.4,1.6-5.4,3.8c0,5.4,11.4,3.8,11.4,11.4
		C675.9,247.7,672.1,250.9,666.7,250.9"/>
	<rect x="383.7" y="46.1" width="2.7" height="212.5"/>
	<path d="M111.1,214.6H142l-15.7-40.7L111.1,214.6z M117.6,174c1.1-2.2,2.2-7,2.2-8.1c0-5.4-5.4-6-10.8-6.5v-3.3h26l34.1,93.8h-14.6
		l-10.3-29.3h-35.8l-10.3,29.3h-8.7L117.6,174z"/>
	<path d="M198.9,202.2h7c10.8,0,20.6-3.8,20.6-20.6c0-15.7-7.6-19-20.1-19c-7.6,0-8.1,2.7-8.1,8.1v31.4h0.6V202.2z M183.7,175.1
		c0-13.6-0.5-13.6-13.6-15.7v-3.3h43.4c17.3,0,28.2,9.2,28.2,26c0,26.6-21.1,26.6-38.5,26.6h-4.9v41.7h-15.2v-75.3L183.7,175.1
		L183.7,175.1z"/>
	<path d="M304.1,167.5c-3.8-1.6-14.1-6.5-24.9-6.5c-7.6,0-13.6,4.3-13.6,13.6c0,21.7,45.5,19.5,45.5,49.3
		c0,20.1-15.7,27.6-35.2,27.6c-10.8,0-21.7-2.7-24.4-3.8v-11.4c4.3,2.7,15.7,8.1,26.6,8.1c8.7,0,17.3-3.8,17.3-16.3
		c0-22.8-45.5-20.6-45.5-49.9c0-15.2,11.9-24.4,31.4-24.4c9.8,0,19,1.6,22.2,2.7v10.8h0.6V167.5z"/>
	<path d="M41.2,75.3L84,118.1l43.4-42.8c-0.5-2.2-1.1-4.3-1.6-7L84.1,110L42.8,68.8C42.3,71,41.7,73.2,41.2,75.3"/>
	<path d="M52.6,50.4L84,81.8l32-31.4c-1.1-1.6-2.7-3.3-3.8-4.9L84,73.1L56.4,45.5C55.3,47.1,53.6,48.8,52.6,50.4"/>
	<path d="M45.5,61.8L84,100.3l39-38.5c-1.1-2.2-2.2-3.8-3.3-5.4L83.9,91.6L48.8,56.4C47.7,58,46.6,60.2,45.5,61.8"/>
	<path d="M107.3,40.6c-1.6-1.6-3.3-2.7-4.9-3.8L84,55.2L66.1,37.3c-1.6,1.1-3.3,2.7-4.9,3.8L84,63.9L107.3,40.6z"/>
	<path d="M169.6,67.2c0-36.9-30.4-67.2-67.2-67.2C80.7,0,61.7,10.3,49.3,26C21.1,33,0,58.5,0,88.9c0,35.8,28.7,64.5,64.5,64.5
		c5.4,0,10.8-0.5,16.3-2.2v-27.1L40.1,84c0-0.5,0-0.5,0-1.1c0-1.1-0.5-1.6-0.5-2.7c0-0.5,0-1.1,0-1.1c0-1.1-0.5-1.6-0.5-2.7
		c0-0.5,0-1.1,0-1.1c0-1.1,0-1.6-0.5-2.7c0-0.5,0-1.1,0-1.1c0-1.1,0-2.7,0-3.8c0,0,0,0,0-0.5c0-1.1,0-2.2,0-3.3v-0.5
		c0-0.5,0-1.6,0-2.2s0-0.5,0-1.1s0-1.1,0-2.2c0-0.5,0-0.5,0-1.1s0-1.1,0.5-1.6c0-0.5,0-1.1,0-1.1c0-0.5,0-1.1,0.5-1.6
		c0-0.5,0-1.1,0.5-1.1c0-0.5,0.5-1.1,0.5-1.6s0-1.1,0.5-1.1c0-0.5,0.5-1.1,0.5-1.6s0.5-1.1,0.5-1.1c0-0.5,0.5-1.1,0.5-1.6
		c0.5-1.1,0.5-1.6,1.1-2.7c0-0.5,0.5-0.5,0.5-1.1s0.5-1.1,0.5-1.6s0.5-0.5,0.5-1.1c0.5-0.5,0.5-1.1,1.1-1.6c0-0.5,0.5-0.5,0.5-1.1
		c0.5-0.5,0.5-1.1,1.1-1.6c0-0.5,0.5-0.5,0.5-1.1c0.5-0.5,0.5-1.1,1.1-1.6c0-0.5,0.5-0.5,0.5-0.5c0.5-0.5,0.5-1.1,1.1-1.6l0.5-0.5
		c0.5-0.5,1.1-1.1,1.1-1.6C64.6,12.6,82.5,3.4,102,3.4c35.8,0,64.5,28.7,64.5,64.5c0,32-22.8,58-53.1,63.4l0,0
		c9.8-11.4,15.2-26,15.2-41.7c0-1.6,0-3.8,0-5.4l-40.7,40.1v24.9c8.7-3.3,16.8-8.7,22.8-15.7C144.2,129.5,169.6,101.3,169.6,67.2"/>
</g>
</svg>
