<?xml version="1.0" encoding="utf-8"?>
<!-- Generator: Adobe Illustrator 18.1.1, SVG Export Plug-In . SVG Version: 6.00 Build 0)  -->
<!DOCTYPE svg PUBLIC "-//W3C//DTD SVG 1.1//EN" "http://www.w3.org/Graphics/SVG/1.1/DTD/svg11.dtd">
<svg version="1.1" xmlns="http://www.w3.org/2000/svg" xmlns:xlink="http://www.w3.org/1999/xlink" x="0px" y="0px"
	 viewBox="0 0 469.5 349" enable-background="new 0 0 469.5 349" xml:space="preserve">
<g id="MouseOff">
	<g>
		<linearGradient id="SVGID_1_" gradientUnits="userSpaceOnUse" x1="229.3515" y1="5.1401" x2="229.3515" y2="265.5251">
			<stop  offset="0" style="stop-color:#030303"/>
			<stop  offset="1" style="stop-color:#333333"/>
		</linearGradient>
		<path fill-rule="evenodd" clip-rule="evenodd" fill="url(#SVGID_1_)" d="M41.1,266.3V13.4C41.1,6,47,0,54.4,0h349.8
			c7.4,0,13.4,6,13.4,13.4v252.9H41.1z"/>
		<radialGradient id="SVGID_2_" cx="110.3917" cy="55.2402" r="339.028" gradientUnits="userSpaceOnUse">
			<stop  offset="0" style="stop-color:#A6B3D9"/>
			<stop  offset="1" style="stop-color:#3B4F82"/>
		</radialGradient>
		<rect x="57.2" y="8.6" fill-rule="evenodd" clip-rule="evenodd" fill="url(#SVGID_2_)" width="344.2" height="237.8"/>
		<polygon fill-rule="evenodd" clip-rule="evenodd" fill="#CFCFCF" points="40.3,267.7 14.6,311.1 450.8,311.1 418.4,267.7 		"/>
		<linearGradient id="SVGID_3_" gradientUnits="userSpaceOnUse" x1="232.6615" y1="311.1298" x2="232.6615" y2="330.2548">
			<stop  offset="0" style="stop-color:#FFFFFF"/>
			<stop  offset="1" style="stop-color:#191919"/>
		</linearGradient>
		<path fill-rule="evenodd" clip-rule="evenodd" fill="url(#SVGID_3_)" d="M14.6,317.5v-6.1h436.2v6.1c0,7.4-6,13.5-13.5,13.5H28.1
			C20.6,331,14.6,324.9,14.6,317.5z"/>
		<path fill-rule="evenodd" clip-rule="evenodd" fill="#999999" d="M64.6,267.5v-6.8c0-1.8,1.4-3.2,3.2-3.2h69.4
			c1.8,0,3.2,1.4,3.2,3.2v6.8c0,0.1,0,0.2,0,0.3H64.6C64.6,267.6,64.6,267.6,64.6,267.5z"/>
		<path fill-rule="evenodd" clip-rule="evenodd" fill="#999999" d="M313.9,267.5v-6.8c0-1.8,1.4-3.2,3.2-3.2h69.3
			c1.8,0,3.2,1.4,3.2,3.2v6.8c0,0.1,0,0.2,0,0.3H314C313.9,267.6,313.9,267.6,313.9,267.5z"/>
		<linearGradient id="SVGID_4_" gradientUnits="userSpaceOnUse" x1="232.6615" y1="309.33" x2="232.6615" y2="299.097">
			<stop  offset="0" style="stop-color:#E6E6E6"/>
			<stop  offset="1" style="stop-color:#8C8C8C"/>
		</linearGradient>
		<polygon fill-rule="evenodd" clip-rule="evenodd" fill="url(#SVGID_4_)" points="40.3,267.7 14.6,311.1 450.8,311.1 418.4,267.7 
					"/>
		<polygon fill-rule="evenodd" clip-rule="evenodd" fill="#B2B2B2" points="62.1,272.1 53.6,293.1 405.9,293.1 392.1,272.1 		"/>
		<polygon fill-rule="evenodd" clip-rule="evenodd" fill="#7D7D7D" points="186,298.7 183.4,306 290.8,306 286.6,298.7 		"/>
		<rect x="68.9" y="277.4" fill-rule="evenodd" clip-rule="evenodd" fill="#474747" width="14.7" height="4.2"/>
		<rect x="88" y="277.4" fill-rule="evenodd" clip-rule="evenodd" fill="#474747" width="14.7" height="4.2"/>
		<rect x="106.4" y="277.4" fill-rule="evenodd" clip-rule="evenodd" fill="#474747" width="14.7" height="4.2"/>
		<rect x="125.5" y="277.4" fill-rule="evenodd" clip-rule="evenodd" fill="#474747" width="14.7" height="4.2"/>
		<rect x="144.6" y="277.4" fill-rule="evenodd" clip-rule="evenodd" fill="#474747" width="14.7" height="4.2"/>
		<rect x="163.8" y="277.4" fill-rule="evenodd" clip-rule="evenodd" fill="#474747" width="14.7" height="4.2"/>
		<rect x="182.9" y="277.4" fill-rule="evenodd" clip-rule="evenodd" fill="#474747" width="14.7" height="4.2"/>
		<rect x="202" y="277.4" fill-rule="evenodd" clip-rule="evenodd" fill="#474747" width="14.7" height="4.2"/>
		<rect x="221.1" y="277.4" fill-rule="evenodd" clip-rule="evenodd" fill="#474747" width="14.7" height="4.2"/>
		<rect x="240.3" y="277.4" fill-rule="evenodd" clip-rule="evenodd" fill="#474747" width="14.7" height="4.2"/>
		<rect x="260.1" y="277.4" fill-rule="evenodd" clip-rule="evenodd" fill="#474747" width="14.7" height="4.2"/>
		<rect x="279.2" y="277.4" fill-rule="evenodd" clip-rule="evenodd" fill="#474747" width="14.7" height="4.2"/>
		<rect x="297.6" y="277.4" fill-rule="evenodd" clip-rule="evenodd" fill="#474747" width="14.7" height="4.2"/>
		<rect x="316.8" y="277.4" fill-rule="evenodd" clip-rule="evenodd" fill="#474747" width="14.7" height="4.2"/>
		<rect x="335.9" y="277.4" fill-rule="evenodd" clip-rule="evenodd" fill="#474747" width="14.7" height="4.2"/>
		<rect x="355" y="277.4" fill-rule="evenodd" clip-rule="evenodd" fill="#474747" width="14.7" height="4.2"/>
		<rect x="374.1" y="277.4" fill-rule="evenodd" clip-rule="evenodd" fill="#474747" width="14.7" height="4.2"/>
		<rect x="64.6" y="286.5" fill-rule="evenodd" clip-rule="evenodd" fill="#474747" width="14.7" height="4.8"/>
		<rect x="83.7" y="286.5" fill-rule="evenodd" clip-rule="evenodd" fill="#474747" width="14.7" height="4.8"/>
		<rect x="102.1" y="286.5" fill-rule="evenodd" clip-rule="evenodd" fill="#474747" width="14.7" height="4.8"/>
		<rect x="121.2" y="286.5" fill-rule="evenodd" clip-rule="evenodd" fill="#474747" width="14.7" height="4.8"/>
		<rect x="140.3" y="286.5" fill-rule="evenodd" clip-rule="evenodd" fill="#474747" width="14.7" height="4.8"/>
		<rect x="159.5" y="286.5" fill-rule="evenodd" clip-rule="evenodd" fill="#474747" width="14.7" height="4.8"/>
		<rect x="178.6" y="286.5" fill-rule="evenodd" clip-rule="evenodd" fill="#474747" width="14.7" height="4.8"/>
		<rect x="197.7" y="286.5" fill-rule="evenodd" clip-rule="evenodd" fill="#474747" width="14.7" height="4.8"/>
		<rect x="216.8" y="286.5" fill-rule="evenodd" clip-rule="evenodd" fill="#474747" width="14.7" height="4.8"/>
		<rect x="236" y="286.5" fill-rule="evenodd" clip-rule="evenodd" fill="#474747" width="14.7" height="4.8"/>
		<rect x="255.8" y="286.5" fill-rule="evenodd" clip-rule="evenodd" fill="#474747" width="14.7" height="4.8"/>
		<rect x="275" y="286.5" fill-rule="evenodd" clip-rule="evenodd" fill="#474747" width="14.7" height="4.8"/>
		<rect x="293.3" y="286.5" fill-rule="evenodd" clip-rule="evenodd" fill="#474747" width="14.7" height="4.8"/>
		<rect x="312.5" y="286.5" fill-rule="evenodd" clip-rule="evenodd" fill="#474747" width="14.7" height="4.8"/>
		<rect x="331.6" y="286.5" fill-rule="evenodd" clip-rule="evenodd" fill="#474747" width="14.7" height="4.8"/>
		<rect x="350.7" y="286.5" fill-rule="evenodd" clip-rule="evenodd" fill="#474747" width="14.7" height="4.8"/>
		<rect x="369.8" y="286.5" fill-rule="evenodd" clip-rule="evenodd" fill="#474747" width="14.7" height="4.8"/>
		<rect x="291.9" y="318.4" fill-rule="evenodd" clip-rule="evenodd" fill="#7D7D7D" width="144.2" height="5.4"/>
		<rect x="28.5" y="316.5" fill-rule="evenodd" clip-rule="evenodd" fill="#636363" width="36" height="5.6"/>
		<rect x="77.1" y="316.5" fill-rule="evenodd" clip-rule="evenodd" fill="#787878" width="36.1" height="5.6"/>
		<rect x="69" y="275.3" fill-rule="evenodd" clip-rule="evenodd" fill="#EDEDED" width="14.7" height="4.2"/>
		<rect x="88.1" y="275.3" fill-rule="evenodd" clip-rule="evenodd" fill="#EDEDED" width="14.7" height="4.2"/>
		<rect x="106.5" y="275.3" fill-rule="evenodd" clip-rule="evenodd" fill="#EDEDED" width="14.7" height="4.2"/>
		<rect x="125.6" y="275.3" fill-rule="evenodd" clip-rule="evenodd" fill="#EDEDED" width="14.7" height="4.2"/>
		<rect x="144.8" y="275.3" fill-rule="evenodd" clip-rule="evenodd" fill="#EDEDED" width="14.7" height="4.2"/>
		<rect x="163.9" y="275.3" fill-rule="evenodd" clip-rule="evenodd" fill="#EDEDED" width="14.7" height="4.2"/>
		<rect x="183" y="275.3" fill-rule="evenodd" clip-rule="evenodd" fill="#EDEDED" width="14.7" height="4.2"/>
		<rect x="202.1" y="275.3" fill-rule="evenodd" clip-rule="evenodd" fill="#EDEDED" width="14.7" height="4.2"/>
		<rect x="221.3" y="275.3" fill-rule="evenodd" clip-rule="evenodd" fill="#EDEDED" width="14.7" height="4.2"/>
		<rect x="240.4" y="275.3" fill-rule="evenodd" clip-rule="evenodd" fill="#EDEDED" width="14.7" height="4.2"/>
		<rect x="260.3" y="275.3" fill-rule="evenodd" clip-rule="evenodd" fill="#EDEDED" width="14.7" height="4.2"/>
		<rect x="279.4" y="275.3" fill-rule="evenodd" clip-rule="evenodd" fill="#EDEDED" width="14.7" height="4.2"/>
		<rect x="297.8" y="275.3" fill-rule="evenodd" clip-rule="evenodd" fill="#EDEDED" width="14.7" height="4.2"/>
		<rect x="316.9" y="275.3" fill-rule="evenodd" clip-rule="evenodd" fill="#EDEDED" width="14.7" height="4.2"/>
		<rect x="336" y="275.3" fill-rule="evenodd" clip-rule="evenodd" fill="#EDEDED" width="14.7" height="4.2"/>
		<rect x="355.1" y="275.3" fill-rule="evenodd" clip-rule="evenodd" fill="#EDEDED" width="14.7" height="4.2"/>
		<rect x="374.3" y="275.3" fill-rule="evenodd" clip-rule="evenodd" fill="#EDEDED" width="14.7" height="4.2"/>
		<rect x="64.7" y="284" fill-rule="evenodd" clip-rule="evenodd" fill="#EDEDED" width="14.7" height="4.8"/>
		<rect x="83.8" y="284" fill-rule="evenodd" clip-rule="evenodd" fill="#EDEDED" width="14.7" height="4.8"/>
		<rect x="102.2" y="284" fill-rule="evenodd" clip-rule="evenodd" fill="#EDEDED" width="14.7" height="4.8"/>
		<rect x="121.4" y="284" fill-rule="evenodd" clip-rule="evenodd" fill="#EDEDED" width="14.7" height="4.8"/>
		<rect x="140.5" y="284" fill-rule="evenodd" clip-rule="evenodd" fill="#EDEDED" width="14.7" height="4.8"/>
		<rect x="159.6" y="284" fill-rule="evenodd" clip-rule="evenodd" fill="#EDEDED" width="14.7" height="4.8"/>
		<rect x="178.7" y="284" fill-rule="evenodd" clip-rule="evenodd" fill="#EDEDED" width="14.7" height="4.8"/>
		<rect x="197.9" y="284" fill-rule="evenodd" clip-rule="evenodd" fill="#EDEDED" width="14.7" height="4.8"/>
		<rect x="217" y="284" fill-rule="evenodd" clip-rule="evenodd" fill="#EDEDED" width="14.7" height="4.8"/>
		<rect x="236.1" y="284" fill-rule="evenodd" clip-rule="evenodd" fill="#EDEDED" width="14.7" height="4.8"/>
		<rect x="256" y="284" fill-rule="evenodd" clip-rule="evenodd" fill="#EDEDED" width="14.7" height="4.8"/>
		<rect x="275.1" y="284" fill-rule="evenodd" clip-rule="evenodd" fill="#EDEDED" width="14.7" height="4.8"/>
		<rect x="293.5" y="284" fill-rule="evenodd" clip-rule="evenodd" fill="#EDEDED" width="14.7" height="4.8"/>
		<rect x="312.6" y="284" fill-rule="evenodd" clip-rule="evenodd" fill="#EDEDED" width="14.7" height="4.8"/>
		<rect x="331.7" y="284" fill-rule="evenodd" clip-rule="evenodd" fill="#EDEDED" width="14.7" height="4.8"/>
		<rect x="350.9" y="284" fill-rule="evenodd" clip-rule="evenodd" fill="#EDEDED" width="14.7" height="4.8"/>
		<rect x="370" y="284" fill-rule="evenodd" clip-rule="evenodd" fill="#EDEDED" width="14.7" height="4.8"/>
		<rect x="186.6" y="297.9" fill-rule="evenodd" clip-rule="evenodd" width="99.7" height="1.5"/>
		<rect x="14.6" y="310.4" fill-rule="evenodd" clip-rule="evenodd" fill="#545454" width="436.2" height="2.2"/>
		<rect x="14.6" y="312.6" fill-rule="evenodd" clip-rule="evenodd" fill="#FFFFFF" width="436.2" height="2.2"/>
		<rect x="62.1" y="272" fill-rule="evenodd" clip-rule="evenodd" width="331" height="1.2"/>
		<rect x="292" y="323.2" fill-rule="evenodd" clip-rule="evenodd" fill="#FFFFFF" width="144.2" height="2.4"/>
		<polygon fill-rule="evenodd" clip-rule="evenodd" points="54.2,293.3 53.1,292.9 61.6,272.4 62.7,272.9 		"/>
		
			<rect x="386.9" y="281.8" transform="matrix(0.5309 0.8474 -0.8474 0.5309 426.3611 -205.5029)" fill-rule="evenodd" clip-rule="evenodd" width="23.9" height="1.2"/>
		<path fill-rule="evenodd" clip-rule="evenodd" fill="#999999" d="M65.1,260v1.7c0,1,0.9,1.9,1.9,1.9h70.8c1,0,1.9-0.8,1.9-1.9V260
			c0-1-0.9-1.9-1.9-1.9H67C66,258.2,65.1,259,65.1,260z"/>
		<path fill-rule="evenodd" clip-rule="evenodd" fill="#A6A6A6" d="M66.8,263L66.8,263c0.6,0.1,1.3,0.1,2,0.1h68.9
			c0.9,0,1.7-0.7,1.7-1.6c0-0.5,0.1-1,0.1-1.5c0-0.9-0.6-1.6-1.5-1.6l0,0c-0.6-0.1-1.3-0.1-2-0.1H67.1c-0.9,0-1.7,0.7-1.8,1.6
			c0,0.5-0.1,1-0.1,1.5C65.3,262.3,65.9,263,66.8,263z"/>
		<path fill-rule="evenodd" clip-rule="evenodd" fill="#B3B3B3" d="M66.6,262.5L66.6,262.5c0.5,0.2,1.2,0.3,2,0.3h69.1
			c0.8,0,1.5-0.6,1.6-1.3c0.1-0.4,0.1-0.8,0.2-1.2c0.1-0.7-0.5-1.4-1.2-1.4l0,0c-0.5-0.2-1.2-0.3-2-0.3H67.2c-0.8,0-1.5,0.6-1.6,1.3
			c-0.1,0.4-0.1,0.8-0.2,1.2C65.4,261.8,65.9,262.4,66.6,262.5z"/>
		<path fill-rule="evenodd" clip-rule="evenodd" fill="#BFBFBF" d="M66.4,261.9L66.4,261.9c0.3,0.2,1.1,0.4,1.9,0.4h69.3
			c0.7,0,1.3-0.4,1.5-1c0.1-0.3,0.2-0.6,0.2-1c0.1-0.6-0.3-1.1-0.8-1.2l0,0c-0.3-0.2-1.1-0.5-2-0.5H67.3c-0.7,0-1.3,0.5-1.5,1
			c-0.1,0.3-0.2,0.6-0.2,1C65.5,261.3,65.9,261.8,66.4,261.9z"/>
		<path fill-rule="evenodd" clip-rule="evenodd" fill="#CCCCCC" d="M66.2,261.4L66.2,261.4c0.2,0.3,1,0.6,1.9,0.6h69.4
			c0.6,0,1.1-0.3,1.3-0.7c0.1-0.2,0.2-0.5,0.3-0.7c0.1-0.4-0.1-0.8-0.4-1l0,0c-0.2-0.3-1-0.6-1.9-0.6H67.4c-0.6,0-1.1,0.3-1.3,0.7
			c-0.1,0.2-0.2,0.5-0.3,0.7C65.6,260.9,65.8,261.2,66.2,261.4z"/>
		<path fill-rule="evenodd" clip-rule="evenodd" fill="#D9D9D9" d="M66,260.8L66,260.8c0.1,0.4,0.9,0.8,1.9,0.8h69.5
			c0.5,0,0.9-0.2,1.2-0.4c0.2-0.1,0.3-0.3,0.4-0.5c0.2-0.3,0.1-0.6,0-0.7l0,0c-0.1-0.4-0.9-0.8-1.9-0.8H67.5c-0.5,0-0.9,0.2-1.2,0.4
			c-0.2,0.1-0.3,0.3-0.4,0.5C65.7,260.4,65.8,260.7,66,260.8z"/>
		<path fill-rule="evenodd" clip-rule="evenodd" fill="#E5E5E5" d="M65.7,260.3L65.7,260.3c0,0.5,0.8,0.9,1.9,0.9h69.7
			c1,0,1.9-0.4,1.9-0.9l0,0c0-0.5-0.8-0.9-1.9-0.9H67.6C66.6,259.4,65.7,259.8,65.7,260.3z"/>
		<path fill-rule="evenodd" clip-rule="evenodd" fill="#999999" d="M314.3,260l0,1.7c0,1,0.9,1.9,1.9,1.9H387c1,0,1.9-0.8,1.9-1.9
			l0-1.7c0-1-0.9-1.9-1.9-1.9h-70.8C315.1,258.2,314.3,259,314.3,260z"/>
		<path fill-rule="evenodd" clip-rule="evenodd" fill="#A6A6A6" d="M316,263L316,263c0.6,0.1,1.3,0.1,2,0.1h69
			c0.9,0,1.7-0.7,1.7-1.6c0-0.5,0.1-1,0.1-1.5c0-0.9-0.7-1.6-1.5-1.6l0,0c-0.6-0.1-1.3-0.1-2-0.1h-69c-0.9,0-1.7,0.7-1.7,1.6
			c0,0.5-0.1,1-0.1,1.5C314.4,262.3,315.1,263,316,263z"/>
		<path fill-rule="evenodd" clip-rule="evenodd" fill="#B3B3B3" d="M315.7,262.5L315.7,262.5c0.5,0.2,1.2,0.3,2,0.3h69.1
			c0.8,0,1.5-0.6,1.6-1.3c0.1-0.4,0.1-0.8,0.2-1.2c0.1-0.7-0.5-1.4-1.1-1.4l0,0c-0.5-0.2-1.2-0.3-2-0.3h-69.1
			c-0.8,0-1.5,0.6-1.6,1.3c-0.1,0.4-0.1,0.8-0.2,1.2C314.5,261.8,315.1,262.4,315.7,262.5z"/>
		<path fill-rule="evenodd" clip-rule="evenodd" fill="#BFBFBF" d="M315.5,261.9L315.5,261.9c0.3,0.2,1.1,0.4,1.9,0.4h69.2
			c0.7,0,1.3-0.4,1.5-1c0.1-0.3,0.2-0.6,0.2-1c0.1-0.6-0.3-1.1-0.8-1.2l0,0c-0.3-0.2-1.1-0.5-2-0.5h-69.2c-0.7,0-1.3,0.5-1.5,1
			c-0.1,0.3-0.2,0.6-0.2,1C314.6,261.3,315,261.8,315.5,261.9z"/>
		<path fill-rule="evenodd" clip-rule="evenodd" fill="#CCCCCC" d="M315.3,261.4L315.3,261.4c0.2,0.3,1,0.6,1.9,0.6h69.4
			c0.6,0,1.1-0.3,1.3-0.7c0.1-0.2,0.2-0.5,0.3-0.7c0.1-0.4-0.1-0.8-0.4-1l0,0c-0.2-0.3-1-0.6-1.9-0.6h-69.4c-0.6,0-1.1,0.3-1.3,0.7
			c-0.1,0.2-0.2,0.5-0.3,0.7C314.8,260.9,315,261.2,315.3,261.4z"/>
		<path fill-rule="evenodd" clip-rule="evenodd" fill="#D9D9D9" d="M315.1,260.8L315.1,260.8c0.1,0.4,0.9,0.8,1.9,0.8h69.5
			c0.5,0,0.9-0.2,1.2-0.4c0.2-0.1,0.3-0.3,0.4-0.5c0.2-0.3,0.1-0.6,0-0.7l0,0c-0.1-0.4-0.9-0.8-1.9-0.8h-69.5
			c-0.5,0-0.9,0.2-1.2,0.4c-0.2,0.1-0.3,0.3-0.4,0.5C314.9,260.4,314.9,260.7,315.1,260.8z"/>
		<path fill-rule="evenodd" clip-rule="evenodd" fill="#E5E5E5" d="M314.9,260.3L314.9,260.3c0,0.5,0.8,0.9,1.9,0.9h69.7
			c1,0,1.9-0.4,1.9-0.9l0,0c0-0.5-0.8-0.9-1.9-0.9h-69.7C315.7,259.4,314.9,259.8,314.9,260.3z"/>
		<linearGradient id="SVGID_5_" gradientUnits="userSpaceOnUse" x1="102.4367" y1="264.79" x2="102.4367" y2="267.196">
			<stop  offset="0" style="stop-color:#999999"/>
			<stop  offset="1" style="stop-color:#595959"/>
		</linearGradient>
		<rect x="64.5" y="264.8" fill-rule="evenodd" clip-rule="evenodd" fill="url(#SVGID_5_)" width="75.8" height="3"/>
		<linearGradient id="SVGID_6_" gradientUnits="userSpaceOnUse" x1="351.5866" y1="264.79" x2="351.5866" y2="267.196">
			<stop  offset="0" style="stop-color:#999999"/>
			<stop  offset="1" style="stop-color:#595959"/>
		</linearGradient>
		<rect x="313.7" y="264.8" fill-rule="evenodd" clip-rule="evenodd" fill="url(#SVGID_6_)" width="75.8" height="3"/>
		<radialGradient id="SVGID_7_" cx="146.2516" cy="75.6499" r="339.028" gradientUnits="userSpaceOnUse">
			<stop  offset="0" style="stop-color:#BDC7ED"/>
			<stop  offset="1" style="stop-color:#3B4F82"/>
		</radialGradient>
		<polygon fill-rule="evenodd" clip-rule="evenodd" fill="url(#SVGID_7_)" points="57.2,246.4 57.2,8.6 211.1,8.6 147.7,246.4 		"/>
	</g>
</g>
</svg>
