<?xml version="1.0" encoding="utf-8"?>
<!-- Generator: Adobe Illustrator 18.1.1, SVG Export Plug-In . SVG Version: 6.00 Build 0)  -->
<!DOCTYPE svg PUBLIC "-//W3C//DTD SVG 1.1//EN" "http://www.w3.org/Graphics/SVG/1.1/DTD/svg11.dtd">
<svg version="1.1" xmlns="http://www.w3.org/2000/svg" xmlns:xlink="http://www.w3.org/1999/xlink" x="0px" y="0px"
	 viewBox="0 0 851 360" enable-background="new 0 0 851 360" xml:space="preserve">
<g id="Layer_2">
	<g opacity="0.5">
		<path fill="#FFFFFF" d="M193.3,319.7l-9.6,20c-2.3,10.3,7.5,20.3,16.8,20.3h448.7c9.3,0,23.3-11.1,16.8-20.3l-16.8-17
			c-3.8-10.3-14.3-20.3-23.6-20.3H215.4C206.1,302.3,200.7,310.4,193.3,319.7z"/>
		<path fill="#E3E3E3" d="M202.7,355.7c6.6,1,14.8,2.2,22.9,2.2h419.1c8.6,0,21.1-9.8,16.1-18.1c-4.4-5.2-9-10.4-13.8-15.8
			c-1.3-3.7-3.4-7.4-5.9-10.7c-4.6-5.9-10.6-10.4-16.9-10.4H224.7c10.7,0,7.8,6.8-4,14.8l-29.4,16.9c-2.5,5.6-0.3,12.1,3.9,16.5
			C197.4,353.4,200.1,355,202.7,355.7z"/>
		<path fill="#C4C4C4" d="M204.6,351.9c5.3,2,13.5,3.9,21.6,3.9h414.6c7.9,0,19.3-8.6,15.5-16c-3.4-4.7-7-9.6-11.2-14.6
			c-1.2-3.7-3.2-7.4-5.5-10.8c-4.4-6.1-10-10.9-16.5-10.9H232.7c28.1,0,27.3,5.8,11.6,12.4l-46.4,14.3c-3.3,4.7-2.3,11.1,1,16.1
			C200.6,348.8,202.6,350.7,204.6,351.9z"/>
		<path fill="#A8A8A8" d="M206.4,348.6c4,2.8,12.4,5.6,20.4,5.6h410.6c7.4,0,17.6-7.4,15-14.2c-2.5-4.3-5.4-9-9.1-13.7
			c-1.2-3.7-3-7.5-5.2-10.9c-4.2-6.2-9.4-11.4-16.2-11.4H239.7c43.1,0,44.4,4.8,25.3,10.4l-61.4,12c-4.1,3.9-4.1,10.4-1.5,15.7
			C203.3,344.6,204.8,347,206.4,348.6z"/>
		<path fill="#8C8C8C" d="M207.8,345.6c3.1,3.5,11.3,6.9,19.5,6.9h407.1c6.9,0,16.2-6.5,14.4-12.7c-1.7-4-3.9-8.4-7.1-12.8
			c-1.2-3.8-2.9-7.5-4.7-11c-4.1-6.3-9-11.9-16-11.9H245.8c56.4,0,59.3,4,37.2,8.7l-74.5,9.9c-4.7,3.3-5.7,9.7-3.7,15.4
			C205.6,341.1,206.8,343.6,207.8,345.6z"/>
		<path fill="#707070" d="M209.2,342.8c2.1,4.2,10.4,8.3,18.5,8.3h403.9c6.4,0,14.9-5.7,14-11.1c-0.9-3.7-2.5-7.7-5.3-12.1
			c-1.2-3.8-2.8-7.5-4.5-11.1c-3.9-6.4-8.5-12.2-15.7-12.2H251.5c69,0,73.4,3.2,48.6,6.9l-86.9,8c-5.5,2.7-7.1,9-5.9,15.1
			C207.9,337.7,208.5,340.5,209.2,342.8z"/>
		<path fill="#545454" d="M210.7,340c1,4.8,9.5,9.6,17.5,9.6h400.5c6,0,13.5-4.7,13.5-9.7c-0.1-3.4-1-7.2-3.3-11.2
			c-1.1-3.8-2.6-7.6-4.2-11.2c-3.8-6.6-8-12.6-15.4-12.6H257.5c81.7,0,87.9,2.5,60.1,5.3l-99.5,6c-6.1,2-8.7,8.4-8,14.8
			C210.2,334.2,210.4,337.3,210.7,340z"/>
		<path fill="#383838" d="M212.1,337.2c0.1,5.6,8.5,11,16.6,11h397.1c5.5,0,12.1-3.8,13.1-8.1c0.6-3.1,0.4-6.6-1.4-10.4
			c-1.1-3.8-2.5-7.6-3.9-11.3c-3.6-6.7-7.5-13-15.2-13h-355c94.7,0,102.4,1.7,71.8,3.5l-112.3,4c-6.7,1.3-10.2,7.6-10.2,14.4
			C212.5,330.8,212.3,334.1,212.1,337.2z"/>
		<path fill="#191919" d="M213.6,334.3c-0.9,6.3,7.5,12.4,15.6,12.4H623c5.1,0,10.7-2.9,12.6-6.6c1.4-2.7,1.9-6.1,0.5-9.6
			c-1.1-3.8-2.4-7.6-3.6-11.4c-3.4-6.8-7-13.4-14.9-13.4H269.5c107.8,0,117.2,0.8,83.7,1.8l-125.2,2.1c-7.4,0.7-11.8,6.9-12.4,14.1
			C214.8,327.2,214.2,330.8,213.6,334.3z"/>
		<path d="M218.3,319.9l-3.3,11.6c-2,7,6.5,13.8,14.6,13.8H620c8,0,16.6-6.2,14.6-13.8l-3.3-11.6c-3.3-7-6.6-13.8-14.6-13.8H233
			C224.9,306.1,219.7,312.2,218.3,319.9z"/>
	</g>
</g>
<g id="Layer_1">
	<g id="Layer_1_1_">
	</g>
	<g id="MouseOff">
		<g>
			
				<linearGradient id="SVGID_1_" gradientUnits="userSpaceOnUse" x1="229.35" y1="354.8599" x2="229.35" y2="94.4749" gradientTransform="matrix(1.0315 0 0 -1.0315 183.351 371.3467)">
				<stop  offset="0" style="stop-color:#030303"/>
				<stop  offset="1" style="stop-color:#333333"/>
			</linearGradient>
			<path fill="url(#SVGID_1_)" d="M225.7,274.7V13.8c0-7.6,6.1-13.8,13.7-13.8h360.8c7.6,0,13.8,6.2,13.8,13.8v260.9H225.7z"/>
			
				<radialGradient id="SVGID_2_" cx="110.3917" cy="304.7598" r="339.028" gradientTransform="matrix(1.0315 0 0 -1.0315 183.351 371.3467)" gradientUnits="userSpaceOnUse">
				<stop  offset="0" style="stop-color:#A6B3D9"/>
				<stop  offset="1" style="stop-color:#3B4F82"/>
			</radialGradient>
			<rect x="242.4" y="8.9" fill="url(#SVGID_2_)" width="355" height="245.3"/>
			<polygon fill="#CFCFCF" points="224.9,276.1 198.4,320.9 648.4,320.9 614.9,276.1 			"/>
			
				<linearGradient id="SVGID_3_" gradientUnits="userSpaceOnUse" x1="232.7" y1="48.8702" x2="232.7" y2="29.7452" gradientTransform="matrix(1.0315 0 0 -1.0315 183.351 371.3467)">
				<stop  offset="0" style="stop-color:#FFFFFF"/>
				<stop  offset="1" style="stop-color:#191919"/>
			</linearGradient>
			<path fill="url(#SVGID_3_)" d="M198.4,327.5v-6.3h449.9v6.3c0,7.6-6.2,13.9-13.9,13.9H212.3C204.6,341.4,198.4,335.1,198.4,327.5
				z"/>
			<path fill="#999999" d="M250,275.9v-7c0-1.9,1.4-3.3,3.3-3.3h71.6c1.9,0,3.3,1.4,3.3,3.3v7c0,0.1,0,0.2,0,0.3H250
				C250,276,250,276,250,275.9z"/>
			<path fill="#999999" d="M507.1,275.9v-7c0-1.9,1.4-3.3,3.3-3.3h71.5c1.9,0,3.3,1.4,3.3,3.3v7c0,0.1,0,0.2,0,0.3h-78
				C507.1,276,507.1,276,507.1,275.9z"/>
			
				<linearGradient id="SVGID_4_" gradientUnits="userSpaceOnUse" x1="232.7" y1="50.67" x2="232.7" y2="60.903" gradientTransform="matrix(1.0315 0 0 -1.0315 183.351 371.3467)">
				<stop  offset="0" style="stop-color:#E6E6E6"/>
				<stop  offset="1" style="stop-color:#8C8C8C"/>
			</linearGradient>
			<polygon fill="url(#SVGID_4_)" points="224.9,276.1 198.4,320.9 648.4,320.9 614.9,276.1 			"/>
			<polygon fill="#B2B2B2" points="247.4,280.7 238.6,302.3 602,302.3 587.8,280.7 			"/>
			<polygon fill="#7D7D7D" points="375.2,308.1 372.5,315.6 483.3,315.6 479,308.1 			"/>
			<rect x="254.4" y="286.1" fill="#474747" width="15.2" height="4.3"/>
			<rect x="274.1" y="286.1" fill="#474747" width="15.2" height="4.3"/>
			<rect x="293.1" y="286.1" fill="#474747" width="15.2" height="4.3"/>
			<rect x="312.8" y="286.1" fill="#474747" width="15.2" height="4.3"/>
			<rect x="332.5" y="286.1" fill="#474747" width="15.2" height="4.3"/>
			<rect x="352.3" y="286.1" fill="#474747" width="15.2" height="4.3"/>
			<rect x="372" y="286.1" fill="#474747" width="15.2" height="4.3"/>
			<rect x="391.7" y="286.1" fill="#474747" width="15.2" height="4.3"/>
			<rect x="411.4" y="286.1" fill="#474747" width="15.2" height="4.3"/>
			<rect x="431.2" y="286.1" fill="#474747" width="15.2" height="4.3"/>
			<rect x="451.6" y="286.1" fill="#474747" width="15.2" height="4.3"/>
			<rect x="471.4" y="286.1" fill="#474747" width="15.2" height="4.3"/>
			<rect x="490.3" y="286.1" fill="#474747" width="15.2" height="4.3"/>
			<rect x="510.1" y="286.1" fill="#474747" width="15.2" height="4.3"/>
			<rect x="529.8" y="286.1" fill="#474747" width="15.2" height="4.3"/>
			<rect x="549.5" y="286.1" fill="#474747" width="15.2" height="4.3"/>
			<rect x="569.2" y="286.1" fill="#474747" width="15.2" height="4.3"/>
			<rect x="250" y="295.5" fill="#474747" width="15.2" height="5"/>
			<rect x="269.7" y="295.5" fill="#474747" width="15.2" height="5"/>
			<rect x="288.7" y="295.5" fill="#474747" width="15.2" height="5"/>
			<rect x="308.4" y="295.5" fill="#474747" width="15.2" height="5"/>
			<rect x="328.1" y="295.5" fill="#474747" width="15.2" height="5"/>
			<rect x="347.9" y="295.5" fill="#474747" width="15.2" height="5"/>
			<rect x="367.6" y="295.5" fill="#474747" width="15.2" height="5"/>
			<rect x="387.3" y="295.5" fill="#474747" width="15.2" height="5"/>
			<rect x="407" y="295.5" fill="#474747" width="15.2" height="5"/>
			<rect x="426.8" y="295.5" fill="#474747" width="15.2" height="5"/>
			<rect x="447.2" y="295.5" fill="#474747" width="15.2" height="5"/>
			<rect x="467" y="295.5" fill="#474747" width="15.2" height="5"/>
			<rect x="485.9" y="295.5" fill="#474747" width="15.2" height="5"/>
			<rect x="505.7" y="295.5" fill="#474747" width="15.2" height="5"/>
			<rect x="525.4" y="295.5" fill="#474747" width="15.2" height="5"/>
			<rect x="545.1" y="295.5" fill="#474747" width="15.2" height="5"/>
			<rect x="564.8" y="295.5" fill="#474747" width="15.2" height="5"/>
			<rect x="484.5" y="328.4" fill="#7D7D7D" width="148.7" height="5.6"/>
			<rect x="212.7" y="326.5" fill="#636363" width="37.1" height="5.8"/>
			<rect x="262.9" y="326.5" fill="#787878" width="37.2" height="5.8"/>
			<rect x="254.5" y="284" fill="#EDEDED" width="15.2" height="4.3"/>
			<rect x="274.2" y="284" fill="#EDEDED" width="15.2" height="4.3"/>
			<rect x="293.2" y="284" fill="#EDEDED" width="15.2" height="4.3"/>
			<rect x="312.9" y="284" fill="#EDEDED" width="15.2" height="4.3"/>
			<rect x="332.7" y="284" fill="#EDEDED" width="15.2" height="4.3"/>
			<rect x="352.4" y="284" fill="#EDEDED" width="15.2" height="4.3"/>
			<rect x="372.1" y="284" fill="#EDEDED" width="15.2" height="4.3"/>
			<rect x="391.8" y="284" fill="#EDEDED" width="15.2" height="4.3"/>
			<rect x="411.6" y="284" fill="#EDEDED" width="15.2" height="4.3"/>
			<rect x="431.3" y="284" fill="#EDEDED" width="15.2" height="4.3"/>
			<rect x="451.9" y="284" fill="#EDEDED" width="15.2" height="4.3"/>
			<rect x="471.6" y="284" fill="#EDEDED" width="15.2" height="4.3"/>
			<rect x="490.5" y="284" fill="#EDEDED" width="15.2" height="4.3"/>
			<rect x="510.2" y="284" fill="#EDEDED" width="15.2" height="4.3"/>
			<rect x="529.9" y="284" fill="#EDEDED" width="15.2" height="4.3"/>
			<rect x="549.6" y="284" fill="#EDEDED" width="15.2" height="4.3"/>
			<rect x="569.4" y="284" fill="#EDEDED" width="15.2" height="4.3"/>
			<rect x="250.1" y="293" fill="#EDEDED" width="15.2" height="5"/>
			<rect x="269.8" y="293" fill="#EDEDED" width="15.2" height="5"/>
			<rect x="288.8" y="293" fill="#EDEDED" width="15.2" height="5"/>
			<rect x="308.6" y="293" fill="#EDEDED" width="15.2" height="5"/>
			<rect x="328.3" y="293" fill="#EDEDED" width="15.2" height="5"/>
			<rect x="348" y="293" fill="#EDEDED" width="15.2" height="5"/>
			<rect x="367.7" y="293" fill="#EDEDED" width="15.2" height="5"/>
			<rect x="387.5" y="293" fill="#EDEDED" width="15.2" height="5"/>
			<rect x="407.2" y="293" fill="#EDEDED" width="15.2" height="5"/>
			<rect x="426.9" y="293" fill="#EDEDED" width="15.2" height="5"/>
			<rect x="447.4" y="293" fill="#EDEDED" width="15.2" height="5"/>
			<rect x="467.1" y="293" fill="#EDEDED" width="15.2" height="5"/>
			<rect x="486.1" y="293" fill="#EDEDED" width="15.2" height="5"/>
			<rect x="505.8" y="293" fill="#EDEDED" width="15.2" height="5"/>
			<rect x="525.5" y="293" fill="#EDEDED" width="15.2" height="5"/>
			<rect x="545.3" y="293" fill="#EDEDED" width="15.2" height="5"/>
			<rect x="565" y="293" fill="#EDEDED" width="15.2" height="5"/>
			<rect x="375.8" y="307.3" width="102.8" height="1.5"/>
			<rect x="198.4" y="320.2" fill="#545454" width="449.9" height="2.3"/>
			<rect x="198.4" y="322.5" fill="#FFFFFF" width="449.9" height="2.3"/>
			<rect x="247.4" y="280.6" width="341.4" height="1.2"/>
			<rect x="484.6" y="333.4" fill="#FFFFFF" width="148.7" height="2.5"/>
			<polygon points="239.3,302.5 238.1,302.1 246.9,281 248,281.5 			"/>
			<rect x="582.4" y="290.7" transform="matrix(-0.5309 -0.8474 0.8474 -0.5309 663.6115 949.956)" width="24.7" height="1.2"/>
			<path fill="#999999" d="M250.5,268.2v1.8c0,1,0.9,2,2,2h73c1,0,2-0.8,2-2v-1.8c0-1-0.9-2-2-2h-73
				C251.4,266.3,250.5,267.2,250.5,268.2z"/>
			<path fill="#A6A6A6" d="M252.3,271.3L252.3,271.3c0.6,0.1,1.3,0.1,2.1,0.1h71.1c0.9,0,1.8-0.7,1.8-1.7c0-0.5,0.1-1,0.1-1.5
				c0-0.9-0.6-1.7-1.5-1.7l0,0c-0.6-0.1-1.3-0.1-2.1-0.1h-71.1c-0.9,0-1.8,0.7-1.9,1.7c0,0.5-0.1,1-0.1,1.5
				C250.7,270.6,251.3,271.3,252.3,271.3z"/>
			<path fill="#B3B3B3" d="M252.1,270.8L252.1,270.8c0.5,0.2,1.2,0.3,2.1,0.3h71.3c0.8,0,1.5-0.6,1.7-1.3c0.1-0.4,0.1-0.8,0.2-1.2
				c0.1-0.7-0.5-1.4-1.2-1.4l0,0c-0.5-0.2-1.2-0.3-2.1-0.3h-71.3c-0.8,0-1.5,0.6-1.7,1.3c-0.1,0.4-0.1,0.8-0.2,1.2
				C250.8,270.1,251.3,270.7,252.1,270.8z"/>
			<path fill="#BFBFBF" d="M251.8,270.2L251.8,270.2c0.3,0.2,1.1,0.4,2,0.4h71.5c0.7,0,1.3-0.4,1.5-1c0.1-0.3,0.2-0.6,0.2-1
				c0.1-0.6-0.3-1.1-0.8-1.2l0,0c-0.3-0.2-1.1-0.5-2.1-0.5h-71.4c-0.7,0-1.3,0.5-1.5,1c-0.1,0.3-0.2,0.6-0.2,1
				C250.9,269.5,251.3,270.1,251.8,270.2z"/>
			<path fill="#CCCCCC" d="M251.6,269.6L251.6,269.6c0.2,0.3,1,0.6,2,0.6h71.6c0.6,0,1.1-0.3,1.3-0.7c0.1-0.2,0.2-0.5,0.3-0.7
				c0.1-0.4-0.1-0.8-0.4-1l0,0c-0.2-0.3-1-0.6-2-0.6h-71.6c-0.6,0-1.1,0.3-1.3,0.7c-0.1,0.2-0.2,0.5-0.3,0.7
				C251,269.1,251.2,269.4,251.6,269.6z"/>
			<path fill="#D9D9D9" d="M251.4,269L251.4,269c0.1,0.4,0.9,0.8,2,0.8h71.7c0.5,0,0.9-0.2,1.2-0.4c0.2-0.1,0.3-0.3,0.4-0.5
				c0.2-0.3,0.1-0.6,0-0.7l0,0c-0.1-0.4-0.9-0.8-2-0.8H253c-0.5,0-0.9,0.2-1.2,0.4c-0.2,0.1-0.3,0.3-0.4,0.5
				C251.1,268.6,251.2,268.9,251.4,269z"/>
			<path fill="#E5E5E5" d="M251.1,268.5L251.1,268.5c0,0.5,0.8,0.9,2,0.9H325c1,0,2-0.4,2-0.9l0,0c0-0.5-0.8-0.9-2-0.9h-71.9
				C252.1,267.6,251.1,268,251.1,268.5z"/>
			<path fill="#999999" d="M507.6,268.2v1.8c0,1,0.9,2,2,2h73c1,0,2-0.8,2-2v-1.8c0-1-0.9-2-2-2h-73
				C508.4,266.3,507.6,267.2,507.6,268.2z"/>
			<path fill="#A6A6A6" d="M509.3,271.3L509.3,271.3c0.6,0.1,1.3,0.1,2.1,0.1h71.2c0.9,0,1.8-0.7,1.8-1.7c0-0.5,0.1-1,0.1-1.5
				c0-0.9-0.7-1.7-1.5-1.7l0,0c-0.6-0.1-1.3-0.1-2.1-0.1h-71.2c-0.9,0-1.8,0.7-1.8,1.7c0,0.5-0.1,1-0.1,1.5
				C507.7,270.6,508.4,271.3,509.3,271.3z"/>
			<path fill="#B3B3B3" d="M509,270.8L509,270.8c0.5,0.2,1.2,0.3,2.1,0.3h71.3c0.8,0,1.5-0.6,1.7-1.3c0.1-0.4,0.1-0.8,0.2-1.2
				c0.1-0.7-0.5-1.4-1.1-1.4l0,0c-0.5-0.2-1.2-0.3-2.1-0.3h-71.3c-0.8,0-1.5,0.6-1.7,1.3c-0.1,0.4-0.1,0.8-0.2,1.2
				C507.8,270.1,508.4,270.7,509,270.8z"/>
			<path fill="#BFBFBF" d="M508.8,270.2L508.8,270.2c0.3,0.2,1.1,0.4,2,0.4h71.4c0.7,0,1.3-0.4,1.5-1c0.1-0.3,0.2-0.6,0.2-1
				c0.1-0.6-0.3-1.1-0.8-1.2l0,0c-0.3-0.2-1.1-0.5-2.1-0.5h-71.4c-0.7,0-1.3,0.5-1.5,1c-0.1,0.3-0.2,0.6-0.2,1
				C507.9,269.5,508.3,270.1,508.8,270.2z"/>
			<path fill="#CCCCCC" d="M508.6,269.6L508.6,269.6c0.2,0.3,1,0.6,2,0.6h71.6c0.6,0,1.1-0.3,1.3-0.7c0.1-0.2,0.2-0.5,0.3-0.7
				c0.1-0.4-0.1-0.8-0.4-1l0,0c-0.2-0.3-1-0.6-2-0.6h-71.6c-0.6,0-1.1,0.3-1.3,0.7c-0.1,0.2-0.2,0.5-0.3,0.7
				C508.1,269.1,508.3,269.4,508.6,269.6z"/>
			<path fill="#D9D9D9" d="M508.4,269L508.4,269c0.1,0.4,0.9,0.8,2,0.8H582c0.5,0,0.9-0.2,1.2-0.4c0.2-0.1,0.3-0.3,0.4-0.5
				c0.2-0.3,0.1-0.6,0-0.7l0,0c-0.1-0.4-0.9-0.8-2-0.8H510c-0.5,0-0.9,0.2-1.2,0.4c-0.2,0.1-0.3,0.3-0.4,0.5
				C508.2,268.6,508.2,268.9,508.4,269z"/>
			<path fill="#E5E5E5" d="M508.2,268.5L508.2,268.5c0,0.5,0.8,0.9,2,0.9H582c1,0,2-0.4,2-0.9l0,0c0-0.5-0.8-0.9-2-0.9h-71.9
				C509,267.6,508.2,268,508.2,268.5z"/>
			
				<linearGradient id="SVGID_5_" gradientUnits="userSpaceOnUse" x1="102.4" y1="95.21" x2="102.4" y2="92.804" gradientTransform="matrix(1.0315 0 0 -1.0315 183.351 371.3467)">
				<stop  offset="0" style="stop-color:#999999"/>
				<stop  offset="1" style="stop-color:#595959"/>
			</linearGradient>
			<rect x="249.9" y="273.1" fill="url(#SVGID_5_)" width="78.2" height="3.1"/>
			
				<linearGradient id="SVGID_6_" gradientUnits="userSpaceOnUse" x1="351.6" y1="95.21" x2="351.6" y2="92.804" gradientTransform="matrix(1.0315 0 0 -1.0315 183.351 371.3467)">
				<stop  offset="0" style="stop-color:#999999"/>
				<stop  offset="1" style="stop-color:#595959"/>
			</linearGradient>
			<rect x="506.9" y="273.1" fill="url(#SVGID_6_)" width="78.2" height="3.1"/>
			
				<radialGradient id="SVGID_7_" cx="146.2516" cy="284.3501" r="339.028" gradientTransform="matrix(1.0315 0 0 -1.0315 183.351 371.3467)" gradientUnits="userSpaceOnUse">
				<stop  offset="0" style="stop-color:#BDC7ED"/>
				<stop  offset="1" style="stop-color:#3B4F82"/>
			</radialGradient>
			<polygon fill="url(#SVGID_7_)" points="242.4,254.2 242.4,8.9 401.1,8.9 335.7,254.2 			"/>
		</g>
	</g>
</g>
</svg>
