<?xml version="1.0" encoding="utf-8"?>
<!-- Generator: Adobe Illustrator 18.1.1, SVG Export Plug-In . SVG Version: 6.00 Build 0)  -->
<!DOCTYPE svg PUBLIC "-//W3C//DTD SVG 1.1//EN" "http://www.w3.org/Graphics/SVG/1.1/DTD/svg11.dtd">
<svg version="1.1" xmlns="http://www.w3.org/2000/svg" xmlns:xlink="http://www.w3.org/1999/xlink" x="0px" y="0px"
	 viewBox="0 0 607.2 474.1" enable-background="new 0 0 607.2 474.1" xml:space="preserve">
<g id="MouseOff">
	<linearGradient id="SVGID_1_" gradientUnits="userSpaceOnUse" x1="434.6894" y1="108.0728" x2="499.4054" y2="47.5318">
		<stop  offset="0" style="stop-color:#A6A6A6"/>
		<stop  offset="1" style="stop-color:#F2F2F2"/>
	</linearGradient>
	<polygon fill-rule="evenodd" clip-rule="evenodd" fill="url(#SVGID_1_)" points="8.5,32.6 8.5,438.7 588.1,438.7 589.4,346.2 
		598.3,32.6 	"/>
	<linearGradient id="SVGID_2_" gradientUnits="userSpaceOnUse" x1="549.7686" y1="60.0924" x2="509.5815" y2="104.1554">
		<stop  offset="0" style="stop-color:#D9D9D9"/>
		<stop  offset="1" style="stop-color:#969494"/>
	</linearGradient>
	<path fill-rule="evenodd" clip-rule="evenodd" fill="url(#SVGID_2_)" d="M551.3,142.7L551.3,142.7c0-1.2,0.9-2.2,2.1-2.2h16.1
		c1.2,0,2.1,1,2.1,2.1v0.1c0,1.2-1,2.1-2.1,2.1h-16.1C552.3,144.8,551.3,143.8,551.3,142.7z M527.9,142.3L527.9,142.3
		c0-1.2,1-2.2,2.1-2.2h16.1c1.2,0,2.1,1,2.1,2.1v0.1c0,1.2-1,2.1-2.1,2.1H530C528.8,144.4,527.9,143.5,527.9,142.3z M452.2,142.1
		L452.2,142.1c0-1.2,0.9-2.2,2.1-2.2h23.4c1.2,0,2.1,1,2.1,2.1v0.1c0,1.2-1,2.1-2.1,2.1h-23.4C453.1,144.3,452.2,143.3,452.2,142.1z
		 M504.4,142.1L504.4,142.1c0-1.2,1-2.2,2.1-2.2h17.2c1.2,0,2.1,1,2.1,2.1v0.1c0,1.2-1,2.1-2.1,2.1h-17.2
		C505.3,144.3,504.4,143.3,504.4,142.1z M482.4,142L482.4,142c0-1.2,1-2.2,2.1-2.2h16.1c1.2,0,2.1,1,2.1,2.1v0.1
		c0,1.2-1,2.1-2.1,2.1h-16.1C483.4,144.1,482.4,143.2,482.4,142z M536.7,132.7L536.7,132.7c0-1.2,1-2.2,2.1-2.2h25.5
		c1.2,0,2.1,0.9,2.1,2.1v0.1c0,1.2-1,2.1-2.1,2.1h-25.5C537.7,134.9,536.7,133.9,536.7,132.7z M513.4,132.6L513.4,132.6
		c0-1.2,1-2.2,2.1-2.2h17.1c1.2,0,2.1,1,2.1,2.1v0.1c0,1.2-0.9,2.1-2.1,2.1h-17.1C514.3,134.8,513.4,133.8,513.4,132.6z
		 M480.4,132.5L480.4,132.5c0-1.2,1-2.2,2.1-2.2h24.5c1.2,0,2.1,1,2.1,2.1v0.1c0,1.2-1,2.1-2.1,2.1h-24.5
		C481.3,134.6,480.4,133.7,480.4,132.5z M452.2,132.4L452.2,132.4c0-1.2,0.9-2.2,2.1-2.2h20.8c1.2,0,2.1,0.9,2.1,2.1v0.1
		c0,1.2-1,2.1-2.1,2.1h-20.8C453.1,134.5,452.2,133.5,452.2,132.4z M537.2,116.9L537.2,116.9c0-1.2,1-2.2,2.1-2.2h25.5
		c1.2,0,2.1,1,2.1,2.1v0.1c0,1.2-1,2.1-2.1,2.1h-25.5C538.2,119.1,537.2,118.1,537.2,116.9z M513.9,116.9L513.9,116.9
		c0-1.2,1-2.2,2.1-2.2h17.1c1.2,0,2.1,1,2.1,2.1v0.1c0,1.2-1,2.1-2.1,2.1H516C514.8,119,513.9,118,513.9,116.9z M480.9,116.7
		L480.9,116.7c0-1.2,1-2.2,2.1-2.2h24.4c1.2,0,2.1,1,2.1,2.1v0.1c0,1.2-1,2.1-2.1,2.1H483C481.8,118.8,480.9,117.9,480.9,116.7z
		 M451.6,116.6L451.6,116.6c0-1.2,1-2.2,2.1-2.2h21.8c1.2,0,2.1,1,2.1,2.1v0.1c0,1.2-0.9,2.1-2.1,2.1h-21.8
		C452.6,118.7,451.6,117.7,451.6,116.6z M527.9,106.5L527.9,106.5c0-1.2,1-2.2,2.1-2.2h17.1c1.2,0,2.1,0.9,2.1,2.1v0.1
		c0,1.2-0.9,2.1-2.1,2.1H530C528.8,108.6,527.9,107.7,527.9,106.5z M451.6,106.3L451.6,106.3c0-1.2,1-2.2,2.1-2.2h24.5
		c1.2,0,2.1,1,2.1,2.1v0.1c0,1.2-1,2.1-2.1,2.1h-24.5C452.6,108.5,451.6,107.5,451.6,106.3z M504.9,106.3L504.9,106.3
		c0-1.2,1-2.2,2.1-2.2h17.1c1.2,0,2.1,1,2.1,2.1v0.1c0,1.2-1,2.1-2.1,2.1H507C505.8,108.5,504.9,107.5,504.9,106.3z M483,106.2
		L483,106.2c0-1.2,1-2.2,2.1-2.2h16.1c1.2,0,2.1,0.9,2.1,2.1v0.1c0,1.2-1,2.1-2.1,2.1h-16.1C483.9,108.3,483,107.4,483,106.2z
		 M528.9,92.4L528.9,92.4c0-1.2,1-2.2,2.1-2.2h17.2c1.2,0,2.1,1,2.1,2.1v0.1c0,1.2-0.9,2.1-2.1,2.1H531
		C529.9,94.5,528.9,93.6,528.9,92.4z M505.9,92.2L505.9,92.2c0-1.2,0.9-2.2,2.1-2.2h17.1c1.2,0,2.1,1,2.1,2.1v0.1
		c0,1.2-1,2.1-2.1,2.1h-17.1C506.9,94.4,505.9,93.4,505.9,92.2z M451.6,92.1L451.6,92.1c0-1.2,1-2.2,2.1-2.2h39.1
		c1.2,0,2.1,0.9,2.1,2.1v0.1c0,1.2-1,2.1-2.1,2.1h-39.1C452.6,94.2,451.6,93.3,451.6,92.1z M550.3,83.5L550.3,83.5
		c0-1.2,1-2.2,2.1-2.2H568c1.2,0,2.1,1,2.1,2.1v0.1c0,1.2-1,2.1-2.1,2.1h-15.6C551.2,85.7,550.3,84.7,550.3,83.5z M526.8,83.2
		L526.8,83.2c0-1.2,1-2.2,2.1-2.2h17.1c1.2,0,2.1,1,2.1,2.1v0.1c0,1.2-1,2.1-2.1,2.1h-17.1C527.8,85.3,526.8,84.3,526.8,83.2z
		 M451.6,83L451.6,83c0-1.2,1-2.2,2.1-2.2h23.4c1.2,0,2.1,1,2.1,2.1V83c0,1.2-1,2.1-2.1,2.1h-23.4C452.6,85.1,451.6,84.2,451.6,83z
		 M503.8,83L503.8,83c0-1.2,1-2.2,2.1-2.2h17.1c1.2,0,2.1,1,2.1,2.1V83c0,1.2-1,2.1-2.1,2.1H506C504.8,85.1,503.8,84.2,503.8,83z
		 M481.9,82.9L481.9,82.9c0-1.2,1-2.2,2.1-2.2h16.1c1.2,0,2.1,1,2.1,2.1v0.1c0,1.2-1,2.1-2.1,2.1h-16.1
		C482.9,85,481.9,84.1,481.9,82.9z M549.2,70.6L549.2,70.6c0-1.2,1-2.2,2.1-2.2h18.2c1.2,0,2.1,1,2.1,2.1v0.1c0,1.2-1,2.1-2.1,2.1
		h-18.2C550.2,72.8,549.2,71.8,549.2,70.6z M528.4,70.5L528.4,70.5c0-1.2,1-2.2,2.1-2.2h10.9c1.2,0,2.1,1,2.1,2.1v0.1
		c0,1.2-1,2.1-2.1,2.1h-10.9C529.3,72.6,528.4,71.7,528.4,70.5z M452.2,70.3L452.2,70.3c0-1.2,0.9-2.2,2.1-2.2h24.4
		c1.2,0,2.1,1,2.1,2.1v0.1c0,1.2-0.9,2.1-2.1,2.1h-24.4C453.1,72.5,452.2,71.5,452.2,70.3z M505.4,70.3L505.4,70.3
		c0-1.2,1-2.2,2.1-2.2h17.1c1.2,0,2.1,1,2.1,2.1v0.1c0,1.2-1,2.1-2.1,2.1h-17.1C506.4,72.5,505.4,71.5,505.4,70.3z M483.5,70.2
		L483.5,70.2c0-1.2,1-2.2,2.1-2.2h16.1c1.2,0,2.1,1,2.1,2.1v0.1c0,1.2-1,2.1-2.1,2.1h-16.1C484.4,72.3,483.5,71.4,483.5,70.2z
		 M537.8,60.9L537.8,60.9c0-1.2,1-2.2,2.1-2.2H557c1.2,0,2.1,0.9,2.1,2.1v0.1c0,1.2-1,2.1-2.1,2.1h-17.1
		C538.7,63.1,537.8,62.1,537.8,60.9z M514.4,60.9L514.4,60.9c0-1.2,1-2.2,2.1-2.2h17.1c1.2,0,2.1,1,2.1,2.1v0.1c0,1.2-1,2.1-2.1,2.1
		h-17.1C515.4,63,514.4,62,514.4,60.9z M481.4,60.7L481.4,60.7c0-1.2,1-2.2,2.1-2.2H508c1.2,0,2.1,1,2.1,2.1v0.1
		c0,1.2-1,2.1-2.1,2.1h-24.5C482.4,62.8,481.4,61.9,481.4,60.7z M452.2,60.6L452.2,60.6c0-1.2,0.9-2.2,2.1-2.2h21.8
		c1.2,0,2.1,0.9,2.1,2.1v0.1c0,1.2-1,2.1-2.1,2.1h-21.8C453.1,62.7,452.2,61.7,452.2,60.6z"/>
	<linearGradient id="SVGID_3_" gradientUnits="userSpaceOnUse" x1="464.5255" y1="70.8434" x2="147.1994" y2="354.765">
		<stop  offset="0" style="stop-color:#EBEBEB"/>
		<stop  offset="0.16" style="stop-color:#F2F2F2"/>
		<stop  offset="1" style="stop-color:#F2F2F2"/>
	</linearGradient>
	<path fill-rule="evenodd" clip-rule="evenodd" fill="url(#SVGID_3_)" d="M1.1-0.6v167.3L7.5,209l-6.4,82.3v90.5l5.3,13.5l-5.3,21.3
		v29.6h587.2l-9.9-89l9.9-115.6c-9.6-77.8-33.5-88.6-48-104.6c-36.8-40.5-68.3-58.2-101-95.2c-29.2-33-69.6-42.8-91.8-42.5H1.1z"/>
	<polygon fill-rule="evenodd" clip-rule="evenodd" fill="#F2F2F2" points="1.2,291.4 9.1,210 120.2,207.9 	"/>
	<linearGradient id="SVGID_4_" gradientUnits="userSpaceOnUse" x1="58.8115" y1="248.1499" x2="33.2376" y2="213.1819">
		<stop  offset="0" style="stop-color:#F2F2F2"/>
		<stop  offset="1" style="stop-color:#EBEBEB"/>
	</linearGradient>
	<polygon fill-rule="evenodd" clip-rule="evenodd" fill="url(#SVGID_4_)" points="118.9,208.4 9.3,211.4 1.2,291.4 	"/>
	<linearGradient id="SVGID_5_" gradientUnits="userSpaceOnUse" x1="58.1611" y1="248.3716" x2="32.5872" y2="213.4036">
		<stop  offset="0" style="stop-color:#F2F2F2"/>
		<stop  offset="1" style="stop-color:#E6E6E6"/>
	</linearGradient>
	<polygon fill-rule="evenodd" clip-rule="evenodd" fill="url(#SVGID_5_)" points="117.6,208.8 9.6,212.8 1.2,291.4 	"/>
	<linearGradient id="SVGID_6_" gradientUnits="userSpaceOnUse" x1="57.5069" y1="248.5854" x2="31.933" y2="213.6174">
		<stop  offset="0" style="stop-color:#F2F2F2"/>
		<stop  offset="1" style="stop-color:#DEDEDE"/>
	</linearGradient>
	<polygon fill-rule="evenodd" clip-rule="evenodd" fill="url(#SVGID_6_)" points="116.3,209.2 9.9,214.2 1.2,291.4 	"/>
	<linearGradient id="SVGID_7_" gradientUnits="userSpaceOnUse" x1="56.8551" y1="248.8051" x2="31.2811" y2="213.8371">
		<stop  offset="0" style="stop-color:#F2F2F2"/>
		<stop  offset="1" style="stop-color:#D6D6D6"/>
	</linearGradient>
	<polygon fill-rule="evenodd" clip-rule="evenodd" fill="url(#SVGID_7_)" points="115,209.7 10.1,215.6 1.2,291.4 	"/>
	<linearGradient id="SVGID_8_" gradientUnits="userSpaceOnUse" x1="56.2019" y1="249.0208" x2="30.628" y2="214.0528">
		<stop  offset="0" style="stop-color:#F2F2F2"/>
		<stop  offset="1" style="stop-color:#CFCFCF"/>
	</linearGradient>
	<polygon fill-rule="evenodd" clip-rule="evenodd" fill="url(#SVGID_8_)" points="113.7,210.1 10.4,217 1.2,291.4 	"/>
	<linearGradient id="SVGID_9_" gradientUnits="userSpaceOnUse" x1="55.5516" y1="249.2424" x2="29.9776" y2="214.2745">
		<stop  offset="0" style="stop-color:#F2F2F2"/>
		<stop  offset="1" style="stop-color:#C7C7C7"/>
	</linearGradient>
	<polygon fill-rule="evenodd" clip-rule="evenodd" fill="url(#SVGID_9_)" points="1.2,291.4 10.6,218.4 112.4,210.5 	"/>
	<path fill-rule="evenodd" clip-rule="evenodd" fill="#F2F2F2" d="M1.3,445.6l585.6,0.3C557.5,416,3.5,414.8,1.3,445.6z"/>
	<path fill-rule="evenodd" clip-rule="evenodd" fill="#E8E8E8" d="M1.3,445.6l585.6,0.3C557.8,419.7,3.7,418.3,1.3,445.6z"/>
	<path fill-rule="evenodd" clip-rule="evenodd" fill="#DBDBDB" d="M1.3,445.6l585.6,0.3C558,423.4,4,421.8,1.3,445.6z"/>
	<path fill-rule="evenodd" clip-rule="evenodd" fill="#D1D1D1" d="M1.3,445.6l585.6,0.3C558.3,427.1,4.2,425.3,1.3,445.6z"/>
	<path fill-rule="evenodd" clip-rule="evenodd" fill="#C7C7C7" d="M1.3,445.6l585.6,0.3C558.5,430.8,4.4,428.8,1.3,445.6z"/>
	<path fill-rule="evenodd" clip-rule="evenodd" fill="#BABABA" d="M1.3,445.6l585.6,0.3C558.8,434.6,4.7,432.3,1.3,445.6z"/>
	<path fill-rule="evenodd" clip-rule="evenodd" fill="#B0B0B0" d="M1.3,445.6l585.6,0.3C559,438.3,4.9,435.9,1.3,445.6z"/>
	<polygon fill-rule="evenodd" clip-rule="evenodd" fill="#F2F2F2" points="586.3,439.1 578.5,357.7 467.3,355.6 	"/>
	<linearGradient id="SVGID_10_" gradientUnits="userSpaceOnUse" x1="526.5839" y1="399.0402" x2="551.1129" y2="358.8532">
		<stop  offset="0" style="stop-color:#F2F2F2"/>
		<stop  offset="1" style="stop-color:#EBEBEB"/>
	</linearGradient>
	<polygon fill-rule="evenodd" clip-rule="evenodd" fill="url(#SVGID_10_)" points="468.6,356.1 586.3,439.1 578.3,359.2 	"/>
	<linearGradient id="SVGID_11_" gradientUnits="userSpaceOnUse" x1="527.2431" y1="399.2492" x2="551.7721" y2="359.0622">
		<stop  offset="0" style="stop-color:#F2F2F2"/>
		<stop  offset="1" style="stop-color:#E0E0E0"/>
	</linearGradient>
	<polygon fill-rule="evenodd" clip-rule="evenodd" fill="url(#SVGID_11_)" points="469.9,356.5 586.3,439.1 578.1,360.7 	"/>
	<linearGradient id="SVGID_12_" gradientUnits="userSpaceOnUse" x1="527.8928" y1="399.4691" x2="552.4218" y2="359.2821">
		<stop  offset="0" style="stop-color:#F2F2F2"/>
		<stop  offset="1" style="stop-color:#D9D9D9"/>
	</linearGradient>
	<polygon fill-rule="evenodd" clip-rule="evenodd" fill="url(#SVGID_12_)" points="471.2,356.9 586.3,439.1 577.9,362.2 	"/>
	<linearGradient id="SVGID_13_" gradientUnits="userSpaceOnUse" x1="528.5441" y1="399.6897" x2="553.0731" y2="359.5027">
		<stop  offset="0" style="stop-color:#F2F2F2"/>
		<stop  offset="1" style="stop-color:#CFCFCF"/>
	</linearGradient>
	<polygon fill-rule="evenodd" clip-rule="evenodd" fill="url(#SVGID_13_)" points="472.5,357.4 586.3,439.1 577.8,363.6 	"/>
	<linearGradient id="SVGID_14_" gradientUnits="userSpaceOnUse" x1="529.1943" y1="399.9094" x2="553.7233" y2="359.7224">
		<stop  offset="0" style="stop-color:#F2F2F2"/>
		<stop  offset="1" style="stop-color:#C7C7C7"/>
	</linearGradient>
	<polygon fill-rule="evenodd" clip-rule="evenodd" fill="url(#SVGID_14_)" points="473.8,357.8 586.3,439.1 577.6,365.1 	"/>
	<linearGradient id="SVGID_15_" gradientUnits="userSpaceOnUse" x1="529.8528" y1="400.1189" x2="554.3818" y2="359.9319">
		<stop  offset="0" style="stop-color:#F2F2F2"/>
		<stop  offset="1" style="stop-color:#BDBDBD"/>
	</linearGradient>
	<polygon fill-rule="evenodd" clip-rule="evenodd" fill="url(#SVGID_15_)" points="586.3,439.1 577.4,366.6 475.1,358.2 	"/>
	<polygon fill-rule="evenodd" clip-rule="evenodd" fill="#F2F2F2" points="128.6,396.3 495,396.3 308.6,421.4 	"/>
	<linearGradient id="SVGID_16_" gradientUnits="userSpaceOnUse" x1="311.78" y1="424.8696" x2="311.78" y2="400.8626">
		<stop  offset="0" style="stop-color:#F0F0F0"/>
		<stop  offset="1" style="stop-color:#F2F2F2"/>
	</linearGradient>
	<polygon fill-rule="evenodd" clip-rule="evenodd" fill="url(#SVGID_16_)" points="128.6,396.3 308.7,420 495,396.3 	"/>
	<linearGradient id="SVGID_17_" gradientUnits="userSpaceOnUse" x1="311.78" y1="424.1802" x2="311.78" y2="400.1732">
		<stop  offset="0" style="stop-color:#F0F0F0"/>
		<stop  offset="1" style="stop-color:#F2F2F2"/>
	</linearGradient>
	<polygon fill-rule="evenodd" clip-rule="evenodd" fill="url(#SVGID_17_)" points="128.6,396.3 308.8,418.6 495,396.3 	"/>
	<linearGradient id="SVGID_18_" gradientUnits="userSpaceOnUse" x1="311.78" y1="423.48" x2="311.78" y2="399.473">
		<stop  offset="0" style="stop-color:#EDEDED"/>
		<stop  offset="1" style="stop-color:#F2F2F2"/>
	</linearGradient>
	<polygon fill-rule="evenodd" clip-rule="evenodd" fill="url(#SVGID_18_)" points="128.6,396.3 308.9,417.2 495,396.3 	"/>
	<linearGradient id="SVGID_19_" gradientUnits="userSpaceOnUse" x1="311.78" y1="422.7798" x2="311.78" y2="398.7728">
		<stop  offset="0" style="stop-color:#EBEBEB"/>
		<stop  offset="1" style="stop-color:#F2F2F2"/>
	</linearGradient>
	<polygon fill-rule="evenodd" clip-rule="evenodd" fill="url(#SVGID_19_)" points="128.6,396.3 309.1,415.8 495,396.3 	"/>
	<linearGradient id="SVGID_20_" gradientUnits="userSpaceOnUse" x1="311.78" y1="422.0903" x2="311.78" y2="398.0833">
		<stop  offset="0" style="stop-color:#EBE8E8"/>
		<stop  offset="1" style="stop-color:#F2F2F2"/>
	</linearGradient>
	<polygon fill-rule="evenodd" clip-rule="evenodd" fill="url(#SVGID_20_)" points="128.6,396.3 309.2,414.4 495,396.3 	"/>
	<linearGradient id="SVGID_21_" gradientUnits="userSpaceOnUse" x1="311.78" y1="421.3901" x2="311.78" y2="397.3831">
		<stop  offset="0" style="stop-color:#E8E6E6"/>
		<stop  offset="1" style="stop-color:#F2F2F2"/>
	</linearGradient>
	<polygon fill-rule="evenodd" clip-rule="evenodd" fill="url(#SVGID_21_)" points="128.6,396.3 495,396.3 309.3,413 	"/>
	<polygon fill-rule="evenodd" clip-rule="evenodd" fill="#F2F2F2" points="1.8,417.7 6.5,395.8 177.6,393.7 	"/>
	<linearGradient id="SVGID_22_" gradientUnits="userSpaceOnUse" x1="73.6551" y1="401.1317" x2="36.3221" y2="389.5788">
		<stop  offset="0" style="stop-color:#F2F2F2"/>
		<stop  offset="1" style="stop-color:#F0F0F0"/>
	</linearGradient>
	<polygon fill-rule="evenodd" clip-rule="evenodd" fill="url(#SVGID_22_)" points="175.7,393.9 7,396.1 1.8,417.7 	"/>
	<linearGradient id="SVGID_23_" gradientUnits="userSpaceOnUse" x1="72.6895" y1="401.1916" x2="35.3565" y2="389.6387">
		<stop  offset="0" style="stop-color:#F2F2F2"/>
		<stop  offset="1" style="stop-color:#EBEBEB"/>
	</linearGradient>
	<polygon fill-rule="evenodd" clip-rule="evenodd" fill="url(#SVGID_23_)" points="173.8,394 7.5,396.3 1.8,417.7 	"/>
	<linearGradient id="SVGID_24_" gradientUnits="userSpaceOnUse" x1="71.7178" y1="401.256" x2="34.3848" y2="389.7031">
		<stop  offset="0" style="stop-color:#F2F2F2"/>
		<stop  offset="1" style="stop-color:#E8E8E8"/>
	</linearGradient>
	<polygon fill-rule="evenodd" clip-rule="evenodd" fill="url(#SVGID_24_)" points="171.8,394.1 8,396.6 1.8,417.7 	"/>
	<linearGradient id="SVGID_25_" gradientUnits="userSpaceOnUse" x1="70.7568" y1="401.3188" x2="33.4238" y2="389.7659">
		<stop  offset="0" style="stop-color:#F2F2F2"/>
		<stop  offset="1" style="stop-color:#E3E3E3"/>
	</linearGradient>
	<polygon fill-rule="evenodd" clip-rule="evenodd" fill="url(#SVGID_25_)" points="169.9,394.2 8.5,396.9 1.8,417.7 	"/>
	<linearGradient id="SVGID_26_" gradientUnits="userSpaceOnUse" x1="69.7851" y1="401.3833" x2="32.4521" y2="389.8304">
		<stop  offset="0" style="stop-color:#F2F2F2"/>
		<stop  offset="1" style="stop-color:#E0E0E0"/>
	</linearGradient>
	<polygon fill-rule="evenodd" clip-rule="evenodd" fill="url(#SVGID_26_)" points="168,394.4 9.1,397.1 1.8,417.7 	"/>
	<linearGradient id="SVGID_27_" gradientUnits="userSpaceOnUse" x1="68.8179" y1="401.4427" x2="31.4849" y2="389.8897">
		<stop  offset="0" style="stop-color:#F2F2F2"/>
		<stop  offset="1" style="stop-color:#DBDBDB"/>
	</linearGradient>
	<polygon fill-rule="evenodd" clip-rule="evenodd" fill="url(#SVGID_27_)" points="1.8,417.7 9.6,397.4 166,394.5 	"/>
	<linearGradient id="SVGID_28_" gradientUnits="userSpaceOnUse" x1="491.953" y1="156.6913" x2="515.961" y2="131.1183">
		<stop  offset="0" style="stop-color:#EDEDED"/>
		<stop  offset="1" style="stop-color:#999999"/>
	</linearGradient>
	<path fill-rule="evenodd" clip-rule="evenodd" fill="url(#SVGID_28_)" d="M428.7,37.3c21.7,48.2,34.3,94.4,2.1,130.5
		c65.4,7.6,126.3,26.4,157.1,73.6C588.2,155.5,504.4,95.6,428.7,37.3z"/>
	<linearGradient id="SVGID_29_" gradientUnits="userSpaceOnUse" x1="291.9448" y1="445.0405" x2="291.9448" y2="19.6855">
		<stop  offset="0" style="stop-color:#7D7D7D"/>
		<stop  offset="0.3" style="stop-color:#D1D1D1"/>
		<stop  offset="1" style="stop-color:#8C8C8C"/>
	</linearGradient>
	<path fill-rule="evenodd" clip-rule="evenodd" fill="url(#SVGID_29_)" d="M260.6,442.9L260.6,442.9c0-1.2,0.9-2.2,2.1-2.2h18.2
		c1.2,0,2.1,1,2.1,2.1v0.1c0,1.2-1,2.1-2.1,2.1h-18.2C261.6,445,260.6,444.1,260.6,442.9z M239.8,442.8L239.8,442.8
		c0-1.2,1-2.2,2.1-2.2h10.9c1.2,0,2.1,1,2.1,2.1v0.1c0,1.2-1,2.1-2.1,2.1h-10.9C240.7,444.9,239.8,443.9,239.8,442.8z M163.6,442.6
		L163.6,442.6c0-1.2,0.9-2.2,2.1-2.2h24.5c1.2,0,2.1,0.9,2.1,2.1v0.1c0,1.2-0.9,2.1-2.1,2.1h-24.5
		C164.5,444.7,163.6,443.8,163.6,442.6z M216.8,442.6L216.8,442.6c0-1.2,1-2.2,2.1-2.2h17.1c1.2,0,2.1,0.9,2.1,2.1v0.1
		c0,1.2-1,2.1-2.1,2.1h-17.1C217.8,444.7,216.8,443.8,216.8,442.6z M194.9,442.5L194.9,442.5c0-1.2,1-2.2,2.1-2.2h16.1
		c1.2,0,2.1,1,2.1,2.1v0.1c0,1.2-1,2.1-2.1,2.1H197C195.8,444.6,194.9,443.6,194.9,442.5z M27.9,442.2L27.9,442.2
		c0-1.2,1-2.2,2.1-2.2h18.2c1.2,0,2.1,1,2.1,2.1v0.1c0,1.2-0.9,2.1-2.1,2.1H30C28.8,444.4,27.9,443.4,27.9,442.2z M56,442.1
		L56,442.1c0-1.2,1-2.2,2.1-2.2h10.9c1.2,0,2.1,1,2.1,2.1v0.1c0,1.2-1,2.1-2.1,2.1H58.2C57,444.2,56,443.3,56,442.1z M72.8,441.9
		L72.8,441.9c0-1.2,0.9-2.2,2.1-2.2H92c1.2,0,2.1,1,2.1,2.1v0.1c0,1.2-1,2.1-2.1,2.1H74.9C73.7,444.1,72.8,443.1,72.8,441.9z
		 M118.7,441.9L118.7,441.9c0-1.2,0.9-2.2,2.1-2.2h24.5c1.2,0,2.1,1,2.1,2.1v0.1c0,1.2-0.9,2.1-2.1,2.1h-24.5
		C119.6,444.1,118.7,443.1,118.7,441.9z M95.7,441.8L95.7,441.8c0-1.2,0.9-2.2,2.1-2.2h16.1c1.2,0,2.1,1,2.1,2.1v0.1
		c0,1.2-1,2.1-2.1,2.1H97.8C96.7,443.9,95.7,443,95.7,441.8z M436,439.6L436,439.6c0-1.2,1-2.2,2.1-2.2h18.2c1.2,0,2.1,1,2.1,2.1
		v0.1c0,1.2-1,2.1-2.1,2.1h-18.2C436.9,441.8,436,440.8,436,439.6z M464.2,439.5L464.2,439.5c0-1.2,0.9-2.2,2.1-2.2h10.9
		c1.2,0,2.1,1,2.1,2.1v0.1c0,1.2-1,2.1-2.1,2.1h-10.9C465.1,441.6,464.2,440.6,464.2,439.5z M480.9,439.3L480.9,439.3
		c0-1.2,1-2.2,2.1-2.2h17.1c1.2,0,2.1,1,2.1,2.1v0.1c0,1.2-1,2.1-2.1,2.1H483C481.8,441.4,480.9,440.5,480.9,439.3z M526.8,439.3
		L526.8,439.3c0-1.2,1-2.2,2.1-2.2h24.5c1.2,0,2.1,1,2.1,2.1v0.1c0,1.2-1,2.1-2.1,2.1h-24.5C527.8,441.4,526.8,440.5,526.8,439.3z
		 M503.8,439.2L503.8,439.2c0-1.2,1-2.2,2.1-2.2h16.1c1.2,0,2.1,1,2.1,2.1v0.1c0,1.2-1,2.1-2.1,2.1H506
		C504.8,441.3,503.8,440.4,503.8,439.2z M377,439.1L377,439.1c0-1.2,1-2.2,2.1-2.2h17.1c1.2,0,2.1,1,2.1,2.1v0.1
		c0,1.2-1,2.1-2.1,2.1h-17.1C378,441.3,377,440.3,377,439.1z M354.1,439L354.1,439c0-1.2,1-2.2,2.1-2.2h17.1c1.2,0,2.1,1,2.1,2.1
		v0.1c0,1.2-1,2.1-2.1,2.1h-17.1C355,441.1,354.1,440.2,354.1,439z M299.8,438.9L299.8,438.9c0-1.2,1-2.2,2.1-2.2H341
		c1.2,0,2.1,1,2.1,2.1v0.1c0,1.2-1,2.1-2.1,2.1h-39.1C300.7,441,299.8,440,299.8,438.9z M249.1,433.2L249.1,433.2
		c0-1.2,1-2.2,2.1-2.2h17.1c1.2,0,2.1,1,2.1,2.1v0.1c0,1.2-0.9,2.1-2.1,2.1h-17.1C250.1,435.4,249.1,434.4,249.1,433.2z
		 M225.8,433.1L225.8,433.1c0-1.2,0.9-2.2,2.1-2.2h17.2c1.2,0,2.1,1,2.1,2.1v0.1c0,1.2-1,2.1-2.1,2.1h-17.2
		C226.7,435.3,225.8,434.3,225.8,433.1z M192.8,433L192.8,433c0-1.2,0.9-2.2,2.1-2.2h24.5c1.2,0,2.1,0.9,2.1,2.1v0.1
		c0,1.2-0.9,2.1-2.1,2.1h-24.5C193.7,435.1,192.8,434.2,192.8,433z M163.6,432.9L163.6,432.9c0-1.2,0.9-2.2,2.1-2.2h21.8
		c1.2,0,2.1,1,2.1,2.1v0.1c0,1.2-1,2.1-2.1,2.1h-21.8C164.5,435,163.6,434,163.6,432.9z M105.1,430.4L105.1,430.4
		c0-1.2,1-2.2,2.1-2.2h17.1c1.2,0,2.1,1,2.1,2.1v0.1c0,1.2-1,2.1-2.1,2.1h-17.1C106.1,432.5,105.1,431.5,105.1,430.4z M398.4,430.3
		L398.4,430.3c0-1.2,0.9-2.2,2.1-2.2h15.6c1.2,0,2.1,0.9,2.1,2.1v0.1c0,1.2-0.9,2.1-2.1,2.1h-15.6
		C399.4,432.4,398.4,431.4,398.4,430.3z M82.1,430.2L82.1,430.2c0-1.2,1-2.2,2.1-2.2h17.1c1.2,0,2.1,1,2.1,2.1v0.1
		c0,1.2-1,2.1-2.1,2.1H84.3C83.1,432.3,82.1,431.4,82.1,430.2z M27.9,430.1L27.9,430.1c0-1.2,1-2.2,2.1-2.2h39.1
		c1.2,0,2.1,1,2.1,2.1v0.1c0,1.2-1,2.1-2.1,2.1H30C28.8,432.2,27.9,431.3,27.9,430.1z M374.9,429.9L374.9,429.9c0-1.2,1-2.2,2.1-2.2
		h17.1c1.2,0,2.1,1,2.1,2.1v0.1c0,1.2-1,2.1-2.1,2.1h-17.1C375.9,432,374.9,431.1,374.9,429.9z M299.8,429.8L299.8,429.8
		c0-1.2,1-2.2,2.1-2.2h23.4c1.2,0,2.1,1,2.1,2.1v0.1c0,1.2-1,2.1-2.1,2.1h-23.4C300.7,431.9,299.8,430.9,299.8,429.8z M352,429.8
		L352,429.8c0-1.2,1-2.2,2.1-2.2h17.1c1.2,0,2.1,1,2.1,2.1v0.1c0,1.2-1,2.1-2.1,2.1h-17.1C352.9,431.9,352,430.9,352,429.8z
		 M330.1,429.6L330.1,429.6c0-1.2,0.9-2.2,2.1-2.2h16.1c1.2,0,2.1,0.9,2.1,2.1v0.1c0,1.2-1,2.1-2.1,2.1h-16.1
		C331,431.7,330.1,430.8,330.1,429.6z M513.2,422.9L513.2,422.9c0-1.2,1-2.2,2.1-2.2h17.2c1.2,0,2.1,1,2.1,2.1v0.1
		c0,1.2-1,2.1-2.1,2.1h-17.2C514.2,425.1,513.2,424.1,513.2,422.9z M490.3,422.8L490.3,422.8c0-1.2,1-2.2,2.1-2.2h17.1
		c1.2,0,2.1,1,2.1,2.1v0.1c0,1.2-1,2.1-2.1,2.1h-17.1C491.2,424.9,490.3,423.9,490.3,422.8z M436,422.6L436,422.6
		c0-1.2,1-2.2,2.1-2.2h39.1c1.2,0,2.1,1,2.1,2.1v0.1c0,1.2-1,2.1-2.1,2.1h-39.1C436.9,424.8,436,423.8,436,422.6z M104.1,420.6
		L104.1,420.6c0-1.2,1-2.2,2.1-2.2h17.1c1.2,0,2.1,1,2.1,2.1v0.1c0,1.2-1,2.1-2.1,2.1h-17.1C105,422.7,104.1,421.8,104.1,420.6z
		 M27.9,420.4L27.9,420.4c0-1.2,1-2.2,2.1-2.2h24.5c1.2,0,2.1,0.9,2.1,2.1v0.1c0,1.2-1,2.1-2.1,2.1H30
		C28.8,422.6,27.9,421.6,27.9,420.4z M81.1,420.4L81.1,420.4c0-1.2,0.9-2.2,2.1-2.2h17.1c1.2,0,2.1,0.9,2.1,2.1v0.1
		c0,1.2-1,2.1-2.1,2.1H83.2C82,422.6,81.1,421.6,81.1,420.4z M59.2,420.3L59.2,420.3c0-1.2,0.9-2.2,2.1-2.2h16.1
		c1.2,0,2.1,1,2.1,2.1v0.1c0,1.2-0.9,2.1-2.1,2.1H61.3C60.1,422.4,59.2,421.5,59.2,420.3z M262.7,417.7L262.7,417.7
		c0-1.2,0.9-2.2,2.1-2.2h16.1c1.2,0,2.1,1,2.1,2.1v0.1c0,1.2-1,2.1-2.1,2.1h-16.1C263.7,419.8,262.7,418.9,262.7,417.7z
		 M239.2,417.3L239.2,417.3c0-1.2,1-2.2,2.1-2.2h16.1c1.2,0,2.1,1,2.1,2.1v0.1c0,1.2-0.9,2.1-2.1,2.1h-16.1
		C240.2,419.5,239.2,418.5,239.2,417.3z M163.6,417.2L163.6,417.2c0-1.2,0.9-2.2,2.1-2.2h23.4c1.2,0,2.1,1,2.1,2.1v0.1
		c0,1.2-1,2.1-2.1,2.1h-23.4C164.5,419.3,163.6,418.4,163.6,417.2z M215.8,417.2L215.8,417.2c0-1.2,0.9-2.2,2.1-2.2H235
		c1.2,0,2.1,1,2.1,2.1v0.1c0,1.2-1,2.1-2.1,2.1h-17.1C216.7,419.3,215.8,418.4,215.8,417.2z M193.8,417.1L193.8,417.1
		c0-1.2,0.9-2.2,2.1-2.2h16.1c1.2,0,2.1,1,2.1,2.1v0.1c0,1.2-1,2.1-2.1,2.1H196C194.8,419.2,193.8,418.2,193.8,417.1z M377,416.9
		L377,416.9c0-1.2,1-2.2,2.1-2.2h17.1c1.2,0,2.1,1,2.1,2.1v0.1c0,1.2-1,2.1-2.1,2.1h-17.1C378,419.1,377,418.1,377,416.9z
		 M354.1,416.8L354.1,416.8c0-1.2,1-2.2,2.1-2.2h17.1c1.2,0,2.1,1,2.1,2.1v0.1c0,1.2-1,2.1-2.1,2.1h-17.1
		C355,418.9,354.1,418,354.1,416.8z M299.8,416.7L299.8,416.7c0-1.2,1-2.2,2.1-2.2H341c1.2,0,2.1,0.9,2.1,2.1v0.1
		c0,1.2-1,2.1-2.1,2.1h-39.1C300.7,418.8,299.8,417.8,299.8,416.7z M512.2,413.1L512.2,413.1c0-1.2,1-2.2,2.1-2.2h17.1
		c1.2,0,2.1,1,2.1,2.1v0.1c0,1.2-1,2.1-2.1,2.1h-17.1C513.1,415.3,512.2,414.3,512.2,413.1z M436,413L436,413c0-1.2,1-2.2,2.1-2.2
		h24.5c1.2,0,2.1,1,2.1,2.1v0.1c0,1.2-1,2.1-2.1,2.1h-24.5C436.9,415.1,436,414.2,436,413z M489.2,413L489.2,413
		c0-1.2,1-2.2,2.1-2.2h17.1c1.2,0,2.1,1,2.1,2.1v0.1c0,1.2-1,2.1-2.1,2.1h-17.1C490.2,415.1,489.2,414.2,489.2,413z M467.3,412.9
		L467.3,412.9c0-1.2,1-2.2,2.1-2.2h16.1c1.2,0,2.1,0.9,2.1,2.1v0.1c0,1.2-1,2.1-2.1,2.1h-16.1C468.3,415,467.3,414,467.3,412.9z
		 M248.1,407.8L248.1,407.8c0-1.2,1-2.2,2.1-2.2h25.5c1.2,0,2.1,1,2.1,2.1v0.1c0,1.2-1,2.1-2.1,2.1h-25.5
		C249.1,409.9,248.1,409,248.1,407.8z M224.7,407.7L224.7,407.7c0-1.2,1-2.2,2.1-2.2H244c1.2,0,2.1,1,2.1,2.1v0.1
		c0,1.2-1,2.1-2.1,2.1h-17.1C225.7,409.8,224.7,408.9,224.7,407.7z M191.7,407.6L191.7,407.6c0-1.2,1-2.2,2.1-2.2h24.5
		c1.2,0,2.1,1,2.1,2.1v0.1c0,1.2-1,2.1-2.1,2.1h-24.5C192.7,409.7,191.7,408.7,191.7,407.6z M163.6,407.4L163.6,407.4
		c0-1.2,0.9-2.2,2.1-2.2h20.8c1.2,0,2.1,1,2.1,2.1v0.1c0,1.2-1,2.1-2.1,2.1h-20.8C164.5,409.6,163.6,408.6,163.6,407.4z M376,407.2
		L376,407.2c0-1.2,1-2.2,2.1-2.2h17.1c1.2,0,2.1,1,2.1,2.1v0.1c0,1.2-0.9,2.1-2.1,2.1h-17.1C376.9,409.3,376,408.4,376,407.2z
		 M299.8,407L299.8,407c0-1.2,1-2.2,2.1-2.2h24.5c1.2,0,2.1,0.9,2.1,2.1v0.1c0,1.2-1,2.1-2.1,2.1h-24.5
		C300.7,409.1,299.8,408.2,299.8,407z M353,407L353,407c0-1.2,1-2.2,2.1-2.2h17.1c1.2,0,2.1,0.9,2.1,2.1v0.1c0,1.2-1,2.1-2.1,2.1
		h-17.1C354,409.1,353,408.2,353,407z M331.1,406.9L331.1,406.9c0-1.2,1-2.2,2.1-2.2h16.1c1.2,0,2.1,1,2.1,2.1v0.1
		c0,1.2-1,2.1-2.1,2.1h-16.1C332.1,409,331.1,408.1,331.1,406.9z M105.1,406L105.1,406c0-1.2,1-2.2,2.1-2.2h17.1
		c1.2,0,2.1,1,2.1,2.1v0.1c0,1.2-1,2.1-2.1,2.1h-17.1C106.1,408.1,105.1,407.2,105.1,406z M82.1,405.8L82.1,405.8
		c0-1.2,1-2.2,2.1-2.2h17.1c1.2,0,2.1,1,2.1,2.1v0.1c0,1.2-1,2.1-2.1,2.1H84.3C83.1,408,82.1,407,82.1,405.8z M27.9,405.7
		L27.9,405.7c0-1.2,1-2.2,2.1-2.2h39.1c1.2,0,2.1,0.9,2.1,2.1v0.1c0,1.2-1,2.1-2.1,2.1H30C28.8,407.8,27.9,406.9,27.9,405.7z
		 M513.2,398.5L513.2,398.5c0-1.2,1-2.2,2.1-2.2h17.2c1.2,0,2.1,1,2.1,2.1v0.1c0,1.2-1,2.1-2.1,2.1h-17.2
		C514.2,400.7,513.2,399.7,513.2,398.5z M490.3,398.4L490.3,398.4c0-1.2,1-2.2,2.1-2.2h17.1c1.2,0,2.1,1,2.1,2.1v0.1
		c0,1.2-1,2.1-2.1,2.1h-17.1C491.2,400.5,490.3,399.6,490.3,398.4z M436,398.3L436,398.3c0-1.2,1-2.2,2.1-2.2h39.1
		c1.2,0,2.1,1,2.1,2.1v0.1c0,1.2-1,2.1-2.1,2.1h-39.1C436.9,400.4,436,399.4,436,398.3z M126.5,397.1L126.5,397.1
		c0-1.2,1-2.2,2.1-2.2h15.6c1.2,0,2.1,1,2.1,2.1v0.1c0,1.2-1,2.1-2.1,2.1h-15.6C127.5,399.2,126.5,398.3,126.5,397.1z M103,396.7
		L103,396.7c0-1.2,0.9-2.2,2.1-2.2h17.1c1.2,0,2.1,0.9,2.1,2.1v0.1c0,1.2-1,2.1-2.1,2.1h-17.1C104,398.9,103,397.9,103,396.7z
		 M27.9,396.6L27.9,396.6c0-1.2,1-2.2,2.1-2.2h23.4c1.2,0,2.1,1,2.1,2.1v0.1c0,1.2-1,2.1-2.1,2.1H30
		C28.8,398.7,27.9,397.8,27.9,396.6z M80,396.6L80,396.6c0-1.2,1-2.2,2.1-2.2h17.1c1.2,0,2.1,1,2.1,2.1v0.1c0,1.2-0.9,2.1-2.1,2.1
		H82.2C81,398.7,80,397.8,80,396.6z M58.1,396.4L58.1,396.4c0-1.2,1-2.2,2.1-2.2h16.1c1.2,0,2.1,1,2.1,2.1v0.1
		c0,1.2-0.9,2.1-2.1,2.1H60.3C59.1,398.6,58.1,397.6,58.1,396.4z M377,392.6L377,392.6c0-1.2,1-2.2,2.1-2.2h17.1
		c1.2,0,2.1,1,2.1,2.1v0.1c0,1.2-1,2.1-2.1,2.1h-17.1C378,394.7,377,393.7,377,392.6z M354.1,392.4L354.1,392.4c0-1.2,1-2.2,2.1-2.2
		h17.1c1.2,0,2.1,1,2.1,2.1v0.1c0,1.2-1,2.1-2.1,2.1h-17.1C355,394.5,354.1,393.6,354.1,392.4z M299.8,392.3L299.8,392.3
		c0-1.2,1-2.2,2.1-2.2H341c1.2,0,2.1,0.9,2.1,2.1v0.1c0,1.2-1,2.1-2.1,2.1h-39.1C300.7,394.4,299.8,393.4,299.8,392.3z M248.6,392
		L248.6,392c0-1.2,1-2.2,2.1-2.2h25.5c1.2,0,2.1,1,2.1,2.1v0.1c0,1.2-0.9,2.1-2.1,2.1h-25.5C249.6,394.1,248.6,393.2,248.6,392z
		 M225.3,391.9L225.3,391.9c0-1.2,1-2.2,2.1-2.2h17.1c1.2,0,2.1,0.9,2.1,2.1v0.1c0,1.2-0.9,2.1-2.1,2.1h-17.1
		C226.2,394,225.3,393.1,225.3,391.9z M192.3,391.8L192.3,391.8c0-1.2,1-2.2,2.1-2.2h24.4c1.2,0,2.1,1,2.1,2.1v0.1
		c0,1.2-1,2.1-2.1,2.1h-24.4C193.2,393.9,192.3,392.9,192.3,391.8z M163,391.6L163,391.6c0-1.2,0.9-2.2,2.1-2.2H187
		c1.2,0,2.1,0.9,2.1,2.1v0.1c0,1.2-0.9,2.1-2.1,2.1h-21.9C164,393.8,163,392.8,163,391.6z M534.6,389.7L534.6,389.7
		c0-1.2,1-2.2,2.1-2.2h15.6c1.2,0,2.1,1,2.1,2.1v0.1c0,1.2-1,2.1-2.1,2.1h-15.6C535.6,391.8,534.6,390.8,534.6,389.7z M511.1,389.3
		L511.1,389.3c0-1.2,1-2.2,2.1-2.2h17.1c1.2,0,2.1,1,2.1,2.1v0.1c0,1.2-1,2.1-2.1,2.1h-17.1C512.1,391.4,511.1,390.5,511.1,389.3z
		 M436,389.1L436,389.1c0-1.2,1-2.2,2.1-2.2h23.4c1.2,0,2.1,1,2.1,2.1v0.1c0,1.2-1,2.1-2.1,2.1h-23.4
		C436.9,391.3,436,390.3,436,389.1z M488.2,389.1L488.2,389.1c0-1.2,1-2.2,2.1-2.2h17.1c1.2,0,2.1,1,2.1,2.1v0.1
		c0,1.2-1,2.1-2.1,2.1h-17.1C489.1,391.3,488.2,390.3,488.2,389.1z M466.3,389L466.3,389c0-1.2,1-2.2,2.1-2.2h16.1
		c1.2,0,2.1,1,2.1,2.1v0.1c0,1.2-0.9,2.1-2.1,2.1h-16.1C467.2,391.1,466.3,390.2,466.3,389z M105.1,383.8L105.1,383.8
		c0-1.2,1-2.2,2.1-2.2h17.1c1.2,0,2.1,0.9,2.1,2.1v0.1c0,1.2-1,2.1-2.1,2.1h-17.1C106.1,385.9,105.1,384.9,105.1,383.8z
		 M398.4,383.7L398.4,383.7c0-1.2,0.9-2.2,2.1-2.2h15.6c1.2,0,2.1,1,2.1,2.1v0.1c0,1.2-0.9,2.1-2.1,2.1h-15.6
		C399.4,385.8,398.4,384.9,398.4,383.7z M82.1,383.6L82.1,383.6c0-1.2,1-2.2,2.1-2.2h17.1c1.2,0,2.1,1,2.1,2.1v0.1
		c0,1.2-1,2.1-2.1,2.1H84.3C83.1,385.8,82.1,384.8,82.1,383.6z M27.9,383.5L27.9,383.5c0-1.2,1-2.2,2.1-2.2h39.1
		c1.2,0,2.1,1,2.1,2.1v0.1c0,1.2-1,2.1-2.1,2.1H30C28.8,385.6,27.9,384.7,27.9,383.5z M374.9,383.3L374.9,383.3c0-1.2,1-2.2,2.1-2.2
		h17.1c1.2,0,2.1,1,2.1,2.1v0.1c0,1.2-1,2.1-2.1,2.1h-17.1C375.9,385.4,374.9,384.5,374.9,383.3z M299.8,383.2L299.8,383.2
		c0-1.2,1-2.2,2.1-2.2h23.4c1.2,0,2.1,1,2.1,2.1v0.1c0,1.2-1,2.1-2.1,2.1h-23.4C300.7,385.3,299.8,384.3,299.8,383.2z M352,383.2
		L352,383.2c0-1.2,1-2.2,2.1-2.2h17.1c1.2,0,2.1,1,2.1,2.1v0.1c0,1.2-1,2.1-2.1,2.1h-17.1C352.9,385.3,352,384.3,352,383.2z
		 M330.1,383L330.1,383c0-1.2,0.9-2.2,2.1-2.2h16.1c1.2,0,2.1,1,2.1,2.1v0.1c0,1.2-1,2.1-2.1,2.1h-16.1
		C331,385.2,330.1,384.2,330.1,383z M239.2,381.6L239.2,381.6c0-1.2,1-2.2,2.1-2.2h17.1c1.2,0,2.1,1,2.1,2.1v0.1
		c0,1.2-0.9,2.1-2.1,2.1h-17.1C240.2,383.7,239.2,382.7,239.2,381.6z M163,381.4L163,381.4c0-1.2,0.9-2.2,2.1-2.2h24.5
		c1.2,0,2.1,0.9,2.1,2.1v0.1c0,1.2-0.9,2.1-2.1,2.1h-24.5C164,383.5,163,382.6,163,381.4z M216.3,381.4L216.3,381.4
		c0-1.2,1-2.2,2.1-2.2h17.1c1.2,0,2.1,0.9,2.1,2.1v0.1c0,1.2-0.9,2.1-2.1,2.1h-17.1C217.2,383.5,216.3,382.6,216.3,381.4z
		 M194.4,381.3L194.4,381.3c0-1.2,1-2.2,2.1-2.2h16.1c1.2,0,2.1,1,2.1,2.1v0.1c0,1.2-1,2.1-2.1,2.1h-16.1
		C195.3,383.4,194.4,382.4,194.4,381.3z M513.2,376.3L513.2,376.3c0-1.2,1-2.2,2.1-2.2h17.2c1.2,0,2.1,1,2.1,2.1v0.1
		c0,1.2-1,2.1-2.1,2.1h-17.2C514.2,378.5,513.2,377.5,513.2,376.3z M490.3,376.2L490.3,376.2c0-1.2,1-2.2,2.1-2.2h17.1
		c1.2,0,2.1,1,2.1,2.1v0.1c0,1.2-1,2.1-2.1,2.1h-17.1C491.2,378.3,490.3,377.4,490.3,376.2z M436,376.1L436,376.1
		c0-1.2,1-2.2,2.1-2.2h39.1c1.2,0,2.1,1,2.1,2.1v0.1c0,1.2-1,2.1-2.1,2.1h-39.1C436.9,378.2,436,377.2,436,376.1z M104.1,374
		L104.1,374c0-1.2,1-2.2,2.1-2.2h17.1c1.2,0,2.1,1,2.1,2.1v0.1c0,1.2-1,2.1-2.1,2.1h-17.1C105,376.1,104.1,375.2,104.1,374z
		 M27.9,373.9L27.9,373.9c0-1.2,1-2.2,2.1-2.2h24.5c1.2,0,2.1,1,2.1,2.1v0.1c0,1.2-1,2.1-2.1,2.1H30C28.8,376,27.9,375,27.9,373.9z
		 M81.1,373.9L81.1,373.9c0-1.2,0.9-2.2,2.1-2.2h17.1c1.2,0,2.1,1,2.1,2.1v0.1c0,1.2-1,2.1-2.1,2.1H83.2C82,376,81.1,375,81.1,373.9
		z M59.2,373.7L59.2,373.7c0-1.2,0.9-2.2,2.1-2.2h16.1c1.2,0,2.1,1,2.1,2.1v0.1c0,1.2-0.9,2.1-2.1,2.1H61.3
		C60.1,375.9,59.2,374.9,59.2,373.7z M397.4,368.7L397.4,368.7c0-1.2,1-2.2,2.1-2.2h18.2c1.2,0,2.1,1,2.1,2.1v0.1
		c0,1.2-1,2.1-2.1,2.1h-18.2C398.3,370.8,397.4,369.9,397.4,368.7z M376.5,368.6L376.5,368.6c0-1.2,1-2.2,2.1-2.2h10.9
		c1.2,0,2.1,1,2.1,2.1v0.1c0,1.2-0.9,2.1-2.1,2.1h-10.9C377.4,370.7,376.5,369.7,376.5,368.6z M300.3,368.4L300.3,368.4
		c0-1.2,0.9-2.2,2.1-2.2h24.4c1.2,0,2.1,0.9,2.1,2.1v0.1c0,1.2-0.9,2.1-2.1,2.1h-24.4C301.2,370.5,300.3,369.6,300.3,368.4z
		 M353.5,368.4L353.5,368.4c0-1.2,1-2.2,2.1-2.2h17.1c1.2,0,2.1,0.9,2.1,2.1v0.1c0,1.2-1,2.1-2.1,2.1h-17.1
		C354.5,370.5,353.5,369.6,353.5,368.4z M331.6,368.3L331.6,368.3c0-1.2,1-2.2,2.1-2.2h16.1c1.2,0,2.1,1,2.1,2.1v0.1
		c0,1.2-1,2.1-2.1,2.1h-16.1C332.6,370.4,331.6,369.4,331.6,368.3z M240.3,367.5L240.3,367.5c0-1.2,1-2.2,2.1-2.2h17.1
		c1.2,0,2.1,1,2.1,2.1v0.1c0,1.2-1,2.1-2.1,2.1h-17.1C241.2,369.6,240.3,368.6,240.3,367.5z M217.3,367.3L217.3,367.3
		c0-1.2,1-2.2,2.1-2.2h17.1c1.2,0,2.1,1,2.1,2.1v0.1c0,1.2-1,2.1-2.1,2.1h-17.1C218.3,369.4,217.3,368.5,217.3,367.3z M163,367.2
		L163,367.2c0-1.2,0.9-2.2,2.1-2.2h39.1c1.2,0,2.1,1,2.1,2.1v0.1c0,1.2-1,2.1-2.1,2.1h-39.1C164,369.3,163,368.4,163,367.2z
		 M512.2,366.6L512.2,366.6c0-1.2,1-2.2,2.1-2.2h17.1c1.2,0,2.1,1,2.1,2.1v0.1c0,1.2-1,2.1-2.1,2.1h-17.1
		C513.1,368.7,512.2,367.7,512.2,366.6z M436,366.4L436,366.4c0-1.2,1-2.2,2.1-2.2h24.5c1.2,0,2.1,1,2.1,2.1v0.1
		c0,1.2-1,2.1-2.1,2.1h-24.5C436.9,368.5,436,367.6,436,366.4z M489.2,366.4L489.2,366.4c0-1.2,1-2.2,2.1-2.2h17.1
		c1.2,0,2.1,1,2.1,2.1v0.1c0,1.2-1,2.1-2.1,2.1h-17.1C490.2,368.5,489.2,367.6,489.2,366.4z M467.3,366.3L467.3,366.3
		c0-1.2,1-2.2,2.1-2.2h16.1c1.2,0,2.1,1,2.1,2.1v0.1c0,1.2-1,2.1-2.1,2.1h-16.1C468.3,368.4,467.3,367.5,467.3,366.3z M105.1,359.4
		L105.1,359.4c0-1.2,1-2.2,2.1-2.2h17.1c1.2,0,2.1,1,2.1,2.1v0.1c0,1.2-1,2.1-2.1,2.1h-17.1C106.1,361.5,105.1,360.6,105.1,359.4z
		 M82.1,359.3L82.1,359.3c0-1.2,1-2.2,2.1-2.2h17.1c1.2,0,2.1,1,2.1,2.1v0.1c0,1.2-1,2.1-2.1,2.1H84.3
		C83.1,361.4,82.1,360.4,82.1,359.3z M27.9,359.1L27.9,359.1c0-1.2,1-2.2,2.1-2.2h39.1c1.2,0,2.1,1,2.1,2.1v0.1c0,1.2-1,2.1-2.1,2.1
		H30C28.8,361.2,27.9,360.3,27.9,359.1z M385.9,359L385.9,359c0-1.2,1-2.2,2.1-2.2h17.1c1.2,0,2.1,1,2.1,2.1v0.1
		c0,1.2-0.9,2.1-2.1,2.1H388C386.8,361.1,385.9,360.2,385.9,359z M362.5,358.9L362.5,358.9c0-1.2,1-2.2,2.1-2.2h17.2
		c1.2,0,2.1,1,2.1,2.1v0.1c0,1.2-1,2.1-2.1,2.1h-17.2C363.5,361.1,362.5,360.1,362.5,358.9z M329.5,358.8L329.5,358.8
		c0-1.2,1-2.2,2.1-2.2h24.5c1.2,0,2.1,0.9,2.1,2.1v0.1c0,1.2-1,2.1-2.1,2.1h-24.5C330.5,360.9,329.5,359.9,329.5,358.8z
		 M300.3,358.6L300.3,358.6c0-1.2,0.9-2.2,2.1-2.2h21.8c1.2,0,2.1,1,2.1,2.1v0.1c0,1.2-1,2.1-2.1,2.1h-21.8
		C301.2,360.8,300.3,359.8,300.3,358.6z M261.7,358.6L261.7,358.6c0-1.2,0.9-2.2,2.1-2.2h15.6c1.2,0,2.1,1,2.1,2.1v0.1
		c0,1.2-0.9,2.1-2.1,2.1h-15.6C262.6,360.7,261.7,359.8,261.7,358.6z M238.2,358.2L238.2,358.2c0-1.2,1-2.2,2.1-2.2h17.1
		c1.2,0,2.1,1,2.1,2.1v0.1c0,1.2-0.9,2.1-2.1,2.1h-17.1C239.1,360.3,238.2,359.4,238.2,358.2z M163,358.1L163,358.1
		c0-1.2,0.9-2.2,2.1-2.2h23.4c1.2,0,2.1,1,2.1,2.1v0.1c0,1.2-1,2.1-2.1,2.1h-23.4C164,360.2,163,359.2,163,358.1z M215.2,358.1
		L215.2,358.1c0-1.2,1-2.2,2.1-2.2h17.1c1.2,0,2.1,1,2.1,2.1v0.1c0,1.2-1,2.1-2.1,2.1h-17.1C216.2,360.2,215.2,359.2,215.2,358.1z
		 M193.3,357.9L193.3,357.9c0-1.2,0.9-2.2,2.1-2.2h16.1c1.2,0,2.1,1,2.1,2.1v0.1c0,1.2-0.9,2.1-2.1,2.1h-16.1
		C194.3,360.1,193.3,359.1,193.3,357.9z M513.2,351.9L513.2,351.9c0-1.2,1-2.2,2.1-2.2h17.2c1.2,0,2.1,1,2.1,2.1v0.1
		c0,1.2-1,2.1-2.1,2.1h-17.2C514.2,354.1,513.2,353.1,513.2,351.9z M490.3,351.8L490.3,351.8c0-1.2,1-2.2,2.1-2.2h17.1
		c1.2,0,2.1,1,2.1,2.1v0.1c0,1.2-1,2.1-2.1,2.1h-17.1C491.2,353.9,490.3,353,490.3,351.8z M436,351.7L436,351.7c0-1.2,1-2.2,2.1-2.2
		h39.1c1.2,0,2.1,1,2.1,2.1v0.1c0,1.2-1,2.1-2.1,2.1h-39.1C436.9,353.8,436,352.8,436,351.7z M126.5,350.5L126.5,350.5
		c0-1.2,1-2.2,2.1-2.2h15.6c1.2,0,2.1,0.9,2.1,2.1v0.1c0,1.2-1,2.1-2.1,2.1h-15.6C127.5,352.6,126.5,351.7,126.5,350.5z M103,350.1
		L103,350.1c0-1.2,0.9-2.2,2.1-2.2h17.1c1.2,0,2.1,1,2.1,2.1v0.1c0,1.2-1,2.1-2.1,2.1h-17.1C104,352.3,103,351.3,103,350.1z
		 M27.9,350L27.9,350c0-1.2,1-2.2,2.1-2.2h23.4c1.2,0,2.1,1,2.1,2.1v0.1c0,1.2-1,2.1-2.1,2.1H30C28.8,352.1,27.9,351.2,27.9,350z
		 M80,350L80,350c0-1.2,1-2.2,2.1-2.2h17.1c1.2,0,2.1,1,2.1,2.1v0.1c0,1.2-0.9,2.1-2.1,2.1H82.2C81,352.1,80,351.2,80,350z
		 M58.1,349.9L58.1,349.9c0-1.2,1-2.2,2.1-2.2h16.1c1.2,0,2.1,0.9,2.1,2.1v0.1c0,1.2-0.9,2.1-2.1,2.1H60.3
		C59.1,352,58.1,351,58.1,349.9z M260.6,345.7L260.6,345.7c0-1.2,0.9-2.2,2.1-2.2h18.2c1.2,0,2.1,1,2.1,2.1v0.1c0,1.2-1,2.1-2.1,2.1
		h-18.2C261.6,347.8,260.6,346.9,260.6,345.7z M239.8,345.5L239.8,345.5c0-1.2,1-2.2,2.1-2.2h10.9c1.2,0,2.1,1,2.1,2.1v0.1
		c0,1.2-1,2.1-2.1,2.1h-10.9C240.7,347.7,239.8,346.7,239.8,345.5z M163.6,345.4L163.6,345.4c0-1.2,0.9-2.2,2.1-2.2h24.5
		c1.2,0,2.1,1,2.1,2.1v0.1c0,1.2-0.9,2.1-2.1,2.1h-24.5C164.5,347.5,163.6,346.6,163.6,345.4z M216.8,345.4L216.8,345.4
		c0-1.2,1-2.2,2.1-2.2h17.1c1.2,0,2.1,1,2.1,2.1v0.1c0,1.2-1,2.1-2.1,2.1h-17.1C217.8,347.5,216.8,346.6,216.8,345.4z M194.9,345.3
		L194.9,345.3c0-1.2,1-2.2,2.1-2.2h16.1c1.2,0,2.1,1,2.1,2.1v0.1c0,1.2-1,2.1-2.1,2.1H197C195.8,347.4,194.9,346.4,194.9,345.3z
		 M399.5,343.5L399.5,343.5c0-1.2,1-2.2,2.1-2.2h16.1c1.2,0,2.1,1,2.1,2.1v0.1c0,1.2-1,2.1-2.1,2.1h-16.1
		C400.4,345.6,399.5,344.7,399.5,343.5z M376,343.1L376,343.1c0-1.2,1-2.2,2.1-2.2h16.1c1.2,0,2.1,1,2.1,2.1v0.1
		c0,1.2-1,2.1-2.1,2.1h-16.1C376.9,345.3,376,344.3,376,343.1z M534.6,343.1L534.6,343.1c0-1.2,1-2.2,2.1-2.2h15.6
		c1.2,0,2.1,1,2.1,2.1v0.1c0,1.2-1,2.1-2.1,2.1h-15.6C535.6,345.2,534.6,344.3,534.6,343.1z M300.3,343L300.3,343
		c0-1.2,0.9-2.2,2.1-2.2h23.4c1.2,0,2.1,1,2.1,2.1v0.1c0,1.2-0.9,2.1-2.1,2.1h-23.4C301.2,345.1,300.3,344.1,300.3,343z M352.5,343
		L352.5,343c0-1.2,1-2.2,2.1-2.2h17.1c1.2,0,2.1,1,2.1,2.1v0.1c0,1.2-1,2.1-2.1,2.1h-17.1C353.4,345.1,352.5,344.1,352.5,343z
		 M330.6,342.9L330.6,342.9c0-1.2,1-2.2,2.1-2.2h16.1c1.2,0,2.1,1,2.1,2.1v0.1c0,1.2-1,2.1-2.1,2.1h-16.1
		C331.5,345,330.6,344,330.6,342.9z M511.1,342.7L511.1,342.7c0-1.2,1-2.2,2.1-2.2h17.1c1.2,0,2.1,1,2.1,2.1v0.1
		c0,1.2-1,2.1-2.1,2.1h-17.1C512.1,344.8,511.1,343.9,511.1,342.7z M436,342.6L436,342.6c0-1.2,1-2.2,2.1-2.2h23.4
		c1.2,0,2.1,1,2.1,2.1v0.1c0,1.2-1,2.1-2.1,2.1h-23.4C436.9,344.7,436,343.7,436,342.6z M488.2,342.6L488.2,342.6
		c0-1.2,1-2.2,2.1-2.2h17.1c1.2,0,2.1,1,2.1,2.1v0.1c0,1.2-1,2.1-2.1,2.1h-17.1C489.1,344.7,488.2,343.7,488.2,342.6z M466.3,342.4
		L466.3,342.4c0-1.2,1-2.2,2.1-2.2h16.1c1.2,0,2.1,1,2.1,2.1v0.1c0,1.2-0.9,2.1-2.1,2.1h-16.1C467.2,344.6,466.3,343.6,466.3,342.4z
		 M249.1,336L249.1,336c0-1.2,1-2.2,2.1-2.2h17.1c1.2,0,2.1,1,2.1,2.1v0.1c0,1.2-0.9,2.1-2.1,2.1h-17.1
		C250.1,338.1,249.1,337.2,249.1,336z M225.8,335.9L225.8,335.9c0-1.2,0.9-2.2,2.1-2.2h17.2c1.2,0,2.1,1,2.1,2.1v0.1
		c0,1.2-1,2.1-2.1,2.1h-17.2C226.7,338,225.8,337.1,225.8,335.9z M192.8,335.8L192.8,335.8c0-1.2,0.9-2.2,2.1-2.2h24.5
		c1.2,0,2.1,1,2.1,2.1v0.1c0,1.2-0.9,2.1-2.1,2.1h-24.5C193.7,337.9,192.8,336.9,192.8,335.8z M163.6,335.6L163.6,335.6
		c0-1.2,0.9-2.2,2.1-2.2h21.8c1.2,0,2.1,1,2.1,2.1v0.1c0,1.2-1,2.1-2.1,2.1h-21.8C164.5,337.8,163.6,336.8,163.6,335.6z
		 M125.5,335.5L125.5,335.5c0-1.2,1-2.2,2.1-2.2h18.2c1.2,0,2.1,1,2.1,2.1v0.1c0,1.2-1,2.1-2.1,2.1h-18.2
		C126.4,337.7,125.5,336.7,125.5,335.5z M104.6,335.4L104.6,335.4c0-1.2,1-2.2,2.1-2.2h10.9c1.2,0,2.1,1,2.1,2.1v0.1
		c0,1.2-0.9,2.1-2.1,2.1h-10.9C105.5,337.5,104.6,336.6,104.6,335.4z M28.4,335.2L28.4,335.2c0-1.2,0.9-2.2,2.1-2.2H55
		c1.2,0,2.1,0.9,2.1,2.1v0.1c0,1.2-0.9,2.1-2.1,2.1H30.5C29.3,337.4,28.4,336.4,28.4,335.2z M81.6,335.2L81.6,335.2
		c0-1.2,0.9-2.2,2.1-2.2h17.1c1.2,0,2.1,0.9,2.1,2.1v0.1c0,1.2-1,2.1-2.1,2.1H83.8C82.6,337.4,81.6,336.4,81.6,335.2z M59.7,335.1
		L59.7,335.1c0-1.2,1-2.2,2.1-2.2h16.1c1.2,0,2.1,1,2.1,2.1v0.1c0,1.2-1,2.1-2.1,2.1H61.8C60.6,337.2,59.7,336.3,59.7,335.1z
		 M384.9,333.6L384.9,333.6c0-1.2,1-2.2,2.1-2.2h25.5c1.2,0,2.1,1,2.1,2.1v0.1c0,1.2-1,2.1-2.1,2.1H387
		C385.8,335.7,384.9,334.8,384.9,333.6z M361.5,333.5L361.5,333.5c0-1.2,1-2.2,2.1-2.2h17.1c1.2,0,2.1,1,2.1,2.1v0.1
		c0,1.2-0.9,2.1-2.1,2.1h-17.1C362.4,335.6,361.5,334.7,361.5,333.5z M328.5,333.4L328.5,333.4c0-1.2,1-2.2,2.1-2.2h24.5
		c1.2,0,2.1,1,2.1,2.1v0.1c0,1.2-1,2.1-2.1,2.1h-24.5C329.4,335.5,328.5,334.5,328.5,333.4z M300.3,333.2L300.3,333.2
		c0-1.2,0.9-2.2,2.1-2.2h20.8c1.2,0,2.1,1,2.1,2.1v0.1c0,1.2-1,2.1-2.1,2.1h-20.8C301.2,335.3,300.3,334.4,300.3,333.2z
		 M533.6,328.1L533.6,328.1c0-1.2,1-2.2,2.1-2.2h18.2c1.2,0,2.1,1,2.1,2.1v0.1c0,1.2-1,2.1-2.1,2.1h-18.2
		C534.6,330.2,533.6,329.3,533.6,328.1z M512.7,327.9L512.7,327.9c0-1.2,1-2.2,2.1-2.2h10.9c1.2,0,2.1,0.9,2.1,2.1v0.1
		c0,1.2-1,2.1-2.1,2.1h-10.9C513.7,330.1,512.7,329.1,512.7,327.9z M436.5,327.8L436.5,327.8c0-1.2,1-2.2,2.1-2.2h24.5
		c1.2,0,2.1,1,2.1,2.1v0.1c0,1.2-1,2.1-2.1,2.1h-24.5C437.5,329.9,436.5,329,436.5,327.8z M489.7,327.8L489.7,327.8
		c0-1.2,1-2.2,2.1-2.2H509c1.2,0,2.1,1,2.1,2.1v0.1c0,1.2-1,2.1-2.1,2.1h-17.1C490.7,329.9,489.7,329,489.7,327.8z M467.8,327.7
		L467.8,327.7c0-1.2,1-2.2,2.1-2.2h16.1c1.2,0,2.1,1,2.1,2.1v0.1c0,1.2-1,2.1-2.1,2.1H470C468.8,329.8,467.8,328.8,467.8,327.7z
		 M114,325.8L114,325.8c0-1.2,1-2.2,2.1-2.2h17.1c1.2,0,2.1,1,2.1,2.1v0.1c0,1.2-1,2.1-2.1,2.1h-17.1C114.9,328,114,327,114,325.8z
		 M90.6,325.8L90.6,325.8c0-1.2,1-2.2,2.1-2.2h17.1c1.2,0,2.1,1,2.1,2.1v0.1c0,1.2-0.9,2.1-2.1,2.1H92.7
		C91.6,327.9,90.6,326.9,90.6,325.8z M57.6,325.6L57.6,325.6c0-1.2,1-2.2,2.1-2.2h24.5c1.2,0,2.1,1,2.1,2.1v0.1c0,1.2-1,2.1-2.1,2.1
		H59.7C58.6,327.7,57.6,326.8,57.6,325.6z M28.4,325.5L28.4,325.5c0-1.2,0.9-2.2,2.1-2.2h21.9c1.2,0,2.1,1,2.1,2.1v0.1
		c0,1.2-1,2.1-2.1,2.1H30.5C29.3,327.6,28.4,326.6,28.4,325.5z M522.1,318.4L522.1,318.4c0-1.2,1-2.2,2.1-2.2h17.1
		c1.2,0,2.1,1,2.1,2.1v0.1c0,1.2-1,2.1-2.1,2.1h-17.1C523.1,320.5,522.1,319.6,522.1,318.4z M498.7,318.3L498.7,318.3
		c0-1.2,1-2.2,2.1-2.2H518c1.2,0,2.1,1,2.1,2.1v0.1c0,1.2-1,2.1-2.1,2.1h-17.1C499.7,320.4,498.7,319.5,498.7,318.3z M465.7,318.2
		L465.7,318.2c0-1.2,1-2.2,2.1-2.2h24.5c1.2,0,2.1,1,2.1,2.1v0.1c0,1.2-1,2.1-2.1,2.1h-24.5C466.7,320.3,465.7,319.3,465.7,318.2z
		 M436.5,318L436.5,318c0-1.2,1-2.2,2.1-2.2h21.8c1.2,0,2.1,1,2.1,2.1v0.1c0,1.2-1,2.1-2.1,2.1h-21.8
		C437.5,320.2,436.5,319.2,436.5,318z M262.7,317.9L262.7,317.9c0-1.2,0.9-2.2,2.1-2.2h16.1c1.2,0,2.1,1,2.1,2.1v0.1
		c0,1.2-1,2.1-2.1,2.1h-16.1C263.7,320,262.7,319.1,262.7,317.9z M385.4,317.8L385.4,317.8c0-1.2,1-2.2,2.1-2.2H413
		c1.2,0,2.1,0.9,2.1,2.1v0.1c0,1.2-0.9,2.1-2.1,2.1h-25.5C386.3,319.9,385.4,318.9,385.4,317.8z M362,317.7L362,317.7
		c0-1.2,1-2.2,2.1-2.2h17.1c1.2,0,2.1,1,2.1,2.1v0.1c0,1.2-1,2.1-2.1,2.1h-17.1C363,319.8,362,318.9,362,317.7z M329,317.5
		L329,317.5c0-1.2,1-2.2,2.1-2.2h24.5c1.2,0,2.1,1,2.1,2.1v0.1c0,1.2-0.9,2.1-2.1,2.1h-24.5C330,319.7,329,318.7,329,317.5z
		 M239.2,317.5L239.2,317.5c0-1.2,1-2.2,2.1-2.2h16.1c1.2,0,2.1,1,2.1,2.1v0.1c0,1.2-0.9,2.1-2.1,2.1h-16.1
		C240.2,319.6,239.2,318.7,239.2,317.5z M299.8,317.4L299.8,317.4c0-1.2,1-2.2,2.1-2.2h21.8c1.2,0,2.1,0.9,2.1,2.1v0.1
		c0,1.2-0.9,2.1-2.1,2.1h-21.8C300.7,319.5,299.8,318.6,299.8,317.4z M163.6,317.4L163.6,317.4c0-1.2,0.9-2.2,2.1-2.2h23.4
		c1.2,0,2.1,1,2.1,2.1v0.1c0,1.2-1,2.1-2.1,2.1h-23.4C164.5,319.5,163.6,318.5,163.6,317.4z M215.8,317.4L215.8,317.4
		c0-1.2,0.9-2.2,2.1-2.2H235c1.2,0,2.1,1,2.1,2.1v0.1c0,1.2-1,2.1-2.1,2.1h-17.1C216.7,319.5,215.8,318.5,215.8,317.4z M193.8,317.2
		L193.8,317.2c0-1.2,0.9-2.2,2.1-2.2h16.1c1.2,0,2.1,1,2.1,2.1v0.1c0,1.2-1,2.1-2.1,2.1H196C194.8,319.4,193.8,318.4,193.8,317.2z
		 M127.5,310.3L127.5,310.3c0-1.2,1-2.2,2.1-2.2h16.1c1.2,0,2.1,1,2.1,2.1v0.1c0,1.2-1,2.1-2.1,2.1h-16.1
		C128.5,312.5,127.5,311.5,127.5,310.3z M104.1,310L104.1,310c0-1.2,1-2.2,2.1-2.2h16.1c1.2,0,2.1,1,2.1,2.1v0.1
		c0,1.2-1,2.1-2.1,2.1h-16.1C105,312.1,104.1,311.1,104.1,310z M28.4,309.8L28.4,309.8c0-1.2,0.9-2.2,2.1-2.2h23.4
		c1.2,0,2.1,1,2.1,2.1v0.1c0,1.2-1,2.1-2.1,2.1H30.5C29.3,311.9,28.4,311,28.4,309.8z M80.6,309.8L80.6,309.8c0-1.2,0.9-2.2,2.1-2.2
		h17.2c1.2,0,2.1,1,2.1,2.1v0.1c0,1.2-0.9,2.1-2.1,2.1H82.7C81.5,311.9,80.6,311,80.6,309.8z M58.7,309.7L58.7,309.7
		c0-1.2,1-2.2,2.1-2.2h16.1c1.2,0,2.1,1,2.1,2.1v0.1c0,1.2-0.9,2.1-2.1,2.1H60.8C59.6,311.8,58.7,310.9,58.7,309.7z M248.1,308
		L248.1,308c0-1.2,1-2.2,2.1-2.2h25.5c1.2,0,2.1,1,2.1,2.1v0.1c0,1.2-1,2.1-2.1,2.1h-25.5C249.1,310.1,248.1,309.1,248.1,308z
		 M224.7,307.9L224.7,307.9c0-1.2,1-2.2,2.1-2.2H244c1.2,0,2.1,1,2.1,2.1v0.1c0,1.2-1,2.1-2.1,2.1h-17.1
		C225.7,310,224.7,309.1,224.7,307.9z M191.7,307.7L191.7,307.7c0-1.2,1-2.2,2.1-2.2h24.5c1.2,0,2.1,1,2.1,2.1v0.1
		c0,1.2-1,2.1-2.1,2.1h-24.5C192.7,309.9,191.7,308.9,191.7,307.7z M163.6,307.6L163.6,307.6c0-1.2,0.9-2.2,2.1-2.2h20.8
		c1.2,0,2.1,1,2.1,2.1v0.1c0,1.2-1,2.1-2.1,2.1h-20.8C164.5,309.7,163.6,308.8,163.6,307.6z M376,307.3L376,307.3
		c0-1.2,1-2.2,2.1-2.2h17.1c1.2,0,2.1,1,2.1,2.1v0.1c0,1.2-0.9,2.1-2.1,2.1h-17.1C376.9,309.5,376,308.5,376,307.3z M299.8,307.2
		L299.8,307.2c0-1.2,1-2.2,2.1-2.2h24.5c1.2,0,2.1,1,2.1,2.1v0.1c0,1.2-1,2.1-2.1,2.1h-24.5C300.7,309.3,299.8,308.4,299.8,307.2z
		 M353,307.2L353,307.2c0-1.2,1-2.2,2.1-2.2h17.1c1.2,0,2.1,1,2.1,2.1v0.1c0,1.2-1,2.1-2.1,2.1h-17.1C354,309.3,353,308.4,353,307.2
		z M331.1,307.1L331.1,307.1c0-1.2,1-2.2,2.1-2.2h16.1c1.2,0,2.1,1,2.1,2.1v0.1c0,1.2-1,2.1-2.1,2.1h-16.1
		C332.1,309.2,331.1,308.2,331.1,307.1z M535.7,302.9L535.7,302.9c0-1.2,0.9-2.2,2.1-2.2h16.1c1.2,0,2.1,1,2.1,2.1v0.1
		c0,1.2-1,2.1-2.1,2.1h-16.1C536.6,305,535.7,304.1,535.7,302.9z M512.2,302.5L512.2,302.5c0-1.2,1-2.2,2.1-2.2h16.1
		c1.2,0,2.1,1,2.1,2.1v0.1c0,1.2-1,2.1-2.1,2.1h-16.1C513.1,304.6,512.2,303.7,512.2,302.5z M436.5,302.4L436.5,302.4
		c0-1.2,1-2.2,2.1-2.2h23.4c1.2,0,2.1,1,2.1,2.1v0.1c0,1.2-1,2.1-2.1,2.1h-23.4C437.5,304.5,436.5,303.6,436.5,302.4z M488.7,302.4
		L488.7,302.4c0-1.2,1-2.2,2.1-2.2H508c1.2,0,2.1,1,2.1,2.1v0.1c0,1.2-1,2.1-2.1,2.1h-17.2C489.7,304.5,488.7,303.6,488.7,302.4z
		 M466.8,302.2L466.8,302.2c0-1.2,1-2.2,2.1-2.2H485c1.2,0,2.1,0.9,2.1,2.1v0.1c0,1.2-1,2.1-2.1,2.1h-16.1
		C467.7,304.4,466.8,303.4,466.8,302.2z M112.9,300.4L112.9,300.4c0-1.2,1-2.2,2.1-2.2h25.5c1.2,0,2.1,1,2.1,2.1v0.1
		c0,1.2-1,2.1-2.1,2.1h-25.5C113.9,302.6,112.9,301.6,112.9,300.4z M89.6,300.3L89.6,300.3c0-1.2,1-2.2,2.1-2.2h17.1
		c1.2,0,2.1,1,2.1,2.1v0.1c0,1.2-1,2.1-2.1,2.1H91.7C90.5,302.5,89.6,301.5,89.6,300.3z M56.6,300.2L56.6,300.2c0-1.2,1-2.2,2.1-2.2
		h24.5c1.2,0,2.1,1,2.1,2.1v0.1c0,1.2-1,2.1-2.1,2.1H58.7C57.5,302.3,56.6,301.4,56.6,300.2z M28.4,300.1L28.4,300.1
		c0-1.2,0.9-2.2,2.1-2.2h20.8c1.2,0,2.1,1,2.1,2.1v0.1c0,1.2-1,2.1-2.1,2.1H30.5C29.3,302.2,28.4,301.2,28.4,300.1z M248.6,294.2
		L248.6,294.2c0-1.2,1-2.2,2.1-2.2h25.5c1.2,0,2.1,1,2.1,2.1v0.1c0,1.2-0.9,2.1-2.1,2.1h-25.5C249.6,296.4,248.6,295.4,248.6,294.2z
		 M225.3,294.2L225.3,294.2c0-1.2,1-2.2,2.1-2.2h17.1c1.2,0,2.1,0.9,2.1,2.1v0.1c0,1.2-0.9,2.1-2.1,2.1h-17.1
		C226.2,296.3,225.3,295.3,225.3,294.2z M192.3,294L192.3,294c0-1.2,1-2.2,2.1-2.2h24.4c1.2,0,2.1,1,2.1,2.1v0.1
		c0,1.2-1,2.1-2.1,2.1h-24.4C193.2,296.1,192.3,295.2,192.3,294z M163,293.9L163,293.9c0-1.2,0.9-2.2,2.1-2.2H187
		c1.2,0,2.1,1,2.1,2.1v0.1c0,1.2-0.9,2.1-2.1,2.1h-21.9C164,296,163,295.1,163,293.9z M377,293.3L377,293.3c0-1.2,1-2.2,2.1-2.2
		h17.1c1.2,0,2.1,1,2.1,2.1v0.1c0,1.2-1,2.1-2.1,2.1h-17.1C378,295.4,377,294.4,377,293.3z M354.1,293.1L354.1,293.1
		c0-1.2,1-2.2,2.1-2.2h17.1c1.2,0,2.1,1,2.1,2.1v0.1c0,1.2-1,2.1-2.1,2.1h-17.1C355,295.2,354.1,294.3,354.1,293.1z M521.1,293
		L521.1,293c0-1.2,1-2.2,2.1-2.2h25.5c1.2,0,2.1,1,2.1,2.1v0.1c0,1.2-1,2.1-2.1,2.1h-25.5C522,295.1,521.1,294.1,521.1,293z
		 M299.8,293L299.8,293c0-1.2,1-2.2,2.1-2.2H341c1.2,0,2.1,1,2.1,2.1v0.1c0,1.2-1,2.1-2.1,2.1h-39.1
		C300.7,295.1,299.8,294.1,299.8,293z M497.7,292.9L497.7,292.9c0-1.2,1-2.2,2.1-2.2H517c1.2,0,2.1,1,2.1,2.1v0.1
		c0,1.2-1,2.1-2.1,2.1h-17.1C498.6,295,497.7,294.1,497.7,292.9z M464.7,292.7L464.7,292.7c0-1.2,1-2.2,2.1-2.2h24.5
		c1.2,0,2.1,1,2.1,2.1v0.1c0,1.2-1,2.1-2.1,2.1h-24.5C465.6,294.9,464.7,293.9,464.7,292.7z M436.5,292.6L436.5,292.6
		c0-1.2,1-2.2,2.1-2.2h20.8c1.2,0,2.1,1,2.1,2.1v0.1c0,1.2-1,2.1-2.1,2.1h-20.8C437.5,294.7,436.5,293.8,436.5,292.6z M240.3,285
		L240.3,285c0-1.2,1-2.2,2.1-2.2h23.9c1.2,0,2.1,1,2.1,2.1v0.1c0,1.2-1,2.1-2.1,2.1h-23.9C241.2,287.1,240.3,286.2,240.3,285z
		 M217.3,284.9L217.3,284.9c0-1.2,1-2.2,2.1-2.2h17.1c1.2,0,2.1,1,2.1,2.1v0.1c0,1.2-1,2.1-2.1,2.1h-17.1
		C218.3,287,217.3,286,217.3,284.9z M163,284.7L163,284.7c0-1.2,0.9-2.2,2.1-2.2h39.1c1.2,0,2.1,1,2.1,2.1v0.1c0,1.2-1,2.1-2.1,2.1
		h-39.1C164,286.8,163,285.9,163,284.7z M113.5,284.6L113.5,284.6c0-1.2,0.9-2.2,2.1-2.2h25.5c1.2,0,2.1,0.9,2.1,2.1v0.1
		c0,1.2-1,2.1-2.1,2.1h-25.5C114.4,286.7,113.5,285.8,113.5,284.6z M90.1,284.5L90.1,284.5c0-1.2,1-2.2,2.1-2.2h17.1
		c1.2,0,2.1,0.9,2.1,2.1v0.1c0,1.2-1,2.1-2.1,2.1H92.2C91,286.6,90.1,285.7,90.1,284.5z M57.1,284.4L57.1,284.4c0-1.2,1-2.2,2.1-2.2
		h24.5c1.2,0,2.1,1,2.1,2.1v0.1c0,1.2-1,2.1-2.1,2.1H59.2C58,286.5,57.1,285.6,57.1,284.4z M398.4,284.4L398.4,284.4
		c0-1.2,0.9-2.2,2.1-2.2h15.6c1.2,0,2.1,1,2.1,2.1v0.1c0,1.2-0.9,2.1-2.1,2.1h-15.6C399.4,286.5,398.4,285.6,398.4,284.4z
		 M27.9,284.2L27.9,284.2c0-1.2,1-2.2,2.1-2.2h21.8c1.2,0,2.1,1,2.1,2.1v0.1c0,1.2-1,2.1-2.1,2.1H30
		C28.8,286.4,27.9,285.4,27.9,284.2z M374.9,284L374.9,284c0-1.2,1-2.2,2.1-2.2h17.1c1.2,0,2.1,1,2.1,2.1v0.1c0,1.2-1,2.1-2.1,2.1
		h-17.1C375.9,286.1,374.9,285.2,374.9,284z M299.8,283.9L299.8,283.9c0-1.2,1-2.2,2.1-2.2h23.4c1.2,0,2.1,1,2.1,2.1v0.1
		c0,1.2-1,2.1-2.1,2.1h-23.4C300.7,286,299.8,285,299.8,283.9z M352,283.9L352,283.9c0-1.2,1-2.2,2.1-2.2h17.1c1.2,0,2.1,1,2.1,2.1
		v0.1c0,1.2-1,2.1-2.1,2.1h-17.1C352.9,286,352,285,352,283.9z M330.1,283.7L330.1,283.7c0-1.2,0.9-2.2,2.1-2.2h16.1
		c1.2,0,2.1,1,2.1,2.1v0.1c0,1.2-1,2.1-2.1,2.1h-16.1C331,285.9,330.1,284.9,330.1,283.7z M521.6,277.2L521.6,277.2
		c0-1.2,0.9-2.2,2.1-2.2h25.5c1.2,0,2.1,1,2.1,2.1v0.1c0,1.2-1,2.1-2.1,2.1h-25.5C522.5,279.3,521.6,278.3,521.6,277.2z
		 M498.2,277.1L498.2,277.1c0-1.2,1-2.2,2.1-2.2h17.1c1.2,0,2.1,1,2.1,2.1v0.1c0,1.2-0.9,2.1-2.1,2.1h-17.1
		C499.2,279.2,498.2,278.3,498.2,277.1z M465.2,276.9L465.2,276.9c0-1.2,1-2.2,2.1-2.2h24.5c1.2,0,2.1,1,2.1,2.1v0.1
		c0,1.2-1,2.1-2.1,2.1h-24.5C466.2,279.1,465.2,278.1,465.2,276.9z M436,276.8L436,276.8c0-1.2,1-2.2,2.1-2.2H460
		c1.2,0,2.1,1,2.1,2.1v0.1c0,1.2-1,2.1-2.1,2.1h-21.8C436.9,278.9,436,278,436,276.8z M104.1,274.2L104.1,274.2c0-1.2,1-2.2,2.1-2.2
		h17.1c1.2,0,2.1,1,2.1,2.1v0.1c0,1.2-1,2.1-2.1,2.1h-17.1C105,276.3,104.1,275.4,104.1,274.2z M27.9,274L27.9,274
		c0-1.2,1-2.2,2.1-2.2h24.5c1.2,0,2.1,0.9,2.1,2.1v0.1c0,1.2-1,2.1-2.1,2.1H30C28.8,276.1,27.9,275.2,27.9,274z M81.1,274L81.1,274
		c0-1.2,0.9-2.2,2.1-2.2h17.1c1.2,0,2.1,0.9,2.1,2.1v0.1c0,1.2-1,2.1-2.1,2.1H83.2C82,276.1,81.1,275.2,81.1,274z M59.2,273.9
		L59.2,273.9c0-1.2,0.9-2.2,2.1-2.2h16.1c1.2,0,2.1,1,2.1,2.1v0.1c0,1.2-0.9,2.1-2.1,2.1H61.3C60.1,276,59.2,275.1,59.2,273.9z
		 M512.2,266.7L512.2,266.7c0-1.2,1-2.2,2.1-2.2h17.1c1.2,0,2.1,0.9,2.1,2.1v0.1c0,1.2-1,2.1-2.1,2.1h-17.1
		C513.1,268.9,512.2,267.9,512.2,266.7z M436,266.6L436,266.6c0-1.2,1-2.2,2.1-2.2h24.5c1.2,0,2.1,1,2.1,2.1v0.1
		c0,1.2-1,2.1-2.1,2.1h-24.5C436.9,268.7,436,267.8,436,266.6z M489.2,266.6L489.2,266.6c0-1.2,1-2.2,2.1-2.2h17.1
		c1.2,0,2.1,1,2.1,2.1v0.1c0,1.2-1,2.1-2.1,2.1h-17.1C490.2,268.7,489.2,267.8,489.2,266.6z M467.3,266.4L467.3,266.4
		c0-1.2,1-2.2,2.1-2.2h16.1c1.2,0,2.1,0.9,2.1,2.1v0.1c0,1.2-1,2.1-2.1,2.1h-16.1C468.3,268.6,467.3,267.6,467.3,266.4z
		 M105.1,260.1L105.1,260.1c0-1.2,1-2.2,2.1-2.2h17.1c1.2,0,2.1,1,2.1,2.1v0.1c0,1.2-1,2.1-2.1,2.1h-17.1
		C106.1,262.2,105.1,261.3,105.1,260.1z M82.1,259.9L82.1,259.9c0-1.2,1-2.2,2.1-2.2h17.1c1.2,0,2.1,1,2.1,2.1v0.1
		c0,1.2-1,2.1-2.1,2.1H84.3C83.1,262.1,82.1,261.1,82.1,259.9z M27.9,259.8L27.9,259.8c0-1.2,1-2.2,2.1-2.2h39.1
		c1.2,0,2.1,1,2.1,2.1v0.1c0,1.2-1,2.1-2.1,2.1H30C28.8,261.9,27.9,261,27.9,259.8z M513.2,252.6L513.2,252.6c0-1.2,1-2.2,2.1-2.2
		h17.2c1.2,0,2.1,1,2.1,2.1v0.1c0,1.2-1,2.1-2.1,2.1h-17.2C514.2,254.8,513.2,253.8,513.2,252.6z M490.3,252.5L490.3,252.5
		c0-1.2,1-2.2,2.1-2.2h17.1c1.2,0,2.1,1,2.1,2.1v0.1c0,1.2-1,2.1-2.1,2.1h-17.1C491.2,254.6,490.3,253.7,490.3,252.5z M436,252.4
		L436,252.4c0-1.2,1-2.2,2.1-2.2h39.1c1.2,0,2.1,1,2.1,2.1v0.1c0,1.2-1,2.1-2.1,2.1h-39.1C436.9,254.5,436,253.5,436,252.4z
		 M126.5,251.2L126.5,251.2c0-1.2,1-2.2,2.1-2.2h15.6c1.2,0,2.1,1,2.1,2.1v0.1c0,1.2-1,2.1-2.1,2.1h-15.6
		C127.5,253.3,126.5,252.4,126.5,251.2z M103,250.8L103,250.8c0-1.2,0.9-2.2,2.1-2.2h17.1c1.2,0,2.1,1,2.1,2.1v0.1
		c0,1.2-1,2.1-2.1,2.1h-17.1C104,253,103,252,103,250.8z M27.9,250.7L27.9,250.7c0-1.2,1-2.2,2.1-2.2h23.4c1.2,0,2.1,1,2.1,2.1v0.1
		c0,1.2-1,2.1-2.1,2.1H30C28.8,252.8,27.9,251.9,27.9,250.7z M80,250.7L80,250.7c0-1.2,1-2.2,2.1-2.2h17.1c1.2,0,2.1,1,2.1,2.1v0.1
		c0,1.2-0.9,2.1-2.1,2.1H82.2C81,252.8,80,251.9,80,250.7z M58.1,250.6L58.1,250.6c0-1.2,1-2.2,2.1-2.2h16.1c1.2,0,2.1,1,2.1,2.1
		v0.1c0,1.2-0.9,2.1-2.1,2.1H60.3C59.1,252.7,58.1,251.7,58.1,250.6z M534.6,243.8L534.6,243.8c0-1.2,1-2.2,2.1-2.2h15.6
		c1.2,0,2.1,1,2.1,2.1v0.1c0,1.2-1,2.1-2.1,2.1h-15.6C535.6,245.9,534.6,244.9,534.6,243.8z M511.1,243.4L511.1,243.4
		c0-1.2,1-2.2,2.1-2.2h17.1c1.2,0,2.1,1,2.1,2.1v0.1c0,1.2-1,2.1-2.1,2.1h-17.1C512.1,245.5,511.1,244.6,511.1,243.4z M436,243.3
		L436,243.3c0-1.2,1-2.2,2.1-2.2h23.4c1.2,0,2.1,1,2.1,2.1v0.1c0,1.2-1,2.1-2.1,2.1h-23.4C436.9,245.4,436,244.4,436,243.3z
		 M488.2,243.3L488.2,243.3c0-1.2,1-2.2,2.1-2.2h17.1c1.2,0,2.1,1,2.1,2.1v0.1c0,1.2-1,2.1-2.1,2.1h-17.1
		C489.1,245.4,488.2,244.4,488.2,243.3z M466.3,243.1L466.3,243.1c0-1.2,1-2.2,2.1-2.2h16.1c1.2,0,2.1,1,2.1,2.1v0.1
		c0,1.2-0.9,2.1-2.1,2.1h-16.1C467.2,245.2,466.3,244.3,466.3,243.1z M125.5,238.3L125.5,238.3c0-1.2,1-2.2,2.1-2.2h18.2
		c1.2,0,2.1,1,2.1,2.1v0.1c0,1.2-1,2.1-2.1,2.1h-18.2C126.4,240.4,125.5,239.5,125.5,238.3z M104.6,238.2L104.6,238.2
		c0-1.2,1-2.2,2.1-2.2h10.9c1.2,0,2.1,1,2.1,2.1v0.1c0,1.2-0.9,2.1-2.1,2.1h-10.9C105.5,240.3,104.6,239.3,104.6,238.2z M28.4,238
		L28.4,238c0-1.2,0.9-2.2,2.1-2.2H55c1.2,0,2.1,1,2.1,2.1v0.1c0,1.2-0.9,2.1-2.1,2.1H30.5C29.3,240.1,28.4,239.2,28.4,238z
		 M81.6,238L81.6,238c0-1.2,0.9-2.2,2.1-2.2h17.1c1.2,0,2.1,1,2.1,2.1v0.1c0,1.2-1,2.1-2.1,2.1H83.8C82.6,240.1,81.6,239.2,81.6,238
		z M59.7,237.9L59.7,237.9c0-1.2,1-2.2,2.1-2.2h16.1c1.2,0,2.1,1,2.1,2.1v0.1c0,1.2-1,2.1-2.1,2.1H61.8
		C60.6,240,59.7,239.1,59.7,237.9z M533.6,230.9L533.6,230.9c0-1.2,1-2.2,2.1-2.2h18.2c1.2,0,2.1,1,2.1,2.1v0.1c0,1.2-1,2.1-2.1,2.1
		h-18.2C534.6,233,533.6,232,533.6,230.9z M512.7,230.7L512.7,230.7c0-1.2,1-2.2,2.1-2.2h10.9c1.2,0,2.1,1,2.1,2.1v0.1
		c0,1.2-1,2.1-2.1,2.1h-10.9C513.7,232.9,512.7,231.9,512.7,230.7z M436.5,230.6L436.5,230.6c0-1.2,1-2.2,2.1-2.2h24.5
		c1.2,0,2.1,1,2.1,2.1v0.1c0,1.2-1,2.1-2.1,2.1h-24.5C437.5,232.7,436.5,231.8,436.5,230.6z M489.7,230.6L489.7,230.6
		c0-1.2,1-2.2,2.1-2.2H509c1.2,0,2.1,1,2.1,2.1v0.1c0,1.2-1,2.1-2.1,2.1h-17.1C490.7,232.7,489.7,231.8,489.7,230.6z M467.8,230.4
		L467.8,230.4c0-1.2,1-2.2,2.1-2.2h16.1c1.2,0,2.1,1,2.1,2.1v0.1c0,1.2-1,2.1-2.1,2.1H470C468.8,232.6,467.8,231.6,467.8,230.4z
		 M114,228.6L114,228.6c0-1.2,1-2.2,2.1-2.2h17.1c1.2,0,2.1,1,2.1,2.1v0.1c0,1.2-1,2.1-2.1,2.1h-17.1
		C114.9,230.8,114,229.8,114,228.6z M90.6,228.5L90.6,228.5c0-1.2,1-2.2,2.1-2.2h17.1c1.2,0,2.1,1,2.1,2.1v0.1
		c0,1.2-0.9,2.1-2.1,2.1H92.7C91.6,230.7,90.6,229.7,90.6,228.5z M57.6,228.4L57.6,228.4c0-1.2,1-2.2,2.1-2.2h24.5
		c1.2,0,2.1,1,2.1,2.1v0.1c0,1.2-1,2.1-2.1,2.1H59.7C58.6,230.5,57.6,229.6,57.6,228.4z M28.4,228.3L28.4,228.3
		c0-1.2,0.9-2.2,2.1-2.2h21.9c1.2,0,2.1,1,2.1,2.1v0.1c0,1.2-1,2.1-2.1,2.1H30.5C29.3,230.4,28.4,229.4,28.4,228.3z M522.1,221.2
		L522.1,221.2c0-1.2,1-2.2,2.1-2.2h17.1c1.2,0,2.1,1,2.1,2.1v0.1c0,1.2-1,2.1-2.1,2.1h-17.1C523.1,223.3,522.1,222.4,522.1,221.2z
		 M498.7,221.1L498.7,221.1c0-1.2,1-2.2,2.1-2.2H518c1.2,0,2.1,1,2.1,2.1v0.1c0,1.2-1,2.1-2.1,2.1h-17.1
		C499.7,223.2,498.7,222.3,498.7,221.1z M465.7,220.9L465.7,220.9c0-1.2,1-2.2,2.1-2.2h24.5c1.2,0,2.1,1,2.1,2.1v0.1
		c0,1.2-1,2.1-2.1,2.1h-24.5C466.7,223.1,465.7,222.1,465.7,220.9z M436.5,220.8L436.5,220.8c0-1.2,1-2.2,2.1-2.2h21.8
		c1.2,0,2.1,1,2.1,2.1v0.1c0,1.2-1,2.1-2.1,2.1h-21.8C437.5,222.9,436.5,222,436.5,220.8z M127.5,210.5L127.5,210.5
		c0-1.2,1-2.2,2.1-2.2h16.1c1.2,0,2.1,1,2.1,2.1v0.1c0,1.2-1,2.1-2.1,2.1h-16.1C128.5,212.6,127.5,211.7,127.5,210.5z M104.1,210.1
		L104.1,210.1c0-1.2,1-2.2,2.1-2.2h16.1c1.2,0,2.1,1,2.1,2.1v0.1c0,1.2-1,2.1-2.1,2.1h-16.1C105,212.3,104.1,211.3,104.1,210.1z
		 M28.4,210L28.4,210c0-1.2,0.9-2.2,2.1-2.2h23.4c1.2,0,2.1,1,2.1,2.1v0.1c0,1.2-1,2.1-2.1,2.1H30.5C29.3,212.1,28.4,211.1,28.4,210
		z M80.6,210L80.6,210c0-1.2,0.9-2.2,2.1-2.2h17.2c1.2,0,2.1,1,2.1,2.1v0.1c0,1.2-0.9,2.1-2.1,2.1H82.7
		C81.5,212.1,80.6,211.1,80.6,210z M58.7,209.9L58.7,209.9c0-1.2,1-2.2,2.1-2.2h16.1c1.2,0,2.1,1,2.1,2.1v0.1c0,1.2-0.9,2.1-2.1,2.1
		H60.8C59.6,212,58.7,211,58.7,209.9z M535.7,203.1L535.7,203.1c0-1.2,0.9-2.2,2.1-2.2h16.1c1.2,0,2.1,1,2.1,2.1v0.1
		c0,1.2-1,2.1-2.1,2.1h-16.1C536.6,205.2,535.7,204.2,535.7,203.1z M512.2,202.7L512.2,202.7c0-1.2,1-2.2,2.1-2.2h16.1
		c1.2,0,2.1,1,2.1,2.1v0.1c0,1.2-1,2.1-2.1,2.1h-16.1C513.1,204.8,512.2,203.9,512.2,202.7z M436.5,202.5L436.5,202.5
		c0-1.2,1-2.2,2.1-2.2h23.4c1.2,0,2.1,1,2.1,2.1v0.1c0,1.2-1,2.1-2.1,2.1h-23.4C437.5,204.7,436.5,203.7,436.5,202.5z M488.7,202.5
		L488.7,202.5c0-1.2,1-2.2,2.1-2.2H508c1.2,0,2.1,1,2.1,2.1v0.1c0,1.2-1,2.1-2.1,2.1h-17.2C489.7,204.7,488.7,203.7,488.7,202.5z
		 M466.8,202.4L466.8,202.4c0-1.2,1-2.2,2.1-2.2H485c1.2,0,2.1,1,2.1,2.1v0.1c0,1.2-1,2.1-2.1,2.1h-16.1
		C467.7,204.5,466.8,203.6,466.8,202.4z M112.9,200.6L112.9,200.6c0-1.2,1-2.2,2.1-2.2h25.5c1.2,0,2.1,1,2.1,2.1v0.1
		c0,1.2-1,2.1-2.1,2.1h-25.5C113.9,202.7,112.9,201.8,112.9,200.6z M89.6,200.5L89.6,200.5c0-1.2,1-2.2,2.1-2.2h17.1
		c1.2,0,2.1,1,2.1,2.1v0.1c0,1.2-1,2.1-2.1,2.1H91.7C90.5,202.6,89.6,201.7,89.6,200.5z M56.6,200.4L56.6,200.4c0-1.2,1-2.2,2.1-2.2
		h24.5c1.2,0,2.1,1,2.1,2.1v0.1c0,1.2-1,2.1-2.1,2.1H58.7C57.5,202.5,56.6,201.5,56.6,200.4z M28.4,200.2L28.4,200.2
		c0-1.2,0.9-2.2,2.1-2.2h20.8c1.2,0,2.1,1,2.1,2.1v0.1c0,1.2-1,2.1-2.1,2.1H30.5C29.3,202.3,28.4,201.4,28.4,200.2z M521.1,193.1
		L521.1,193.1c0-1.2,1-2.2,2.1-2.2h25.5c1.2,0,2.1,1,2.1,2.1v0.1c0,1.2-1,2.1-2.1,2.1h-25.5C522,195.3,521.1,194.3,521.1,193.1z
		 M497.7,193.1L497.7,193.1c0-1.2,1-2.2,2.1-2.2H517c1.2,0,2.1,1,2.1,2.1v0.1c0,1.2-1,2.1-2.1,2.1h-17.1
		C498.6,195.2,497.7,194.2,497.7,193.1z M464.7,192.9L464.7,192.9c0-1.2,1-2.2,2.1-2.2h24.5c1.2,0,2.1,1,2.1,2.1v0.1
		c0,1.2-1,2.1-2.1,2.1h-24.5C465.6,195,464.7,194.1,464.7,192.9z M436.5,192.8L436.5,192.8c0-1.2,1-2.2,2.1-2.2h20.8
		c1.2,0,2.1,1,2.1,2.1v0.1c0,1.2-1,2.1-2.1,2.1h-20.8C437.5,194.9,436.5,193.9,436.5,192.8z M113.5,186.9L113.5,186.9
		c0-1.2,0.9-2.2,2.1-2.2h25.5c1.2,0,2.1,0.9,2.1,2.1v0.1c0,1.2-1,2.1-2.1,2.1h-25.5C114.4,189,113.5,188,113.5,186.9z M90.1,186.8
		L90.1,186.8c0-1.2,1-2.2,2.1-2.2h17.1c1.2,0,2.1,1,2.1,2.1v0.1c0,1.2-1,2.1-2.1,2.1H92.2C91,188.9,90.1,187.9,90.1,186.8z
		 M57.1,186.6L57.1,186.6c0-1.2,1-2.2,2.1-2.2h24.5c1.2,0,2.1,1,2.1,2.1v0.1c0,1.2-1,2.1-2.1,2.1H59.2
		C58,188.8,57.1,187.8,57.1,186.6z M27.9,186.5L27.9,186.5c0-1.2,1-2.2,2.1-2.2h21.8c1.2,0,2.1,1,2.1,2.1v0.1c0,1.2-1,2.1-2.1,2.1
		H30C28.8,188.6,27.9,187.7,27.9,186.5z M521.6,179.4L521.6,179.4c0-1.2,0.9-2.2,2.1-2.2h25.5c1.2,0,2.1,1,2.1,2.1v0.1
		c0,1.2-1,2.1-2.1,2.1h-25.5C522.5,181.6,521.6,180.6,521.6,179.4z M498.2,179.3L498.2,179.3c0-1.2,1-2.2,2.1-2.2h17.1
		c1.2,0,2.1,1,2.1,2.1v0.1c0,1.2-0.9,2.1-2.1,2.1h-17.1C499.2,181.5,498.2,180.5,498.2,179.3z M465.2,179.2L465.2,179.2
		c0-1.2,1-2.2,2.1-2.2h24.5c1.2,0,2.1,1,2.1,2.1v0.1c0,1.2-1,2.1-2.1,2.1h-24.5C466.2,181.3,465.2,180.4,465.2,179.2z M436,179.1
		L436,179.1c0-1.2,1-2.2,2.1-2.2H460c1.2,0,2.1,1,2.1,2.1v0.1c0,1.2-1,2.1-2.1,2.1h-21.8C436.9,181.2,436,180.2,436,179.1z
		 M105.1,177.6L105.1,177.6c0-1.2,1-2.2,2.1-2.2h23.9c1.2,0,2.1,1,2.1,2.1v0.1c0,1.2-1,2.1-2.1,2.1h-23.9
		C106.1,179.8,105.1,178.8,105.1,177.6z M82.1,177.5L82.1,177.5c0-1.2,1-2.2,2.1-2.2h17.1c1.2,0,2.1,1,2.1,2.1v0.1
		c0,1.2-1,2.1-2.1,2.1H84.3C83.1,179.6,82.1,178.6,82.1,177.5z M27.9,177.3L27.9,177.3c0-1.2,1-2.2,2.1-2.2h39.1
		c1.2,0,2.1,1,2.1,2.1v0.1c0,1.2-1,2.1-2.1,2.1H30C28.8,179.5,27.9,178.5,27.9,177.3z M513.2,170.2L513.2,170.2c0-1.2,1-2.2,2.1-2.2
		h23.9c1.2,0,2.1,1,2.1,2.1v0.1c0,1.2-1,2.1-2.1,2.1h-23.9C514.2,172.3,513.2,171.4,513.2,170.2z M490.3,170L490.3,170
		c0-1.2,1-2.2,2.1-2.2h17.1c1.2,0,2.1,1,2.1,2.1v0.1c0,1.2-1,2.1-2.1,2.1h-17.1C491.2,172.2,490.3,171.2,490.3,170z M436,169.9
		L436,169.9c0-1.2,1-2.2,2.1-2.2h39.1c1.2,0,2.1,1,2.1,2.1v0.1c0,1.2-1,2.1-2.1,2.1h-39.1C436.9,172,436,171.1,436,169.9z
		 M112.4,165.6L112.4,165.6c0-1.2,1-2.2,2.1-2.2H140c1.2,0,2.1,0.9,2.1,2.1v0.1c0,1.2-0.9,2.1-2.1,2.1h-25.5
		C113.4,167.8,112.4,166.8,112.4,165.6z M89,165.5L89,165.5c0-1.2,1-2.2,2.1-2.2h17.1c1.2,0,2.1,1,2.1,2.1v0.1c0,1.2-1,2.1-2.1,2.1
		H91.2C90,167.7,89,166.7,89,165.5z M56,165.4L56,165.4c0-1.2,1-2.2,2.1-2.2h24.5c1.2,0,2.1,1,2.1,2.1v0.1c0,1.2-1,2.1-2.1,2.1H58.2
		C57,167.5,56,166.6,56,165.4z M27.9,165.3L27.9,165.3c0-1.2,1-2.2,2.1-2.2h20.8c1.2,0,2.1,1,2.1,2.1v0.1c0,1.2-1,2.1-2.1,2.1H30
		C28.8,167.4,27.9,166.4,27.9,165.3z M520.5,158.2L520.5,158.2c0-1.2,1-2.2,2.1-2.2h25.5c1.2,0,2.1,1,2.1,2.1v0.1
		c0,1.2-0.9,2.1-2.1,2.1h-25.5C521.5,160.3,520.5,159.4,520.5,158.2z M497.2,158.1L497.2,158.1c0-1.2,0.9-2.2,2.1-2.2h17.1
		c1.2,0,2.1,1,2.1,2.1v0.1c0,1.2-1,2.1-2.1,2.1h-17.1C498.1,160.2,497.2,159.3,497.2,158.1z M464.2,157.9L464.2,157.9
		c0-1.2,0.9-2.2,2.1-2.2h24.5c1.2,0,2.1,1,2.1,2.1v0.1c0,1.2-0.9,2.1-2.1,2.1h-24.5C465.1,160.1,464.2,159.1,464.2,157.9z
		 M436,157.8L436,157.8c0-1.2,1-2.2,2.1-2.2h20.8c1.2,0,2.1,1,2.1,2.1v0.1c0,1.2-1,2.1-2.1,2.1h-20.8C436.9,159.9,436,159,436,157.8
		z M104.6,155.2L104.6,155.2c0-1.2,1-2.2,2.1-2.2h17.1c1.2,0,2.1,1,2.1,2.1v0.1c0,1.2-1,2.1-2.1,2.1h-17.1
		C105.5,157.3,104.6,156.4,104.6,155.2z M28.4,155L28.4,155c0-1.2,0.9-2.2,2.1-2.2H55c1.2,0,2.1,1,2.1,2.1v0.1
		c0,1.2-0.9,2.1-2.1,2.1H30.5C29.3,157.2,28.4,156.2,28.4,155z M81.6,155L81.6,155c0-1.2,0.9-2.2,2.1-2.2h17.1c1.2,0,2.1,1,2.1,2.1
		v0.1c0,1.2-1,2.1-2.1,2.1H83.8C82.6,157.2,81.6,156.2,81.6,155z M59.7,154.9L59.7,154.9c0-1.2,1-2.2,2.1-2.2h16.1
		c1.2,0,2.1,1,2.1,2.1v0.1c0,1.2-1,2.1-2.1,2.1H61.8C60.6,157,59.7,156.1,59.7,154.9z M512.7,147.7L512.7,147.7c0-1.2,1-2.2,2.1-2.2
		H532c1.2,0,2.1,0.9,2.1,2.1v0.1c0,1.2-1,2.1-2.1,2.1h-17.1C513.7,149.9,512.7,148.9,512.7,147.7z M436.5,147.6L436.5,147.6
		c0-1.2,1-2.2,2.1-2.2h24.5c1.2,0,2.1,1,2.1,2.1v0.1c0,1.2-1,2.1-2.1,2.1h-24.5C437.5,149.7,436.5,148.8,436.5,147.6z M489.7,147.6
		L489.7,147.6c0-1.2,1-2.2,2.1-2.2H509c1.2,0,2.1,1,2.1,2.1v0.1c0,1.2-1,2.1-2.1,2.1h-17.1C490.7,149.7,489.7,148.8,489.7,147.6z
		 M467.8,147.4L467.8,147.4c0-1.2,1-2.2,2.1-2.2h16.1c1.2,0,2.1,1,2.1,2.1v0.1c0,1.2-1,2.1-2.1,2.1H470
		C468.8,149.6,467.8,148.6,467.8,147.4z M103.5,142.8L103.5,142.8c0-1.2,0.9-2.2,2.1-2.2h17.1c1.2,0,2.1,1,2.1,2.1v0.1
		c0,1.2-1,2.1-2.1,2.1h-17.1C104.5,144.9,103.5,144,103.5,142.8z M28.4,142.7L28.4,142.7c0-1.2,0.9-2.2,2.1-2.2h23.4
		c1.2,0,2.1,1,2.1,2.1v0.1c0,1.2-1,2.1-2.1,2.1H30.5C29.3,144.8,28.4,143.8,28.4,142.7z M80.6,142.7L80.6,142.7
		c0-1.2,0.9-2.2,2.1-2.2h17.2c1.2,0,2.1,1,2.1,2.1v0.1c0,1.2-0.9,2.1-2.1,2.1H82.7C81.5,144.8,80.6,143.8,80.6,142.7z M58.7,142.5
		L58.7,142.5c0-1.2,1-2.2,2.1-2.2h16.1c1.2,0,2.1,1,2.1,2.1v0.1c0,1.2-0.9,2.1-2.1,2.1H60.8C59.6,144.6,58.7,143.7,58.7,142.5z
		 M511.7,135.4L511.7,135.4c0-1.2,1-2.2,2.1-2.2h15.8c1.1,1,2.2,2.1,3.3,3.1c-0.3,0.7-1.1,1.2-1.9,1.2h-17.1
		C512.6,137.5,511.7,136.5,511.7,135.4z M436.5,135.2L436.5,135.2c0-1.2,1-2.2,2.1-2.2h23.4c1.2,0,2.1,1,2.1,2.1v0.1
		c0,1.2-1,2.1-2.1,2.1h-23.4C437.5,137.3,436.5,136.4,436.5,135.2z M488.7,135.2L488.7,135.2c0-1.2,1-2.2,2.1-2.2H508
		c1.2,0,2.1,1,2.1,2.1v0.1c0,1.2-1,2.1-2.1,2.1h-17.2C489.7,137.3,488.7,136.4,488.7,135.2z M466.8,135.1L466.8,135.1
		c0-1.2,1-2.2,2.1-2.2H485c1.2,0,2.1,1,2.1,2.1v0.1c0,1.2-1,2.1-2.1,2.1h-16.1C467.7,137.2,466.8,136.3,466.8,135.1z M112.9,133.3
		L112.9,133.3c0-1.2,1-2.2,2.1-2.2h25.5c1.2,0,2.1,1,2.1,2.1v0.1c0,1.2-1,2.1-2.1,2.1h-25.5C113.9,135.4,112.9,134.4,112.9,133.3z
		 M89.6,133.2L89.6,133.2c0-1.2,1-2.2,2.1-2.2h17.1c1.2,0,2.1,1,2.1,2.1v0.1c0,1.2-1,2.1-2.1,2.1H91.7
		C90.5,135.3,89.6,134.4,89.6,133.2z M56.6,133L56.6,133c0-1.2,1-2.2,2.1-2.2h24.5c1.2,0,2.1,0.9,2.1,2.1v0.1c0,1.2-1,2.1-2.1,2.1
		H58.7C57.5,135.1,56.6,134.2,56.6,133z M28.4,132.9L28.4,132.9c0-1.2,0.9-2.2,2.1-2.2h20.8c1.2,0,2.1,1,2.1,2.1v0.1
		c0,1.2-1,2.1-2.1,2.1H30.5C29.3,135,28.4,134.1,28.4,132.9z M521.1,125.8L521.1,125.8c0-0.2,0-0.4,0-0.5c1,0.9,1.9,1.8,2.9,2.7
		h-0.8C522,127.9,521.1,127,521.1,125.8z M497.7,125.7L497.7,125.7c0-1.2,1-2.2,2.1-2.2H517c1.2,0,2.1,1,2.1,2.1v0.1
		c0,1.2-1,2.1-2.1,2.1h-17.1C498.6,127.9,497.7,126.9,497.7,125.7z M464.7,125.6L464.7,125.6c0-1.2,1-2.2,2.1-2.2h24.5
		c1.2,0,2.1,1,2.1,2.1v0.1c0,1.2-1,2.1-2.1,2.1h-24.5C465.6,127.7,464.7,126.8,464.7,125.6z M436.5,125.5L436.5,125.5
		c0-1.2,1-2.2,2.1-2.2h20.8c1.2,0,2.1,1,2.1,2.1v0.1c0,1.2-1,2.1-2.1,2.1h-20.8C437.5,127.6,436.5,126.6,436.5,125.5z M104.6,124
		L104.6,124c0-1.2,1-2.2,2.1-2.2h17.1c1.2,0,2.1,1,2.1,2.1v0.1c0,1.2-1,2.1-2.1,2.1h-17.1C105.5,126.1,104.6,125.2,104.6,124z
		 M81.6,123.9L81.6,123.9c0-1.2,0.9-2.2,2.1-2.2h17.1c1.2,0,2.1,0.9,2.1,2.1v0.1c0,1.2-1,2.1-2.1,2.1H83.8
		C82.6,126,81.6,125,81.6,123.9z M43.4,123.7L43.4,123.7c0-1.2,1-2.2,2.1-2.2h32.4c1.2,0,2.1,1,2.1,2.1v0.1c0,1.2-1,2.1-2.1,2.1
		H45.5C44.4,125.9,43.4,124.9,43.4,123.7z M489.7,116.4L489.7,116.4c0-1.2,1-2.2,2.1-2.2h17c0.4,0.4,0.8,0.7,2.3,2.1
		c-0.2-1.1,0-0.5,0,0.1v0.1c0,1.2-1,2.1-2.1,2.1h-17.1C490.7,118.6,489.7,117.6,489.7,116.4z M451.5,116.3L451.5,116.3
		c0-1.2,1-2.2,2.1-2.2h32.4c1.2,0,2.1,0.9,2.1,2.1v0.1c0,1.2-1,2.1-2.1,2.1h-32.4C452.5,118.4,451.5,117.5,451.5,116.3z M30.1,111.6
		V109c0-0.7,0.6-1.3,1.3-1.3h8.3c0.7,0,1.3,0.6,1.3,1.3v2.6c0,0.7-0.6,1.3-1.3,1.3h-8.3C30.7,112.9,30.1,112.3,30.1,111.6z
		 M42.9,111.6V109c0-0.7,0.6-1.3,1.3-1.3h4.7c0.7,0,1.3,0.6,1.3,1.3v2.6c0,0.7-0.6,1.3-1.3,1.3h-4.7
		C43.5,112.9,42.9,112.3,42.9,111.6z M52.1,111.6V109c0-0.7,0.6-1.3,1.3-1.3h4.7c0.7,0,1.3,0.6,1.3,1.3v2.6c0,0.7-0.6,1.3-1.3,1.3
		h-4.7C52.7,112.9,52.1,112.3,52.1,111.6z M60.3,111.6V109c0-0.7,0.6-1.3,1.3-1.3H70c0.7,0,1.3,0.6,1.3,1.3v2.6
		c0,0.7-0.6,1.3-1.3,1.3h-8.4C60.9,112.9,60.3,112.3,60.3,111.6z M73.1,111.6V109c0-0.7,0.6-1.3,1.3-1.3h7.4c0.7,0,1.3,0.6,1.3,1.3
		v2.6c0,0.7-0.6,1.3-1.3,1.3h-7.4C73.7,112.9,73.1,112.3,73.1,111.6z"/>
	<rect x="30.5" y="84.8" fill-rule="evenodd" clip-rule="evenodd" fill="#B8B8B8" width="421.7" height="2.1"/>
	<rect x="30.5" y="91.6" fill-rule="evenodd" clip-rule="evenodd" fill="#B8B8B8" width="421.7" height="3.1"/>
	<linearGradient id="SVGID_30_" gradientUnits="userSpaceOnUse" x1="435.9985" y1="70.5823" x2="259.5943" y2="71.1057">
		<stop  offset="0" style="stop-color:#858585"/>
		<stop  offset="0.15" style="stop-color:#C2C2C2"/>
		<stop  offset="1" style="stop-color:#ABABAB"/>
	</linearGradient>
	<path fill-rule="evenodd" clip-rule="evenodd" fill="url(#SVGID_30_)" d="M349.6,75.9L349.6,75.9c0-1.2,0.9-2.2,2-2.2h16.8
		c1.1,0,2,1,2,2.1v0.1c0,1.2-0.9,2.1-2,2.1h-16.8C350.5,78,349.6,77,349.6,75.9z M451.1,75.9L451.1,75.9c0-1.2,0.9-2.2,2-2.2h20.1
		c1.1,0,2,1,2,2.1v0.1c0,1.2-0.9,2.1-2,2.1H453C452,78,451.1,77,451.1,75.9z M421.7,75.7L421.7,75.7c0-1.2,0.9-2.2,2-2.2h22.5
		c1.1,0,2,1,2,2.1v0.1c0,1.2-0.9,2.1-2,2.1h-22.5C422.6,77.8,421.7,76.9,421.7,75.7z M330.3,75.7L330.3,75.7c0-1.2,0.9-2.2,2-2.2h10
		c1.1,0,2,1,2,2.1v0.1c0,1.2-0.9,2.1-2,2.1h-10C331.2,77.8,330.3,76.9,330.3,75.7z M398.1,75.6L398.1,75.6c0-1.2,0.9-2.2,2-2.2h15.8
		c1.1,0,2,0.9,2,2.1v0.1c0,1.2-0.9,2.1-2,2.1H400C398.9,77.7,398.1,76.7,398.1,75.6z M260.1,75.6L260.1,75.6c0-1.2,0.9-2.2,2-2.2
		h22.5c1.1,0,2,1,2,2.1v0.1c0,1.2-0.9,2.1-2,2.1h-22.5C261,77.7,260.1,76.7,260.1,75.6z M309.2,75.6L309.2,75.6c0-1.2,0.9-2.2,2-2.2
		h15.8c1.1,0,2,1,2,2.1v0.1c0,1.2-0.9,2.1-2,2.1h-15.8C310.1,77.7,309.2,76.7,309.2,75.6z M376.5,75.5L376.5,75.5
		c0-1.2,0.9-2.2,2-2.2h15.8c1.1,0,2,0.9,2,2.1v0.1c0,1.2-0.9,2.1-2,2.1h-15.8C377.4,77.6,376.5,76.6,376.5,75.5z M289,75.4L289,75.4
		c0-1.2,0.9-2.2,2-2.2h14.8c1.1,0,2,1,2,2.1v0.1c0,1.2-0.9,2.1-2,2.1h-14.8C289.9,77.5,289,76.6,289,75.4z M427.5,66.2L427.5,66.2
		c0-1.2,0.9-2.2,2-2.2h14.8c1.1,0,2,1,2,2.1v0.1c0,1.2-0.9,2.1-2,2.1h-14.8C428.4,68.4,427.5,67.4,427.5,66.2z M339,66.2L339,66.2
		c0-1.2,0.9-2.2,2-2.2h15.8c1.1,0,2,1,2,2.1v0.1c0,1.2-0.9,2.1-2,2.1H341C339.9,68.3,339,67.3,339,66.2z M406.4,66.1L406.4,66.1
		c0-1.2,0.9-2.2,2-2.2h15.8c1.1,0,2,1,2,2.1v0.1c0,1.2-0.9,2.1-2,2.1h-15.8C407.2,68.2,406.4,67.3,406.4,66.1z M448.7,66.1
		L448.7,66.1c0-1.2,0.9-2.2,2-2.2h22.5c1.1,0,2,1,2,2.1v0.1c0,1.2-0.9,2.1-2,2.1h-22.5C449.6,68.2,448.7,67.3,448.7,66.1z
		 M317.5,66.1L317.5,66.1c0-1.2,0.9-2.2,2-2.2h15.8c1.1,0,2,1,2,2.1v0.1c0,1.2-0.9,2.1-2,2.1h-15.8
		C318.3,68.2,317.5,67.2,317.5,66.1z M391,65.9L391,65.9c0-1.2,0.9-2.2,2-2.2h10c1.1,0,2,0.9,2,2.1v0.1c0,1.2-0.9,2.1-2,2.1h-10
		C391.8,68.1,391,67.1,391,65.9z M287.1,65.9L287.1,65.9c0-1.2,0.9-2.2,2-2.2h22.5c1.1,0,2,1,2,2.1v0.1c0,1.2-0.9,2.1-2,2.1H289
		C287.9,68.1,287.1,67.1,287.1,65.9z M260.1,65.8L260.1,65.8c0-1.2,0.9-2.2,2-2.2h20.1c1.1,0,1.9,0.9,1.9,2.1v0.1
		c0,1.2-0.9,2.1-1.9,2.1h-20.1C261,67.9,260.1,67,260.1,65.8z M365,65.8L365,65.8c0-1.2,0.9-2.2,2-2.2h16.8c1.1,0,2,0.9,2,2.1v0.1
		c0,1.2-0.9,2.1-2,2.1h-16.8C365.9,67.9,365,67,365,65.8z"/>
	<linearGradient id="SVGID_31_" gradientUnits="userSpaceOnUse" x1="504.8242" y1="85.8682" x2="439.6639" y2="157.343">
		<stop  offset="0" style="stop-color:#C7C4C4"/>
		<stop  offset="0.62" style="stop-color:#F7F7F7"/>
		<stop  offset="1" style="stop-color:#E8E8E8"/>
	</linearGradient>
	<path fill-rule="evenodd" clip-rule="evenodd" fill="url(#SVGID_31_)" d="M415.3,22c29,47.4,15.3,92,11.3,133.4
		c54.5-21.2,102-11.8,144.5,19.8C532.7,106.8,484.4,67.7,415.3,22z"/>
	<path fill="#ADADAD" d="M27.6,25.5h13.7l31,38V34.2c0-3.1-0.4-5.1-1-5.8c-0.9-1-2.4-1.6-4.4-1.6h-1.8v-1.4h17.6v1.4h-1.8
		c-2.1,0-3.7,0.6-4.5,1.9c-0.6,0.8-0.8,2.6-0.8,5.5v42.7h-1.4L40.8,36.1v31.2c0,3.1,0.3,5.1,1,5.8c1,1,2.4,1.6,4.4,1.6H48v1.4H30.4
		v-1.4h1.8c2.2,0,3.7-0.6,4.6-1.9c0.5-0.8,0.8-2.6,0.8-5.5V32.1c-1.5-1.7-2.6-2.9-3.3-3.4c-0.8-0.6-1.9-1.1-3.3-1.5
		c-0.7-0.2-1.8-0.3-3.3-0.3V25.5z"/>
	<path fill="#ADADAD" d="M99.8,28.2v20h11.1c2.9,0,4.8-0.4,5.8-1.3c1.3-1.1,2-3.2,2.2-6.1h1.4v17.6h-1.4c-0.3-2.5-0.7-4-1-4.7
		c-0.4-0.9-1.2-1.6-2.2-2.1c-1-0.5-2.6-0.7-4.7-0.7H99.8v16.7c0,2.2,0.1,3.6,0.3,4.1c0.2,0.5,0.5,0.9,1,1.1c0.5,0.3,1.4,0.4,2.8,0.4
		h8.6c2.9,0,4.9-0.2,6.2-0.6c1.3-0.4,2.5-1.2,3.7-2.4c1.5-1.5,3.1-3.9,4.8-7h1.5l-4.4,12.7h-39v-1.4h1.8c1.2,0,2.3-0.3,3.4-0.9
		c0.8-0.4,1.3-1,1.6-1.8c0.3-0.8,0.4-2.4,0.4-4.9V34.3c0-3.2-0.3-5.2-1-5.9c-0.9-1-2.4-1.5-4.5-1.5h-1.8v-1.4h39l0.6,11.1h-1.5
		c-0.5-2.7-1.1-4.5-1.7-5.5c-0.6-1-1.6-1.8-2.8-2.3c-1-0.4-2.8-0.6-5.3-0.6H99.8z"/>
	<path fill="#ADADAD" d="M202.1,25.5v1.4c-1.3,0-2.4,0.2-3.2,0.7c-0.8,0.5-1.6,1.4-2.4,2.6c-0.5,0.9-1.3,3-2.4,6.2l-14.1,40.8h-1.5
		L167,44.9l-11.5,32.4h-1.3l-15-42c-1.1-3.1-1.8-5-2.1-5.6c-0.5-0.9-1.2-1.7-2-2.1c-0.9-0.5-2-0.7-3.5-0.7v-1.4h18.8v1.4h-0.9
		c-1.3,0-2.3,0.3-3,0.9c-0.7,0.6-1.1,1.3-1.1,2.2c0,0.9,0.6,2.9,1.6,6l10,28.4l8.4-24.2l-1.5-4.2l-1.2-3.4c-0.5-1.2-1.1-2.3-1.8-3.3
		c-0.3-0.5-0.7-0.9-1.2-1.2c-0.6-0.5-1.2-0.8-1.9-1c-0.5-0.1-1.2-0.2-2.2-0.2v-1.4h19.7v1.4h-1.3c-1.4,0-2.4,0.3-3.1,0.9
		c-0.6,0.6-1,1.4-1,2.4c0,1.3,0.6,3.5,1.7,6.6l9.7,27.5l9.6-27.9c1.1-3.1,1.6-5.2,1.6-6.4c0-0.6-0.2-1.1-0.5-1.6
		c-0.4-0.5-0.8-0.8-1.4-1c-0.9-0.3-2.2-0.5-3.7-0.5v-1.4H202.1z"/>
	<path fill="#ADADAD" d="M237.8,24.3v17.5h-1.4c-0.4-3.4-1.2-6-2.4-8c-1.2-2-2.8-3.6-4.9-4.7c-2.1-1.2-4.4-1.8-6.6-1.8
		c-2.6,0-4.7,0.8-6.4,2.4c-1.7,1.6-2.5,3.4-2.5,5.4c0,1.5,0.5,2.9,1.6,4.2c1.5,1.9,5.2,4.4,11,7.5c4.7,2.5,8,4.5,9.7,5.8
		c1.7,1.4,3.1,3,4,4.8c0.9,1.8,1.4,3.8,1.4,5.8c0,3.8-1.5,7.1-4.5,9.9c-3,2.8-6.8,4.2-11.5,4.2c-1.5,0-2.9-0.1-4.1-0.3
		c-0.8-0.1-2.4-0.6-4.8-1.4c-2.4-0.8-4-1.2-4.6-1.2c-0.6,0-1.1,0.2-1.5,0.6c-0.4,0.4-0.6,1.1-0.8,2.3H208V59.9h1.4
		c0.6,3.6,1.5,6.4,2.6,8.2c1.1,1.8,2.8,3.3,5,4.5c2.3,1.2,4.7,1.8,7.4,1.8c3.1,0,5.6-0.8,7.4-2.5c1.8-1.6,2.7-3.6,2.7-5.8
		c0-1.2-0.3-2.5-1-3.8c-0.7-1.3-1.8-2.5-3.2-3.5c-1-0.7-3.6-2.3-8-4.8c-4.3-2.4-7.4-4.4-9.2-5.8c-1.8-1.5-3.2-3-4.2-4.8
		c-1-1.8-1.4-3.7-1.4-5.8c0-3.6,1.4-6.8,4.2-9.4c2.8-2.6,6.3-3.9,10.6-3.9c2.7,0,5.5,0.7,8.6,2c1.4,0.6,2.4,0.9,3,0.9
		c0.6,0,1.2-0.2,1.6-0.6c0.4-0.4,0.7-1.2,1-2.3H237.8z"/>
	<linearGradient id="SVGID_32_" gradientUnits="userSpaceOnUse" x1="29.4301" y1="19.0051" x2="402.5941" y2="19.0051">
		<stop  offset="0" style="stop-color:#B8B8B8"/>
		<stop  offset="0.86" style="stop-color:#D9D9D9"/>
		<stop  offset="1" style="stop-color:#A8A8A8"/>
	</linearGradient>
	<path fill-rule="evenodd" clip-rule="evenodd" fill="url(#SVGID_32_)" d="M31,14.8v2.1h335.4c15.8,1.4,31.5,3.5,47.2,6.3v-2.1
		c-15.5-3-31.2-5.3-47.2-6.3H31z"/>
	<linearGradient id="SVGID_33_" gradientUnits="userSpaceOnUse" x1="423.4907" y1="35.1012" x2="261.6991" y2="34.0564">
		<stop  offset="0" style="stop-color:#ADADAD"/>
		<stop  offset="0.19" style="stop-color:#BFBFBF"/>
		<stop  offset="1" style="stop-color:#ADADAD"/>
	</linearGradient>
	<path fill-rule="evenodd" clip-rule="evenodd" fill="url(#SVGID_33_)" d="M259.6,37.5L259.6,37.5c0-1.2,0.9-2.2,2-2.2h20.1
		c1.1,0,2,1,2,2.1v0.1c0,1.2-0.9,2.1-2,2.1h-20.1C260.5,39.7,259.6,38.7,259.6,37.5z M364.5,37.5L364.5,37.5c0-1.2,0.9-2.2,2-2.2
		h16.8c1.1,0,2,1,2,2.1v0.1c0,1.2-0.9,2.1-2,2.1h-16.8C365.3,39.7,364.5,38.7,364.5,37.5z M286.5,37.4L286.5,37.4
		c0-1.2,0.9-2.2,2-2.2H311c1.1,0,2,0.9,2,2.1v0.1c0,1.2-0.9,2.1-2,2.1h-22.5C287.4,39.5,286.5,38.6,286.5,37.4z M390.4,37.4
		L390.4,37.4c0-1.2,0.9-1.2,2-1.2l10,1c1.1,0,2,1,2,2.1v0.1c0,1.2-0.9,2.1-2,2.1l-10.6-1C390.8,40.6,390.4,38.6,390.4,37.4z
		 M316.9,37.2L316.9,37.2c0-1.2,0.9-2.2,2-2.2h15.8c1.1,0,2,0.9,2,2.1v0.1c0,1.2-0.9,2.1-2,2.1h-15.8
		C317.8,39.4,316.9,38.4,316.9,37.2z M405.8,39.3L405.8,39.3c0-1.2,0.9-2.2,2-2.2l15.2,3.1c0.8,1.3,1.6,2.7,2.4,4.2
		c-0.2,0.1-0.5,0.2-0.8,0.2l-16.9-3.1C406.7,41.4,405.8,40.5,405.8,39.3z M338.5,37.2L338.5,37.2c0-1.2,0.9-2.2,2-2.2h15.8
		c1.1,0,2,1,2,2.1v0.1c0,1.2-0.9,2.1-2,2.1h-15.8C339.4,39.3,338.5,38.3,338.5,37.2z M288.4,27.9L288.4,27.9c0-1.2,0.9-2.2,2-2.2
		h14.9c1.1,0,2,0.9,2,2.1v0.1c0,1.2-0.9,2.1-2,2.1h-14.9C289.3,30,288.4,29.1,288.4,27.9z M376,27.8L376,27.8c0-1.2,0.9-2.2,2-2.2
		l15.8,1c1.1,0,2,1,2,2.1v0.1c0,1.2-0.9,2.1-2,2.1L378,30C376.9,30,376,29,376,27.8z M259.6,27.8L259.6,27.8c0-1.2,0.9-2.2,2-2.2
		h22.5c1.1,0,2,1,2,2.1v0.1c0,1.2-0.9,2.1-2,2.1h-22.5C260.5,29.9,259.6,28.9,259.6,27.8z M308.7,27.8L308.7,27.8
		c0-1.2,0.9-2.2,2-2.2h15.8c1.1,0,2,1,2,2.1v0.1c0,1.2-0.9,2.1-2,2.1h-15.8C309.5,29.9,308.7,28.9,308.7,27.8z M398.1,29.3
		L398.1,29.3c0-1.2,0.9-2.2,2-2.2l17.6,3.1c1.1,1,2.1,2,3.1,3.1c-0.3,0.7-1,1.2-1.8,1.2L400,31.4C398.9,31.4,398.1,30.5,398.1,29.3z
		 M329.8,27.6L329.8,27.6c0-1.2,0.9-2.2,2-2.2h10c1.1,0,2,0.9,2,2.1v0.1c0,1.2-0.9,2.1-2,2.1h-10C330.7,29.7,329.8,28.8,329.8,27.6z
		 M349.1,27.5L349.1,27.5c0-1.2,0.9-2.2,2-2.2h16.8c1.1,0,2,1,2,2.1v0.1c0,1.2-0.9,2.1-2,2.1H351C349.9,29.6,349.1,28.6,349.1,27.5z
		"/>
	<path fill="#FFFFFF" d="M1.8-2c65.3,0.4,130.7,0.7,195.9,1.2C232.9-0.6,268-0.3,303.2,0c0,0,0,0,0,0c5.1-0.1,10.2-0.2,15.4-0.2
		c4.7,0,9.5,0,14.2,0c7.6,0.1,15,0.4,22.4,1c6.5,0.5,12.9,1.2,19.1,2.3c2.8,0.5,5.5,1,8.2,1.7c7.4,1.9,14.3,4.3,20.7,8.1
		c3.2,1.9,6.3,4.1,9.2,6.7c1.3,1.2,2.6,2.4,3.8,3.7c2.2,2.4,4.2,4.9,5.9,7.5c3.2,4.9,5.5,10.2,7.4,15.9c0.8,2.4,1.4,4.8,2,7.3
		c1.1,5.1,1.9,10.4,2.3,15.8c0.5,5.3,0.6,10.9,0.5,16.5c-0.1,6-0.4,12-0.9,17.8c-0.9,11.1-2.3,22-4,32.8c-0.6,4.1-1.3,8.2-2,12.3
		c-0.3,1.9-0.7,3.7-1,5.6c0.1-0.8,0.2-1.6,0.4-2.4c0.2-1.4,0.4-2.8,0.6-4.2c0.6-4,1.1-8,1.7-11.9c1.8-13.3,3.2-26.7,3.7-40.6
		c0.4-11,0.1-22.2-1.5-32.5c-1-6.7-2.6-13.1-4.9-19.1c-1-2.7-2.2-5.3-3.6-7.8c-2-3.5-4.2-7-7.1-10.1c-0.9-1-1.9-2.1-2.9-3
		c-2-2-4.2-3.7-6.5-5.3c-1.2-0.8-2.5-1.7-3.7-2.4c-0.3-0.2-0.7-0.4-1-0.6c-0.1-0.1-0.2-0.1-0.3-0.2c0,0-0.1-0.1-0.1-0.1
		c-0.1,0,0,0,0,0c-1.1-0.6-2.2-1.2-3.3-1.7c-2.1-1-4.4-1.9-6.6-2.7c-7.7-2.6-15.8-4.2-24.3-5.3c-7.1-0.9-14.4-1.4-21.8-1.6
		c-7.8-0.3-15.8-0.3-23.8-0.2c-5.8,0.1-11.5,0.2-17.3,0.3c-20,0.6-40.9-0.1-61.1-0.2c-10.1,0-20.1-0.1-30.1-0.1
		C142.4,2.9,72,2.6,1.7,2.2L1.8-2z"/>
	<polygon fill-rule="evenodd" clip-rule="evenodd" fill="#B2B2B2" points="587.4,442.3 578.4,356 591.5,225.7 	"/>
	<polygon fill-rule="evenodd" clip-rule="evenodd" fill="#B8B8B8" points="587.4,442.3 591.5,225.7 579.6,355.7 	"/>
	<polygon fill-rule="evenodd" clip-rule="evenodd" fill="#BABABA" points="587.4,442.3 591.5,225.7 580.8,355.4 	"/>
	<polygon fill-rule="evenodd" clip-rule="evenodd" fill="#BFBFBF" points="587.4,442.3 591.5,225.7 582,355.1 	"/>
	<polygon fill-rule="evenodd" clip-rule="evenodd" fill="#C2C2C2" points="587.4,442.3 591.5,225.7 583.2,354.8 	"/>
	<polygon fill-rule="evenodd" clip-rule="evenodd" fill="#C7C7C7" points="587.4,442.3 591.5,225.7 584.5,354.6 	"/>
	<polygon fill-rule="evenodd" clip-rule="evenodd" fill="#C9C9C9" points="587.4,442.3 585.7,354.3 591.5,225.7 	"/>
	<path fill="#FCFCFC" d="M426.6,155.2c2.5-1,5-1.9,7.5-2.8c7-2.5,14.2-4.6,21.7-6.2c3.2-0.7,6.5-1.3,9.8-1.8c4-0.5,8-1,12.2-1.2
		c3.4-0.2,7-0.2,10.5-0.1c3.5,0.1,7,0.4,10.3,0.8c7.2,0.8,14,2.4,20.7,4.3c10.2,2.9,20,6.6,29.4,11c3.1,1.5,6.1,3.1,9,4.8
		c4.2,2.5,8.2,5.3,11.7,8.9c0.9,0.9,1.7,1.9,2.4,2.9c1.6,2.1,3,4.2,4.3,6.5c4,7.1,6.4,15.1,8.3,23.3c0.7,3.2,1.3,6.4,1.9,9.7
		c1.2,7.1,2,14.3,2.6,21.6c0.1,0.9,0.2,1.8,0.2,2.8c0.1,0.7,0.2,1.4,0.2,2c0,2-0.3,3.5-0.5,5.8c-0.3,4-0.7,7.5-1,11.5
		c-1.7,19.2-3.4,38.5-5,57.7c-0.7,7.7-1.4,15.4-2,23.1c-0.2,1.9-0.3,3.8-0.5,5.8c-0.2,1.9-0.4,3.8-0.5,5.8c-0.8,9.3-0.5,7.7-0.5,5.6
		c1.6,18.7,3.2,37.3,4.7,56c0.8,10,1.6,20.1,2.4,30.2c-1.7-15.7-3.3-31.5-4.8-47.3c-1-10-1.9-20.1-2.9-30.1
		c-0.1-1.4-0.3-2.9-0.4-4.3c-0.2-1.5-0.5-2.9-0.4-4.4c3.2-38.5,6.4-76.9,9.7-115.4c0,0,0,0.1,0,0.1c0,0,0,0,0,0c0-0.1,0-0.2,0-0.2
		c0-0.2,0-0.4,0-0.5c0-0.5-0.1-1-0.1-1.5c-0.1-1.6-0.3-3.1-0.4-4.7c-0.4-4.4-0.9-8.9-1.5-13.2c-1.5-11-3.6-21.8-7.5-31.6
		c-1.7-4-3.6-7.9-6.2-11.5c-0.7-1-1.5-2.1-2.4-3.1c-0.2-0.3-0.5-0.5-0.7-0.8c-0.1-0.1-0.2-0.2-0.2-0.3c0,0-0.1-0.1-0.1-0.1
		c0,0,0,0,0,0c-0.6-0.6-1.1-1.2-1.7-1.7c-3.6-3.4-7.8-6-12-8.3c-4.5-2.6-9.1-4.8-13.9-6.8c-5-2.1-10.1-4-15.4-5.8
		c-2.6-0.9-5.2-1.6-7.8-2.4c-1-0.3-2.1-0.6-3.2-0.9c-0.3-0.1-0.6-0.2-0.9-0.2c-0.1,0-0.1,0-0.2,0c0,0-0.2,0-0.1,0
		c-1.6-0.4-3.3-0.8-5-1.2c-3.1-0.7-6.3-1.2-9.5-1.6c-3.9-0.5-7.8-0.9-11.9-1c-2.2-0.1-4.4-0.1-6.6-0.1c-11.3,0.2-21.8,1.9-32,4.4
		C440.8,150.4,433.6,152.7,426.6,155.2z"/>
	<rect x="162.6" y="115.1" fill-rule="evenodd" clip-rule="evenodd" fill="#E5E5E5" width="260.2" height="153.9"/>
	<linearGradient id="SVGID_34_" gradientUnits="userSpaceOnUse" x1="448.1086" y1="132.6721" x2="499.2556" y2="88.3101">
		<stop  offset="0" style="stop-color:#BDBDBD"/>
		<stop  offset="0.82" style="stop-color:#C2C2C2"/>
		<stop  offset="1" style="stop-color:#8C8C8C"/>
	</linearGradient>
	<path fill-rule="evenodd" clip-rule="evenodd" fill="url(#SVGID_34_)" d="M545.8,139.2c-1.3-0.7-2.7-2.2-3.2-3.3c0,0,0,0,0-0.1
		c-0.5-1.1,0.2-1.5,1.5-0.7c0.6,0.3,1.1,0.7,1.7,1c1.3,1.8,2.7,3.7,4,5.5C548.5,140.8,547.1,140,545.8,139.2z M539.4,135.8
		c-6.5-3.3-13.4-6.1-20.8-8.2c-1.5-0.4-3.1-1.7-3.6-2.8c0,0,0,0,0-0.1c-0.4-1.1,0.5-1.7,2-1.3c7.3,2.1,14.2,5,20.7,8.2
		c1.3,0.7,2.8,2.2,3.2,3.3c0,0,0,0,0,0.1C541.4,136.1,540.7,136.5,539.4,135.8z M535.1,126.4c-1.3-0.7-2.8-2.1-3.3-3.2
		c0,0,0-0.1,0-0.1c-0.5-1.1,0.3-1.5,1.6-0.8c0.9,0.5,1.8,0.9,2.7,1.4c1.5,1.9,3,3.8,4.5,5.7C538.8,128.3,537,127.3,535.1,126.4z
		 M444.2,127.7C444.2,127.7,444.2,127.7,444.2,127.7c-0.1-1.4,1.5-3,3.6-3.5c9.4-2.5,18.3-3.9,26.8-4.5c1.8-0.1,3.6,0.8,3.9,2
		c0,0,0,0.1,0,0.1c0.3,1.2-0.9,2.3-2.8,2.5c-8.6,0.7-17.8,2.3-27.4,4.9C446.1,129.6,444.3,129.1,444.2,127.7z M487.1,123.3
		c-1.8,0-3.5-0.9-3.9-2.2c0,0,0-0.1,0-0.1c-0.3-1.2,0.8-2.2,2.6-2.2c8,0.1,15.7,1,22.9,2.6c1.6,0.3,3.2,1.6,3.6,2.7c0,0,0,0.1,0,0.1
		c0.4,1.1-0.5,1.8-2.1,1.4C502.9,124.2,495.2,123.4,487.1,123.3z M525.1,122c-6.9-2.8-14.2-5-21.9-6.4c-1.6-0.3-3.2-1.5-3.6-2.6
		c0,0,0,0,0-0.1c-0.4-1.1,0.6-1.9,2.1-1.6c7.7,1.5,14.9,3.8,21.8,6.5c1.4,0.6,2.9,2,3.4,3.1c0,0,0,0.1,0,0.1
		C527.3,122.1,526.6,122.6,525.1,122z M452.1,114.2C452.1,114.2,452.1,114.2,452.1,114.2c-0.2-1.4,1.2-2.8,3.1-3.1
		c13.5-2.4,26.2-2.6,38-1.1c1.6,0.2,3.3,1.3,3.7,2.5c0,0,0,0,0,0.1c0.4,1.2-0.6,1.9-2.2,1.7c-12-1.4-24.9-1-38.7,1.6
		C454,116.3,452.3,115.6,452.1,114.2z M518.4,106.6c-6.8-2.8-14-5.1-21.5-6.7c-1.5-0.3-3.1-1.5-3.5-2.7c0,0,0,0,0-0.1
		c-0.4-1.2,0.5-1.9,2-1.5c7.4,1.7,14.5,4,21.3,6.8l1.2,0.8l1.9,2c-0.5-0.9,0-0.3,0.2,0.3c0,0,0,0,0,0.1
		C520.6,106.8,519.8,107.2,518.4,106.6z M449.3,96.7C449.3,96.7,449.3,96.6,449.3,96.7c-0.2-1.4,1.1-2.7,2.8-2.9
		c12.1-1.7,23.9-1.4,35.2,0.4c1.6,0.2,3.1,1.4,3.5,2.6c0,0,0,0,0,0.1c0.4,1.2-0.5,1.9-2.1,1.7c-11.4-1.7-23.5-1.8-36,0.1
		C451,98.8,449.4,98,449.3,96.7z M504.5,92.9c-1.5-0.5-3-1.8-3.4-2.9c0,0,0-0.1,0-0.1c-0.4-1.1,0.4-1.7,1.8-1.2
		c0.2,0.1,0.3,0.1,0.5,0.2c2,1.9,4.1,3.8,6,5.8C507.8,94,506.2,93.4,504.5,92.9z M475.1,86.7c-1.6-0.1-3.1-1.2-3.4-2.4
		c0,0,0-0.1,0-0.1c-0.3-1.2,0.7-2.1,2.2-1.9c7.5,0.8,14.8,2.3,22,4.3c1.5,0.4,3,1.7,3.4,2.8c0,0,0,0,0,0.1c0.4,1.1-0.4,1.7-1.9,1.3
		C490.1,88.8,482.6,87.4,475.1,86.7z M469.6,72.1c-1.5-0.2-2.9-1.3-3.2-2.5c0,0,0,0,0-0.1c-0.3-1.2,0.6-2.1,2-1.9
		c4.6,0.7,9.3,1.6,13.9,2.8c2.3,1.9,4.5,3.8,6.8,5.7C482.7,74.3,476.1,73,469.6,72.1z M469.5,63.1c-1.4-0.3-2.8-1.4-3.1-2.6
		c0,0,0,0,0-0.1c-0.3-0.9,0.2-1.6,1-1.7c2.4,1.8,4.7,3.6,7,5.4C472.7,63.7,471.1,63.4,469.5,63.1z M462.1,62.3
		c-6.1-0.7-12.1-1-17.8-0.6c-1.3,0.1-2.4-0.9-2.5-2.2c0,0,0,0,0-0.1c-0.1-1.3,0.8-2.5,2-2.6c5.4-0.2,11.2,0.1,17.2,1
		c1.3,0.2,2.7,1.4,3,2.6c0,0,0,0,0,0.1C464.3,61.6,463.5,62.5,462.1,62.3z M441.4,47.2c-1.1,0-2-1.1-2.1-2.4c0,0,0-0.1,0-0.1
		c-0.1-1.4,0.7-2.5,1.7-2.4c1.4,0,2.9,0.1,4.4,0.2c2.6,1.8,5.1,3.6,7.6,5.4C448.9,47.4,445,47.1,441.4,47.2z"/>
	<polygon fill="#D9D9D9" points="2.3,-0.3 2.1,41.1 2,82.4 1.7,123.8 1.3,165.1 1.3,165 3.4,177.1 5.5,189.1 7.5,201.1 9.6,213.1 
		7.2,201.2 4.9,189.2 2.5,177.2 0.2,165.2 0.2,165.1 0,123.8 0,82.4 0.1,41.1 0.2,-0.3 	"/>
	<polygon fill="#E5E5E5" points="4.4,-0.3 4.1,41.1 3.8,82.4 3.4,123.8 2.8,165.1 2.8,165.1 4.4,176.3 6,187.5 7.5,198.8 9.1,210 
		7.2,198.8 5.4,187.6 3.6,176.4 1.8,165.2 1.8,165.1 1.7,123.8 1.8,82.4 2,41.1 2.3,-0.3 	"/>
	<polygon fill="#E8E8E8" points="0.2,-0.8 81.1,-0.8 162,-0.7 242.9,-0.4 323.8,0.2 242.9,0.8 162,1.1 81.1,1.2 0.2,1.3 	"/>
	<linearGradient id="SVGID_35_" gradientUnits="userSpaceOnUse" x1="66.8694" y1="246.817" x2="51.2114" y2="222.2871">
		<stop  offset="0" style="stop-color:#C2C2C2"/>
		<stop  offset="1" style="stop-color:#8F8F8F"/>
	</linearGradient>
	<path fill-rule="evenodd" clip-rule="evenodd" fill="url(#SVGID_35_)" d="M27.9,259.8L27.9,259.8c0-1.2,1-2.2,2.1-2.2H48l-7.4,4.3
		H30C28.8,261.9,27.9,261,27.9,259.8z M27.9,250.7L27.9,250.7c0-1.2,1-2.2,2.1-2.2h23.4c1.2,0,2.1,1,2.1,2.1v0.1
		c0,1.2-1,2.1-2.1,2.1H30C28.8,252.8,27.9,251.9,27.9,250.7z M58.1,250.6L58.1,250.6c0-1.2,1-2.2,2.1-2.2h3.6l-5.5,3.2
		C58.2,251.3,58.1,250.9,58.1,250.6z M28.4,238L28.4,238c0-1.2,0.9-2.2,2.1-2.2H55c1.2,0,2.1,1,2.1,2.1v0.1c0,1.2-0.9,2.1-2.1,2.1
		H30.5C29.3,240.1,28.4,239.2,28.4,238z M59.7,237.9L59.7,237.9c0-1.2,1-2.2,2.1-2.2h16.1c1.2,0,2.1,1,2.1,2.1v0.1
		c0,0.5-0.2,0.9-0.4,1.2l-1.5,0.9c-0.1,0-0.1,0-0.2,0H61.8C60.6,240,59.7,239.1,59.7,237.9z M81.6,238L81.6,238
		c0-1.2,0.9-2.1,2.1-2.1h1.5L81.6,238z M90.6,228.5L90.6,228.5c0-1.2,1-2.2,2.1-2.2h8.8l-7.4,4.3h-1.4
		C91.6,230.7,90.6,229.7,90.6,228.5z M57.6,228.4L57.6,228.4c0-1.2,1-2.2,2.1-2.2h24.5c1.2,0,2.1,1,2.1,2.1v0.1c0,1.2-1,2.1-2.1,2.1
		H59.7C58.6,230.5,57.6,229.6,57.6,228.4z M28.4,228.3L28.4,228.3c0-1.2,0.9-2.2,2.1-2.2h21.9c1.2,0,2.1,1,2.1,2.1v0.1
		c0,1.2-1,2.1-2.1,2.1H30.5C29.3,230.4,28.4,229.4,28.4,228.3z"/>
	<path fill-rule="evenodd" clip-rule="evenodd" fill="#969494" d="M264.3,205.4L264.3,205.4c0-1.1,0.8-1.9,1.9-1.9h14.1
		c1,0,1.9,0.8,1.9,1.9v0.1c0,1-0.8,1.9-1.9,1.9h-14.1C265.1,207.3,264.3,206.4,264.3,205.4z M243.6,205.1L243.6,205.1
		c0-1.1,0.8-1.9,1.9-1.9h14.2c1,0,1.9,0.8,1.9,1.9v0.1c0,1-0.8,1.9-1.9,1.9h-14.2C244.5,206.9,243.6,206.1,243.6,205.1z
		 M177.1,204.9L177.1,204.9c0-1.1,0.8-1.9,1.9-1.9h20.6c1,0,1.9,0.8,1.9,1.9v0.1c0,1-0.8,1.9-1.9,1.9H179
		C178,206.8,177.1,206,177.1,204.9z M223,204.9L223,204.9c0-1.1,0.8-1.9,1.9-1.9h15.1c1,0,1.9,0.8,1.9,1.9v0.1c0,1-0.8,1.9-1.9,1.9
		h-15.1C223.8,206.8,223,206,223,204.9z M203.7,204.8L203.7,204.8c0-1.1,0.8-1.9,1.9-1.9h14.1c1,0,1.9,0.8,1.9,1.9v0.1
		c0,1-0.8,1.9-1.9,1.9h-14.1C204.6,206.7,203.7,205.9,203.7,204.8z M251.4,196.7L251.4,196.7c0-1.1,0.8-1.9,1.9-1.9h22.4
		c1,0,1.9,0.8,1.9,1.9v0.1c0,1-0.8,1.9-1.9,1.9h-22.4C252.3,198.6,251.4,197.7,251.4,196.7z M230.9,196.6L230.9,196.6
		c0-1.1,0.8-1.9,1.9-1.9h15.1c1,0,1.9,0.8,1.9,1.9v0.1c0,1-0.8,1.9-1.9,1.9h-15.1C231.7,198.5,230.9,197.6,230.9,196.6z
		 M201.9,196.5L201.9,196.5c0-1.1,0.8-1.9,1.9-1.9h21.5c1,0,1.9,0.8,1.9,1.9v0.1c0,1-0.8,1.9-1.9,1.9h-21.5
		C202.7,198.4,201.9,197.5,201.9,196.5z M177.1,196.4L177.1,196.4c0-1.1,0.8-1.9,1.9-1.9h18.3c1,0,1.9,0.8,1.9,1.9v0.1
		c0,1-0.8,1.9-1.9,1.9H179C178,198.2,177.1,197.4,177.1,196.4z M251.9,182.8L251.9,182.8c0-1.1,0.8-1.9,1.9-1.9h22.4
		c1,0,1.9,0.8,1.9,1.9v0.1c0,1-0.8,1.9-1.9,1.9h-22.4C252.7,184.7,251.9,183.8,251.9,182.8z M231.4,182.7L231.4,182.7
		c0-1.1,0.8-1.9,1.9-1.9h15.1c1,0,1.9,0.8,1.9,1.9v0.1c0,1-0.8,1.9-1.9,1.9h-15.1C232.2,184.6,231.4,183.8,231.4,182.7z
		 M202.4,182.6L202.4,182.6c0-1.1,0.8-1.9,1.9-1.9h21.5c1,0,1.9,0.8,1.9,1.9v0.1c0,1-0.8,1.9-1.9,1.9h-21.5
		C203.2,184.5,202.4,183.6,202.4,182.6z M176.7,182.5L176.7,182.5c0-1.1,0.8-1.9,1.9-1.9h19.2c1,0,1.9,0.8,1.9,1.9v0.1
		c0,1-0.8,1.9-1.9,1.9h-19.2C177.5,184.3,176.7,183.5,176.7,182.5z M243.6,173.6L243.6,173.6c0-1.1,0.8-1.9,1.9-1.9h15.1
		c1,0,1.9,0.8,1.9,1.9v0.1c0,1-0.8,1.9-1.9,1.9h-15.1C244.5,175.5,243.6,174.7,243.6,173.6z M176.7,173.5L176.7,173.5
		c0-1.1,0.8-1.9,1.9-1.9H200c1,0,1.9,0.8,1.9,1.9v0.1c0,1-0.8,1.9-1.9,1.9h-21.5C177.5,175.4,176.7,174.5,176.7,173.5z M223.4,173.5
		L223.4,173.5c0-1.1,0.8-1.9,1.9-1.9h15.1c1,0,1.9,0.8,1.9,1.9v0.1c0,1-0.8,1.9-1.9,1.9h-15.1C224.3,175.4,223.4,174.5,223.4,173.5z
		 M204.2,173.4L204.2,173.4c0-1.1,0.8-1.9,1.9-1.9h14.1c1,0,1.9,0.8,1.9,1.9v0.1c0,1-0.8,1.9-1.9,1.9h-14.1
		C205,175.3,204.2,174.4,204.2,173.4z M244.5,161.3L244.5,161.3c0-1.1,0.8-1.9,1.9-1.9h15.1c1,0,1.9,0.8,1.9,1.9v0.1
		c0,1-0.8,1.9-1.9,1.9h-15.1C245.4,163.1,244.5,162.3,244.5,161.3z M224.4,161.1L224.4,161.1c0-1.1,0.8-1.9,1.9-1.9h15.1
		c1,0,1.9,0.8,1.9,1.9v0.1c0,1-0.8,1.9-1.9,1.9h-15.1C225.2,163,224.4,162.1,224.4,161.1z M176.7,161L176.7,161
		c0-1.1,0.8-1.9,1.9-1.9h34.3c1,0,1.9,0.8,1.9,1.9v0.1c0,1-0.8,1.9-1.9,1.9h-34.3C177.5,162.9,176.7,162,176.7,161z M263.3,153.5
		L263.3,153.5c0-1.1,0.8-1.9,1.9-1.9h13.7c1,0,1.9,0.8,1.9,1.9v0.1c0,1-0.8,1.9-1.9,1.9h-13.7C264.2,155.3,263.3,154.5,263.3,153.5z
		 M242.7,153.1L242.7,153.1c0-1.1,0.8-1.9,1.9-1.9h15.1c1,0,1.9,0.8,1.9,1.9v0.1c0,1-0.8,1.9-1.9,1.9h-15.1
		C243.5,155,242.7,154.2,242.7,153.1z M176.7,153L176.7,153c0-1.1,0.8-1.9,1.9-1.9h20.6c1,0,1.9,0.8,1.9,1.9v0.1
		c0,1-0.8,1.9-1.9,1.9h-20.6C177.5,154.9,176.7,154,176.7,153z M222.5,153L222.5,153c0-1.1,0.8-1.9,1.9-1.9h15.1
		c1,0,1.9,0.8,1.9,1.9v0.1c0,1-0.8,1.9-1.9,1.9h-15.1C223.4,154.9,222.5,154,222.5,153z M203.3,152.9L203.3,152.9
		c0-1.1,0.8-1.9,1.9-1.9h14.1c1,0,1.9,0.8,1.9,1.9v0.1c0,1-0.8,1.9-1.9,1.9h-14.1C204.1,154.8,203.3,153.9,203.3,152.9z
		 M262.4,142.1L262.4,142.1c0-1.1,0.8-1.9,1.9-1.9h16c1,0,1.9,0.8,1.9,1.9v0.1c0,1-0.8,1.9-1.9,1.9h-16
		C263.3,144,262.4,143.2,262.4,142.1z M244.1,142L244.1,142c0-1.1,0.8-1.9,1.9-1.9h9.6c1,0,1.9,0.8,1.9,1.9v0.1c0,1-0.8,1.9-1.9,1.9
		h-9.6C244.9,143.9,244.1,143,244.1,142z M177.1,141.9L177.1,141.9c0-1.1,0.8-1.9,1.9-1.9h21.5c1,0,1.9,0.8,1.9,1.9v0.1
		c0,1-0.8,1.9-1.9,1.9H179C178,143.7,177.1,142.9,177.1,141.9z M223.9,141.9L223.9,141.9c0-1.1,0.8-1.9,1.9-1.9h15.1
		c1,0,1.9,0.8,1.9,1.9v0.1c0,1-0.8,1.9-1.9,1.9h-15.1C224.8,143.7,223.9,142.9,223.9,141.9z M204.6,141.8L204.6,141.8
		c0-1.1,0.8-1.9,1.9-1.9h14.1c1,0,1.9,0.8,1.9,1.9v0.1c0,1-0.8,1.9-1.9,1.9h-14.1C205.5,143.6,204.6,142.8,204.6,141.8z
		 M252.3,133.6L252.3,133.6c0-1.1,0.8-1.9,1.9-1.9h15.1c1,0,1.9,0.8,1.9,1.9v0.1c0,1-0.8,1.9-1.9,1.9h-15.1
		C253.2,135.5,252.3,134.6,252.3,133.6z M231.8,133.5L231.8,133.5c0-1.1,0.8-1.9,1.9-1.9h15.1c1,0,1.9,0.8,1.9,1.9v0.1
		c0,1-0.8,1.9-1.9,1.9h-15.1C232.6,135.4,231.8,134.6,231.8,133.5z M202.8,133.4L202.8,133.4c0-1.1,0.8-1.9,1.9-1.9h21.5
		c1,0,1.9,0.8,1.9,1.9v0.1c0,1-0.8,1.9-1.9,1.9h-21.5C203.7,135.3,202.8,134.4,202.8,133.4z M177.1,133.3L177.1,133.3
		c0-1.1,0.8-1.9,1.9-1.9h19.2c1,0,1.9,0.8,1.9,1.9v0.1c0,1-0.8,1.9-1.9,1.9H179C178,135.1,177.1,134.3,177.1,133.3z"/>
	<path fill-rule="evenodd" clip-rule="evenodd" fill="#969494" d="M391.3,207.5L391.3,207.5c0-1.1,0.8-1.9,1.9-1.9h14.1
		c1,0,1.9,0.8,1.9,1.9v0.1c0,1-0.8,1.9-1.9,1.9h-14.1C392.1,209.4,391.3,208.5,391.3,207.5z M370.7,207.2L370.7,207.2
		c0-1.1,0.8-1.9,1.9-1.9h14.1c1,0,1.9,0.8,1.9,1.9v0.1c0,1-0.8,1.9-1.9,1.9h-14.1C371.5,209,370.7,208.2,370.7,207.2z M304.2,207
		L304.2,207c0-1.1,0.8-1.9,1.9-1.9h20.6c1,0,1.9,0.8,1.9,1.9v0.1c0,1-0.8,1.9-1.9,1.9h-20.6C305,208.9,304.2,208.1,304.2,207z
		 M350,207L350,207c0-1.1,0.8-1.9,1.9-1.9H367c1,0,1.9,0.8,1.9,1.9v0.1c0,1-0.8,1.9-1.9,1.9h-15.1C350.9,208.9,350,208.1,350,207z
		 M330.8,206.9L330.8,206.9c0-1.1,0.8-1.9,1.9-1.9h14.2c1,0,1.9,0.8,1.9,1.9v0.1c0,1-0.8,1.9-1.9,1.9h-14.2
		C331.6,208.8,330.8,207.9,330.8,206.9z M378.5,198.8L378.5,198.8c0-1.1,0.8-1.9,1.9-1.9h22.4c1,0,1.9,0.8,1.9,1.9v0.1
		c0,1-0.8,1.9-1.9,1.9h-22.4C379.3,200.6,378.5,199.8,378.5,198.8z M357.9,198.7L357.9,198.7c0-1.1,0.8-1.9,1.9-1.9h15.1
		c1,0,1.9,0.8,1.9,1.9v0.1c0,1-0.8,1.9-1.9,1.9h-15.1C358.8,200.6,357.9,199.7,357.9,198.7z M328.9,198.6L328.9,198.6
		c0-1.1,0.8-1.9,1.9-1.9h21.5c1,0,1.9,0.8,1.9,1.9v0.1c0,1-0.8,1.9-1.9,1.9h-21.5C329.8,200.4,328.9,199.6,328.9,198.6z
		 M304.2,198.4L304.2,198.4c0-1.1,0.8-1.9,1.9-1.9h18.3c1,0,1.9,0.8,1.9,1.9v0.1c0,1-0.8,1.9-1.9,1.9h-18.3
		C305,200.3,304.2,199.5,304.2,198.4z M378.9,184.9L378.9,184.9c0-1.1,0.8-1.9,1.9-1.9h22.4c1,0,1.9,0.8,1.9,1.9v0.1
		c0,1-0.8,1.9-1.9,1.9h-22.4C379.8,186.8,378.9,185.9,378.9,184.9z M358.4,184.8L358.4,184.8c0-1.1,0.8-1.9,1.9-1.9h15.1
		c1,0,1.9,0.8,1.9,1.9v0.1c0,1-0.8,1.9-1.9,1.9h-15.1C359.2,186.7,358.4,185.8,358.4,184.8z M329.4,184.7L329.4,184.7
		c0-1.1,0.8-1.9,1.9-1.9h21.5c1,0,1.9,0.8,1.9,1.9v0.1c0,1-0.8,1.9-1.9,1.9h-21.5C330.2,186.6,329.4,185.7,329.4,184.7z
		 M303.7,184.6L303.7,184.6c0-1.1,0.8-1.9,1.9-1.9h19.2c1,0,1.9,0.8,1.9,1.9v0.1c0,1-0.8,1.9-1.9,1.9h-19.2
		C304.6,186.4,303.7,185.6,303.7,184.6z M370.7,175.7L370.7,175.7c0-1.1,0.8-1.9,1.9-1.9h15.1c1,0,1.9,0.8,1.9,1.9v0.1
		c0,1-0.8,1.9-1.9,1.9h-15.1C371.5,177.6,370.7,176.8,370.7,175.7z M303.7,175.6L303.7,175.6c0-1.1,0.8-1.9,1.9-1.9h21.5
		c1,0,1.9,0.8,1.9,1.9v0.1c0,1-0.8,1.9-1.9,1.9h-21.5C304.6,177.5,303.7,176.6,303.7,175.6z M350.5,175.6L350.5,175.6
		c0-1.1,0.8-1.9,1.9-1.9h15.1c1,0,1.9,0.8,1.9,1.9v0.1c0,1-0.8,1.9-1.9,1.9h-15.1C351.3,177.5,350.5,176.6,350.5,175.6z
		 M331.2,175.5L331.2,175.5c0-1.1,0.8-1.9,1.9-1.9h14.1c1,0,1.9,0.8,1.9,1.9v0.1c0,1-0.8,1.9-1.9,1.9h-14.1
		C332.1,177.3,331.2,176.5,331.2,175.5z M371.6,163.3L371.6,163.3c0-1.1,0.8-1.9,1.9-1.9h15.1c1,0,1.9,0.8,1.9,1.9v0.1
		c0,1-0.8,1.9-1.9,1.9h-15.1C372.4,165.2,371.6,164.4,371.6,163.3z M351.4,163.2L351.4,163.2c0-1.1,0.8-1.9,1.9-1.9h15.1
		c1,0,1.9,0.8,1.9,1.9v0.1c0,1-0.8,1.9-1.9,1.9h-15.1C352.2,165.1,351.4,164.2,351.4,163.2z M303.7,163.1L303.7,163.1
		c0-1.1,0.8-1.9,1.9-1.9h34.3c1,0,1.9,0.8,1.9,1.9v0.1c0,1-0.8,1.9-1.9,1.9h-34.3C304.6,165,303.7,164.1,303.7,163.1z M390.4,155.6
		L390.4,155.6c0-1.1,0.8-1.9,1.9-1.9h13.7c1,0,1.9,0.8,1.9,1.9v0.1c0,1-0.8,1.9-1.9,1.9h-13.7C391.2,157.4,390.4,156.6,390.4,155.6z
		 M369.7,155.2L369.7,155.2c0-1.1,0.8-1.9,1.9-1.9h15.1c1,0,1.9,0.8,1.9,1.9v0.1c0,1-0.8,1.9-1.9,1.9h-15.1
		C370.6,157.1,369.7,156.3,369.7,155.2z M303.7,155.1L303.7,155.1c0-1.1,0.8-1.9,1.9-1.9h20.6c1,0,1.9,0.8,1.9,1.9v0.1
		c0,1-0.8,1.9-1.9,1.9h-20.6C304.6,157,303.7,156.1,303.7,155.1z M349.6,155.1L349.6,155.1c0-1.1,0.8-1.9,1.9-1.9h15.1
		c1,0,1.9,0.8,1.9,1.9v0.1c0,1-0.8,1.9-1.9,1.9h-15.1C350.4,157,349.6,156.1,349.6,155.1z M330.3,155L330.3,155
		c0-1.1,0.8-1.9,1.9-1.9h14.2c1,0,1.9,0.8,1.9,1.9v0.1c0,1-0.8,1.9-1.9,1.9h-14.2C331.2,156.8,330.3,156,330.3,155z M389.5,144.2
		L389.5,144.2c0-1.1,0.8-1.9,1.9-1.9h16c1,0,1.9,0.8,1.9,1.9v0.1c0,1-0.8,1.9-1.9,1.9h-16C390.3,146.1,389.5,145.3,389.5,144.2z
		 M371.1,144.1L371.1,144.1c0-1.1,0.8-1.9,1.9-1.9h9.6c1,0,1.9,0.8,1.9,1.9v0.1c0,1-0.8,1.9-1.9,1.9H373
		C372,145.9,371.1,145.1,371.1,144.1z M304.2,143.9L304.2,143.9c0-1.1,0.8-1.9,1.9-1.9h21.5c1,0,1.9,0.8,1.9,1.9v0.1
		c0,1-0.8,1.9-1.9,1.9h-21.5C305,145.8,304.2,145,304.2,143.9z M351,143.9L351,143.9c0-1.1,0.8-1.9,1.9-1.9h15.1
		c1,0,1.9,0.8,1.9,1.9v0.1c0,1-0.8,1.9-1.9,1.9h-15.1C351.8,145.8,351,145,351,143.9z M331.7,143.8L331.7,143.8
		c0-1.1,0.8-1.9,1.9-1.9h14.1c1,0,1.9,0.8,1.9,1.9v0.1c0,1-0.8,1.9-1.9,1.9h-14.1C332.5,145.7,331.7,144.9,331.7,143.8z
		 M379.4,135.7L379.4,135.7c0-1.1,0.8-1.9,1.9-1.9h15.1c1,0,1.9,0.8,1.9,1.9v0.1c0,1-0.8,1.9-1.9,1.9h-15.1
		C380.2,137.6,379.4,136.7,379.4,135.7z M358.9,135.6L358.9,135.6c0-1.1,0.8-1.9,1.9-1.9h15.1c1,0,1.9,0.8,1.9,1.9v0.1
		c0,1-0.8,1.9-1.9,1.9h-15.1C359.7,137.5,358.9,136.6,358.9,135.6z M329.9,135.5L329.9,135.5c0-1.1,0.8-1.9,1.9-1.9h21.5
		c1,0,1.9,0.8,1.9,1.9v0.1c0,1-0.8,1.9-1.9,1.9h-21.5C330.7,137.4,329.9,136.5,329.9,135.5z M304.2,135.4L304.2,135.4
		c0-1.1,0.8-1.9,1.9-1.9h19.2c1,0,1.9,0.8,1.9,1.9v0.1c0,1-0.8,1.9-1.9,1.9h-19.2C305,137.2,304.2,136.4,304.2,135.4z"/>
	<path fill-rule="evenodd" clip-rule="evenodd" fill="#969494" d="M245.3,253.2L245.3,253.2c0-1.1,0.8-1.9,1.9-1.9h15.1
		c1,0,1.9,0.8,1.9,1.9v0.1c0,1-0.8,1.9-1.9,1.9h-15.1C246.1,255.1,245.3,254.3,245.3,253.2z M225.1,253.1L225.1,253.1
		c0-1.1,0.8-1.9,1.9-1.9H242c1,0,1.9,0.8,1.9,1.9v0.1c0,1-0.8,1.9-1.9,1.9H227C226,255,225.1,254.1,225.1,253.1z M177.4,253
		L177.4,253c0-1.1,0.8-1.9,1.9-1.9h34.3c1,0,1.9,0.8,1.9,1.9v0.1c0,1-0.8,1.9-1.9,1.9h-34.3C178.3,254.9,177.4,254,177.4,253z
		 M264.1,245.4L264.1,245.4c0-1.1,0.8-1.9,1.9-1.9h13.7c1,0,1.9,0.8,1.9,1.9v0.1c0,1-0.8,1.9-1.9,1.9H266
		C264.9,247.3,264.1,246.5,264.1,245.4z M243.5,245.1L243.5,245.1c0-1.1,0.8-1.9,1.9-1.9h15.1c1,0,1.9,0.8,1.9,1.9v0.1
		c0,1-0.8,1.9-1.9,1.9h-15.1C244.3,247,243.5,246.1,243.5,245.1z M177.4,245L177.4,245c0-1.1,0.8-1.9,1.9-1.9h20.6
		c1,0,1.9,0.8,1.9,1.9v0.1c0,1-0.8,1.9-1.9,1.9h-20.6C178.3,246.9,177.4,246,177.4,245z M223.3,245L223.3,245c0-1.1,0.8-1.9,1.9-1.9
		h15.1c1,0,1.9,0.8,1.9,1.9v0.1c0,1-0.8,1.9-1.9,1.9h-15.1C224.1,246.9,223.3,246,223.3,245z M204,244.9L204,244.9
		c0-1.1,0.8-1.9,1.9-1.9H220c1,0,1.9,0.8,1.9,1.9v0.1c0,1-0.8,1.9-1.9,1.9h-14.1C204.9,246.7,204,245.9,204,244.9z M263.2,234.1
		L263.2,234.1c0-1.1,0.8-1.9,1.9-1.9h16c1,0,1.9,0.8,1.9,1.9v0.1c0,1-0.8,1.9-1.9,1.9h-16C264,236,263.2,235.1,263.2,234.1z
		 M244.8,234L244.8,234c0-1.1,0.8-1.9,1.9-1.9h9.6c1,0,1.9,0.8,1.9,1.9v0.1c0,1-0.8,1.9-1.9,1.9h-9.6
		C245.7,235.9,244.8,235,244.8,234z M177.9,233.9L177.9,233.9c0-1.1,0.8-1.9,1.9-1.9h21.5c1,0,1.9,0.8,1.9,1.9v0.1
		c0,1-0.8,1.9-1.9,1.9h-21.5C178.7,235.7,177.9,234.9,177.9,233.9z M224.7,233.9L224.7,233.9c0-1.1,0.8-1.9,1.9-1.9h15.1
		c1,0,1.9,0.8,1.9,1.9v0.1c0,1-0.8,1.9-1.9,1.9h-15.1C225.5,235.7,224.7,234.9,224.7,233.9z M205.4,233.7L205.4,233.7
		c0-1.1,0.8-1.9,1.9-1.9h14.1c1,0,1.9,0.8,1.9,1.9v0.1c0,1-0.8,1.9-1.9,1.9h-14.1C206.2,235.6,205.4,234.8,205.4,233.7z
		 M253.1,225.6L253.1,225.6c0-1.1,0.8-1.9,1.9-1.9H270c1,0,1.9,0.8,1.9,1.9v0.1c0,1-0.8,1.9-1.9,1.9h-15.1
		C253.9,227.5,253.1,226.6,253.1,225.6z M232.6,225.5L232.6,225.5c0-1.1,0.8-1.9,1.9-1.9h15.1c1,0,1.9,0.8,1.9,1.9v0.1
		c0,1-0.8,1.9-1.9,1.9h-15.1C233.4,227.4,232.6,226.6,232.6,225.5z M203.6,225.4L203.6,225.4c0-1.1,0.8-1.9,1.9-1.9h21.5
		c1,0,1.9,0.8,1.9,1.9v0.1c0,1-0.8,1.9-1.9,1.9h-21.5C204.4,227.3,203.6,226.4,203.6,225.4z M177.9,225.3L177.9,225.3
		c0-1.1,0.8-1.9,1.9-1.9h19.2c1,0,1.9,0.8,1.9,1.9v0.1c0,1-0.8,1.9-1.9,1.9h-19.2C178.7,227.1,177.9,226.3,177.9,225.3z"/>
	<path fill-rule="evenodd" clip-rule="evenodd" fill="#969494" d="M371.3,254L371.3,254c0-1.1,0.8-1.9,1.9-1.9h15.1
		c1,0,1.9,0.8,1.9,1.9v0.1c0,1-0.8,1.9-1.9,1.9h-15.1C372.1,255.9,371.3,255,371.3,254z M351.1,253.9L351.1,253.9
		c0-1.1,0.8-1.9,1.9-1.9h15.1c1,0,1.9,0.8,1.9,1.9v0.1c0,1-0.8,1.9-1.9,1.9H353C352,255.7,351.1,254.9,351.1,253.9z M303.4,253.7
		L303.4,253.7c0-1.1,0.8-1.9,1.9-1.9h34.3c1,0,1.9,0.8,1.9,1.9v0.1c0,1-0.8,1.9-1.9,1.9h-34.3C304.3,255.6,303.4,254.8,303.4,253.7z
		 M390.1,246.2L390.1,246.2c0-1.1,0.8-1.9,1.9-1.9h13.7c1,0,1.9,0.8,1.9,1.9v0.1c0,1-0.8,1.9-1.9,1.9H392
		C390.9,248.1,390.1,247.2,390.1,246.2z M369.5,245.9L369.5,245.9c0-1.1,0.8-1.9,1.9-1.9h15.1c1,0,1.9,0.8,1.9,1.9v0.1
		c0,1-0.8,1.9-1.9,1.9h-15.1C370.3,247.7,369.5,246.9,369.5,245.9z M303.4,245.7L303.4,245.7c0-1.1,0.8-1.9,1.9-1.9h20.6
		c1,0,1.9,0.8,1.9,1.9v0.1c0,1-0.8,1.9-1.9,1.9h-20.6C304.3,247.6,303.4,246.8,303.4,245.7z M349.3,245.7L349.3,245.7
		c0-1.1,0.8-1.9,1.9-1.9h15.1c1,0,1.9,0.8,1.9,1.9v0.1c0,1-0.8,1.9-1.9,1.9h-15.1C350.1,247.6,349.3,246.8,349.3,245.7z M330,245.6
		L330,245.6c0-1.1,0.8-1.9,1.9-1.9H346c1,0,1.9,0.8,1.9,1.9v0.1c0,1-0.8,1.9-1.9,1.9h-14.1C330.9,247.5,330,246.6,330,245.6z
		 M389.2,234.9L389.2,234.9c0-1.1,0.8-1.9,1.9-1.9h16c1,0,1.9,0.8,1.9,1.9v0.1c0,1-0.8,1.9-1.9,1.9h-16
		C390,236.7,389.2,235.9,389.2,234.9z M370.8,234.7L370.8,234.7c0-1.1,0.8-1.9,1.9-1.9h9.6c1,0,1.9,0.8,1.9,1.9v0.1
		c0,1-0.8,1.9-1.9,1.9h-9.6C371.7,236.6,370.8,235.8,370.8,234.7z M303.9,234.6L303.9,234.6c0-1.1,0.8-1.9,1.9-1.9h21.5
		c1,0,1.9,0.8,1.9,1.9v0.1c0,1-0.8,1.9-1.9,1.9h-21.5C304.7,236.5,303.9,235.6,303.9,234.6z M350.7,234.6L350.7,234.6
		c0-1.1,0.8-1.9,1.9-1.9h15.1c1,0,1.9,0.8,1.9,1.9v0.1c0,1-0.8,1.9-1.9,1.9h-15.1C351.5,236.5,350.7,235.6,350.7,234.6z
		 M331.4,234.5L331.4,234.5c0-1.1,0.8-1.9,1.9-1.9h14.2c1,0,1.9,0.8,1.9,1.9v0.1c0,1-0.8,1.9-1.9,1.9h-14.2
		C332.2,236.4,331.4,235.5,331.4,234.5z M379.1,226.4L379.1,226.4c0-1.1,0.8-1.9,1.9-1.9H396c1,0,1.9,0.8,1.9,1.9v0.1
		c0,1-0.8,1.9-1.9,1.9h-15.1C379.9,228.2,379.1,227.4,379.1,226.4z M358.6,226.3L358.6,226.3c0-1.1,0.8-1.9,1.9-1.9h15.1
		c1,0,1.9,0.8,1.9,1.9v0.1c0,1-0.8,1.9-1.9,1.9h-15.1C359.4,228.1,358.6,227.3,358.6,226.3z M329.6,226.1L329.6,226.1
		c0-1.1,0.8-1.9,1.9-1.9h21.5c1,0,1.9,0.8,1.9,1.9v0.1c0,1-0.8,1.9-1.9,1.9h-21.5C330.4,228,329.6,227.2,329.6,226.1z M303.9,226
		L303.9,226c0-1.1,0.8-1.9,1.9-1.9h19.2c1,0,1.9,0.8,1.9,1.9v0.1c0,1-0.8,1.9-1.9,1.9h-19.2C304.7,227.9,303.9,227.1,303.9,226z"/>
</g>
</svg>
