<?xml version="1.0" encoding="utf-8"?>
<!-- Generator: Adobe Illustrator 18.1.1, SVG Export Plug-In . SVG Version: 6.00 Build 0)  -->
<!DOCTYPE svg PUBLIC "-//W3C//DTD SVG 1.1//EN" "http://www.w3.org/Graphics/SVG/1.1/DTD/svg11.dtd">
<svg xmlns="http://www.w3.org/2000/svg" xmlns:xlink="http://www.w3.org/1999/xlink" version="1.1" id="Layer_1" x="0px" y="0px" viewBox="0 0 851 360" xml:space="preserve">
<g>
	<path fill="#FFFFFF" d="M851,293.8c0,23.8-19.5,43.4-43.4,43.4H43.4C19.5,337.2,0,317.7,0,293.8V66.2c0-23.8,19.5-43.4,43.4-43.4   h764.3c23.8,0,43.4,19.5,43.4,43.4V293.8z"/>
</g>
<g>
	<g>
		<path fill="#003263" d="M133.9,241.3H155l-1.1,6h-13.6l-2.2,9.8h13l-1.1,6h-13l-3.8,16.8h-7.6L133.9,241.3z"/>
		<path fill="#003263" d="M170.7,275.4L170.7,275.4c-2.7,3.3-5.4,4.9-9.2,4.9c-5.4,0-8.7-2.7-8.7-8.1c0-9.2,10.3-10.3,17.3-10.3h2.7    c0-0.5,0-1.6,0-2.7c0-2.7-3.3-3.8-6-3.8c-3.3,0-6.5,1.1-9.2,2.2l1.1-6c3.3-1.1,6.5-1.6,9.8-1.6c6,0,10.8,2.2,10.8,8.7    c0,3.8-2.7,15.2-3.3,20.6h-6.5L170.7,275.4z M163.7,275.4c5.4,0,7-3.8,8.7-8.7h-2.7c-3.8,0-9.8,0.5-9.8,5.4    C159.9,274.3,162.1,275.4,163.7,275.4z"/>
		<path fill="#003263" d="M205.4,257.5c-2.2-0.5-3.8-1.1-6-1.1c-2.2,0-4.9,0.5-4.9,2.7c0,3.8,9.8,4.9,9.8,11.9c0,7.6-6.5,9.8-13,9.8    c-3.3,0-6-0.5-8.7-1.6l1.6-6c2.2,1.1,4.3,2.2,7,2.2s4.9-1.1,4.9-3.3c0-4.9-9.8-4.9-9.8-12.5c0-6.5,6.5-9.2,12.5-9.2    c2.7,0,5.4,0.5,8.1,1.1L205.4,257.5z"/>
		<path fill="#003263" d="M211.4,251.5h5.4l1.1-6l8.1-2.7l-1.6,8.7h6.5l-1.1,5.4h-6.5l-2.7,12.5c0,0.5-0.5,1.6-0.5,2.7    c0,1.6,1.1,2.7,2.7,2.7c1.1,0,2.7-0.5,3.8-0.5l-1.1,6c-1.1,0.5-2.7,0.5-3.8,0.5c-4.9,0-8.7-2.2-8.7-7.6c0-2.2,0.5-4.3,1.1-6.5    l2.2-9.8h-5.4L211.4,251.5z"/>
		<path fill="#003263" d="M267.2,255.3c-1.6-1.1-4.3-1.6-6-1.6c-7,0-10.8,4.9-10.8,11.9c0,6.5,3.8,11.9,10.3,11.9    c2.2,0,4.3-0.5,6.5-1.1l0.5,3.3c-2.2,1.1-4.9,1.1-7,1.1c-9.2,0-13.6-7-13.6-14.6c0-8.7,5.4-14.6,14.1-14.6c3.3,0,6,0.5,7,1.1    L267.2,255.3z"/>
		<path fill="#003263" d="M273.2,238.5h3.3v41.7h-3.3V238.5z"/>
		<path fill="#003263" d="M301.9,275.4L301.9,275.4c-1.6,3.3-5.4,5.4-9.2,5.4c-8.1,0-9.2-5.4-9.2-8.1c0-9.8,10.3-9.8,17.3-9.8h0.5    v-1.6c0-4.9-1.6-7-6.5-7c-2.7,0-6,0.5-8.1,2.2v-3.3c2.2-1.1,6-2.2,8.1-2.2c7,0,9.8,3.3,9.8,10.3v12.5c0,2.2,0,3.8,0.5,6h-3.3    L301.9,275.4L301.9,275.4z M301.4,265.6h-1.1c-6,0-13,0.5-13,7c0,3.8,2.7,4.9,6,4.9c8.1,0,8.1-7,8.1-10.3L301.4,265.6L301.4,265.6    z"/>
		<path fill="#003263" d="M317.1,244h-3.3v-4.3h3.3V244z M313.3,251.5h3.3v28.2h-3.3V251.5z"/>
		<path fill="#003263" d="M359.9,280.3v-19c0-3.8-1.6-7-6-7c-3.8,0-7.6,3.3-7.6,10.3v15.7h-3.3v-19c0-3.8-1.6-7-6-7    c-3.8,0-7.6,3.3-7.6,10.3v15.7h-3.3v-21.7c0-2.2,0-4.3,0-6.5h3.3v4.9l0,0c1.1-2.2,2.7-5.4,8.7-5.4c2.7,0,6.5,1.1,7.6,6l0,0    c1.1-3.3,4.9-6,9.2-6c6,0,8.7,3.8,8.7,9.8v19.5h-3.8V280.3z"/>
		<path fill="#003263" d="M369.7,275.9c2.2,1.1,4.9,1.6,7.6,1.6c3.3,0,6.5-1.6,6.5-4.9c0-6.5-13.6-5.4-13.6-14.1    c0-5.4,4.3-7.6,9.2-7.6c1.6,0,4.3,0.5,7,1.1l-0.5,3.3c-1.6-1.1-4.3-1.1-6.5-1.1c-3.8,0-6,1.1-6,4.9c0,5.4,14.1,4.9,14.1,14.1    c0,6-5.4,8.1-9.8,8.1c-2.7,0-5.4-0.5-8.1-1.1V275.9z"/>
		<path fill="#003263" d="M394.6,275.4h4.3v4.9h-4.3V275.4z"/>
		<path fill="#003263" d="M409.8,275.4h4.3v4.9h-4.3V275.4z"/>
		<path fill="#003263" d="M425.5,275.4h4.3v4.9h-4.3V275.4z"/>
		<path fill="#003263" d="M466.2,251c9.2,0,13,7,13,14.6c0,7.6-3.8,14.6-13,14.6c-9.2,0-13-7-13-14.6S456.9,251,466.2,251z     M466.2,277.6c6,0,9.2-5.4,9.2-11.9s-3.3-11.9-9.2-11.9c-6,0-9.2,5.4-9.2,11.9S460.2,277.6,466.2,277.6z"/>
		<path fill="#003263" d="M486.2,258.6c0-2.2,0-4.3,0-6.5h3.3v4.9l0,0c1.1-2.7,3.3-6,9.2-6c7,0,9.8,4.9,9.8,10.8v17.9h-3.3v-17.3    c0-5.4-1.6-8.7-6.5-8.7c-6.5,0-8.1,5.4-8.1,10.3v15.7h-3.3v-21.1H486.2z"/>
		<path fill="#003263" d="M544.7,254.8h-6.5v18.4c0,2.7,1.1,4.9,3.8,4.9c1.1,0,2.2-0.5,3.3-0.5v2.7c-1.1,0.5-2.7,0.5-4.3,0.5    c-6,0-6.5-4.3-6.5-9.2v-16.8H529v-3.3h5.4V245l3.3-1.1v8.1h6.5v2.7H544.7z"/>
		<path fill="#003263" d="M551.3,238.5h3.3v17.9l0,0c1.6-3.3,4.9-5.4,8.7-5.4c7.6,0,9.8,4.9,9.8,11.9v16.8h-3.3v-16.8    c0-4.9-1.1-9.2-6.5-9.2c-6,0-8.1,6-8.1,10.8v15.2h-3.3v-41.2H551.3z"/>
		<path fill="#003263" d="M601.1,279.2c-2.7,1.1-5.4,1.6-8.1,1.6c-9.2,0-13-6.5-13-14.6c0-8.7,4.9-14.6,11.9-14.6    c8.1,0,11.4,6.5,11.4,14.1v1.1h-19.5c0,6,3.3,10.8,9.2,10.8c2.7,0,6.5-1.1,8.1-2.2V279.2L601.1,279.2z M599,264    c0-4.9-2.2-9.8-7-9.8c-5.4,0-8.1,5.4-8.1,9.8H599z"/>
		<path fill="#003263" d="M622.8,275.9c2.2,1.1,4.9,1.6,7.6,1.6c3.3,0,6.5-1.6,6.5-4.9c0-6.5-13.6-5.4-13.6-14.1    c0-5.4,4.3-7.6,9.2-7.6c1.6,0,4.3,0.5,7,1.1l-0.5,3.3c-1.6-1.1-4.3-1.1-6.5-1.1c-3.8,0-6,1.1-6,4.9c0,5.4,14.1,4.9,14.1,14.1    c0,6-5.4,8.1-9.8,8.1c-2.7,0-5.4-0.5-8.1-1.1V275.9z"/>
		<path fill="#003263" d="M646.1,251.5h3.3v5.4l0,0c1.1-1.6,3.3-6,9.2-6c8.1,0,11.9,6,11.9,14.6c0,8.1-3.8,14.6-11.9,14.6    c-4.3,0-7-1.6-8.7-5.4l0,0v16.3h-3.3v-39.6H646.1z M658,254.3c-6,0-8.1,6.5-8.1,11.9s2.2,11.9,8.1,11.9c6.5,0,8.1-6.5,8.1-11.9    C666.7,260.2,665.1,254.3,658,254.3z"/>
		<path fill="#003263" d="M688.4,251c9.2,0,13,7,13,14.6c0,7.6-3.8,14.6-13,14.6s-13-7-13-14.6S679.2,251,688.4,251z M688.4,277.6    c6,0,9.2-5.4,9.2-11.9s-3.3-11.9-9.2-11.9s-9.2,5.4-9.2,11.9S682.4,277.6,688.4,277.6z"/>
		<path fill="#003263" d="M720.9,254.8h-6.5v18.4c0,2.7,1.1,4.9,3.8,4.9c1.1,0,2.2-0.5,3.3-0.5v2.7c-1.1,0.5-2.7,0.5-4.3,0.5    c-6,0-6.5-4.3-6.5-9.2v-16.8h-5.4v-3.3h5.4V245l3.3-1.1v8.1h6.5v2.7H720.9z"/>
	</g>
	<g>
		<rect x="304.6" y="80.8" fill="#003263" width="11.9" height="82.4"/>
		<polygon fill="#003263" points="750.2,119.3 102.4,119.3 102.4,120.9 749.6,120.9   "/>
		<polygon fill="none" stroke="#003263" stroke-width="0.1851" points="750.2,119.3 102.4,119.3 102.4,120.9 749.6,120.9   "/>
		<circle fill="#D1C200" cx="73.2" cy="119.8" r="40.7"/>
		<circle fill="none" stroke="#003263" stroke-width="0.7537" cx="73.2" cy="119.8" r="40.7"/>
		<path fill="#003263" d="M101.9,115H86.7c-4.9,0-8.7-3.8-8.7-8.7V91.1h-9.8V115H44.4v9.8h15.2c4.9,0,8.7,3.8,8.7,8.7v15.2h9.8    v-23.8h23.8L101.9,115"/>
		<circle fill="#003263" cx="777.8" cy="119.8" r="40.7"/>
		<circle fill="none" stroke="#003263" stroke-width="0.7537" cx="777.8" cy="119.8" r="40.7"/>
		<path fill="#D1C200" d="M806.6,115h-15.2c-4.9,0-8.7-3.8-8.7-8.7V91.1h-9.8V115h-23.8v9.8h15.2c4.9,0,8.7,3.8,8.7,8.7v15.2h9.8    v-23.8h23.8V115"/>
		<rect x="263.4" y="81.3" fill="#003263" width="11.9" height="81.3"/>
		<path fill="#003263" d="M249.3,118.7c-14.1-0.5-24.9-11.9-24.9-25.5V81.9H213v81.3h11.9v-44.4H249.3"/>
		<path fill="#003263" d="M550.2,116.6c-10.3-3.3-17.9-12.5-17.9-23.8v-1.6h9.8c7,0,17.9,1.1,17.9,11.4    C559.9,110.6,555.6,115,550.2,116.6 M541.5,80.8h-21.1v81.3h11.9v-41.2h11.4c14.6,0.5,28.7-0.5,28.7-18.4    C571.9,84.1,558.3,80.8,541.5,80.8z"/>
		<path fill="#003263" d="M624.4,118.7h16.3c-20.1-2.2-35.2-8.1-37.9-15.2c0-0.5,0-1.1,0-2.2c0-8.7,7.6-10.8,14.1-10.8    c6,0,9.2,1.1,15.2,3.3l1.6-10.8c-5.4-2.2-11.9-2.7-17.3-2.7c-14.6,0-26,7.6-26,22.2c0,25.5,34.7,20.1,34.7,38.5    c0,9.8-9.2,13.6-15.7,13.6c-6,0-13-2.2-16.8-3.8l-1.1,10.8c5.4,1.6,10.8,3.3,16.8,3.3c16.3,0,29.8-7,29.8-24.4    C638,128,630.9,122.5,624.4,118.7"/>
		<path fill="#003263" d="M407.1,150.2c-4.3,2.7-11.9,3.8-17.9,3.8c-17.3,0-30.9-13-30.9-32c0-1.1,0-2.7,0-2.7s0.5-4.9,3.3-12.5    c4.9-10.3,15.2-17.3,28.2-17.3c6,0,11.9,1.6,16.8,4.3l1.1-11.4c-6-2.7-11.9-3.8-18.4-3.8c-24.9,0-43.4,16.8-43.4,42.3    c0,26,17.3,42.8,43.4,42.8c4.9,0,12.5-0.5,19-2.7L407.1,150.2"/>
		<path fill="#003263" d="M503.6,162.7l-34.7-81.8h-12.5l-34.7,81.8h12.5l22.8-56.9c1.1-2.7,3.3-4.3,5.4-4.3c2.2,0,4.3,1.6,5.4,4.3    l22.8,56.9H503.6"/>
	</g>
</g>
</svg>
