<svg xmlns="http://www.w3.org/2000/svg" xmlns:xlink="http://www.w3.org/1999/xlink" version="1.1" id="Layer_1" xml:space="preserve">
<g>
	<path fill="#FFFFFF" d="M851,293.8c0,23.8-19.5,43.4-43.4,43.4H43.4C19.5,337.2,0,317.7,0,293.8V66.2c0-23.8,19.5-43.4,43.4-43.4   h764.3c23.8,0,43.4,19.5,43.4,43.4V293.8z"/>
</g>
<g>
	<g>
		<rect x="311.1" y="117.1" fill="#009448" width="487.3" height="125.2"/>
		<path fill="#FFC425" d="M381.1,158.9l-1.6,6.5l0,0c2.2-2.7,4.3-4.9,7-6c2.7-1.1,6-2.2,9.2-2.2c2.7,0,5.4,0.5,7.6,2.2    c2.2,1.1,3.3,3.3,3.8,6.5c0.5-1.1,1.6-2.2,3.3-3.3c1.1-1.1,2.7-1.6,3.8-2.7c1.6-0.5,2.7-1.1,4.3-1.6c1.6-0.5,3.3-0.5,4.9-0.5    s3.8,0,5.4,0.5s3.3,1.1,4.9,2.2c1.1,1.1,2.2,2.2,3.3,3.8c0.5,1.6,1.1,3.3,1.1,5.4c0,1.6,0,2.7-0.5,4.3s-0.5,2.7-1.1,4.3l-6,27.6    h-13l6.5-29.8c0-1.1,0.5-2.2,0.5-3.3c0-1.6-0.5-2.7-1.6-3.8c-1.1-1.1-2.2-1.6-4.3-1.6c-1.6,0-3.3,0.5-4.9,1.1    c-1.6,1.1-2.7,1.6-3.8,3.3c-1.1,1.1-1.6,2.7-2.7,4.3c-0.5,1.6-1.1,3.3-1.6,4.3L400,206h-13l6.5-29.8c0-1.1,0.5-2.2,0.5-3.3    c0-1.6-0.5-2.7-1.6-3.8c-1.1-1.1-2.2-1.6-4.3-1.6c-1.6,0-3.3,0.5-4.9,1.1c-1.6,1.1-2.7,1.6-3.8,3.3c-1.1,1.1-1.6,2.7-2.7,4.3    c-0.5,1.6-1.1,3.3-1.6,4.3l-5.4,25.5h-13l9.8-47.2L381.1,158.9L381.1,158.9z"/>
		<path fill="#FFC425" d="M475.9,173.5c0-1.1-0.5-2.2-1.1-3.3s-1.6-1.6-2.7-2.2c-1.1-0.5-2.7-1.1-4.3-1.1s-3.3,0.5-4.9,1.1    s-2.7,1.1-3.8,2.2c-1.1,1.1-2.2,2.2-2.7,3.3c-0.5,1.1-1.1,2.7-1.6,3.8h21.7C476.5,176.2,476.5,174.6,475.9,173.5 M453.1,186v0.5    v1.1c0,2.7,1.1,4.9,2.7,6.5c1.6,1.6,4.3,2.7,8.1,2.7c1.1,0,2.2,0,3.3-0.5c1.1-0.5,1.6-1.1,2.7-1.6c0.5-0.5,1.6-1.1,2.2-2.2    c0.5-0.5,1.1-1.6,1.6-2.2h13c-1.1,2.7-2.2,4.9-3.8,7c-1.6,2.2-3.3,3.8-4.9,4.9c-2.2,1.6-4.3,2.2-7,3.3c-2.7,0.5-5.4,1.1-9.2,1.1    c-3.3,0-6-0.5-8.7-1.1c-2.7-1.1-4.9-2.2-6.5-3.8c-1.6-1.6-3.3-3.8-4.3-6.5c-1.1-2.7-1.6-5.4-1.6-9.2c0-3.8,0.5-7.6,1.6-10.8    s2.7-6.5,5.4-9.2c2.2-2.7,4.9-4.9,8.1-6.5c3.3-1.6,7-2.2,10.8-2.2c3.3,0,6.5,0.5,9.2,1.1c2.7,1.1,4.9,2.2,7,3.8    c2.2,1.6,3.3,3.8,4.3,6.5c1.1,2.7,1.6,5.4,1.6,9.2c0,2.2,0,4.9-0.5,7.6h-34.7C453.1,186,453.1,186,453.1,186"/>
		<path fill="#FFC425" d="M513.3,169.2c-1.6,1.1-3.3,2.7-4.3,4.9c-1.1,2.2-2.2,4.3-2.7,6.5c-0.5,2.2-1.1,4.3-1.1,6.5    c0,1.6,0,2.7,0.5,3.8c0.5,1.1,1.1,2.2,1.6,3.3c0.5,1.1,1.6,1.6,2.7,2.2c1.1,0.5,2.7,1.1,3.8,1.1c2.7,0,4.3-0.5,6.5-2.2    c1.6-1.1,3.3-2.7,4.3-4.9s2.2-4.3,2.7-6.5c0.5-2.2,1.1-4.3,1.1-6.5c0-3.3-0.5-5.4-2.2-7.6c-1.6-1.6-3.8-2.7-7-2.7    C517.1,167,514.9,167.5,513.3,169.2 M524.7,200.1c-1.6,2.7-3.3,4.3-6,5.4c-2.7,1.1-5.4,1.6-8.1,1.6c-6,0-10.3-1.6-13.6-4.9    c-3.3-3.3-4.9-7.6-4.9-13.6c0-3.8,0.5-7.6,1.6-11.4c1.1-3.8,2.7-7,4.9-9.8c2.2-2.7,4.9-5.4,8.1-7s7-2.7,11.4-2.7    c2.7,0,5.4,0.5,8.1,1.6c2.7,1.1,4.3,3.3,5.4,6l0,0l5.4-24.4h13l-14.1,65h-12.5L524.7,200.1L524.7,200.1z"/>
		<path fill="#FFC425" d="M554.5,151.3l2.2-10.8h13l-2.2,10.8H554.5z M566.4,158.9L556.1,206h-13l9.8-47.2L566.4,158.9L566.4,158.9z    "/>
		<path fill="#FFC425" d="M599.5,169.2c-1.6-1.1-3.8-1.6-6.5-1.6s-4.3,0.5-6.5,2.2c-1.6,1.1-3.3,2.7-4.3,4.9    c-1.1,2.2-1.6,4.3-2.2,6.5c-0.5,2.2-0.5,4.3-0.5,6.5c0,1.6,0,2.7,0.5,3.8c0.5,1.1,1.1,2.2,1.6,3.3s1.6,1.6,2.7,2.2    c1.1,0.5,2.7,1.1,4.3,1.1c1.6,0,2.7,0,3.8-0.5c1.1-0.5,2.2-1.1,3.3-2.2c1.1-0.5,1.6-1.6,2.2-2.7c0.5-1.1,1.1-2.2,1.6-3.3h13    c-2.2,6-4.9,10.3-9.2,13.6c-4.3,3.3-9.2,4.9-15.7,4.9c-6.5,0-11.9-1.6-15.7-4.9c-3.8-3.3-5.4-8.1-5.4-15.2c0-3.8,0.5-7.6,1.6-11.4    c1.1-3.8,2.7-6.5,5.4-9.2c2.2-2.7,4.9-4.9,8.1-6.5c3.3-1.6,7-2.2,11.4-2.2c2.7,0,5.4,0.5,8.1,1.1c2.7,0.5,4.9,1.6,6.5,3.3    c2.2,1.6,3.3,3.3,4.3,5.4c1.1,2.2,1.6,4.9,1.6,8.1h-11.9C601.7,172.4,600.6,170.2,599.5,169.2"/>
		<path fill="#FFC425" d="M643.4,184.9c-1.6,0-3.8,0.5-5.4,0.5c-1.1,0-2.2,0.5-3.8,0.5c-1.1,0.5-2.2,0.5-3.3,1.1    c-1.1,0.5-1.6,1.1-2.2,2.2c-0.5,1.1-1.1,2.2-1.1,3.8s0.5,3.3,2.2,3.8c1.6,1.1,3.3,1.1,4.9,1.1c2.2,0,3.8-0.5,4.9-1.1    c1.6-0.5,2.7-1.6,3.3-2.7c1.1-1.1,1.6-2.2,2.2-3.3c0.5-1.1,1.1-2.7,1.6-3.8l1.1-4.3C647.2,184.3,645,184.9,643.4,184.9     M623.9,165.4c1.6-2.2,3.3-3.8,4.9-4.9c2.2-1.1,4.3-2.2,7-2.7c2.7-0.5,4.9-0.5,7.6-0.5c2.2,0,4.3,0,6.5,0.5    c2.2,0.5,4.3,1.1,6.5,1.6c2.2,1.1,3.8,2.2,4.9,3.8c1.1,1.6,1.6,3.8,1.6,6.5c0,2.2-0.5,4.9-1.1,8.1l-4.3,19c0,1.1-0.5,2.2-0.5,3.3    c0,1.1,0,2.2,0,3.3c0,0.5,0,1.6,0.5,2.7H645v-4.9c-1.6,2.2-3.8,3.3-6.5,4.3c-2.7,1.1-5.4,1.6-8.1,1.6s-4.9-0.5-6.5-1.1    c-2.2-0.5-3.8-1.6-4.9-2.7c-1.1-1.1-2.2-2.7-2.7-3.8c-0.5-1.6-1.1-3.3-1.1-4.9c0-4.3,1.6-8.1,4.9-10.8c3.3-2.7,7.6-4.3,13.6-4.9    c3.3-0.5,6-0.5,8.1-1.1c2.2,0,4.3-0.5,5.4-1.1c1.6-0.5,2.7-1.1,3.3-1.6c0.5-0.5,1.1-2.2,1.1-3.3s-0.5-2.2-1.1-2.7    c-0.5-0.5-1.1-1.1-2.2-1.6c-1.1-0.5-1.6-0.5-2.7-1.1c-1.1,0-1.6,0-2.7,0c-2.2,0-4.3,0.5-6.5,1.6c-1.6,1.1-2.7,2.7-3.3,5.4h-11.9    C621.7,170.2,622.3,167.5,623.9,165.4"/>
		<path fill="#FFC425" d="M684.1,158.9l-2.2,8.7l0,0c1.6-3.3,3.8-6,6.5-7.6c2.7-1.6,6-2.7,9.8-2.7c1.1,0,2.7,0,3.8,0.5l-2.7,12.5    c-1.1,0-1.6-0.5-2.7-0.5c-1.1,0-1.6-0.5-2.7-0.5c-2.7,0-4.9,0.5-6.5,1.1c-1.6,1.1-3.3,2.2-4.3,3.3c-1.1,1.6-2.2,3.3-2.7,4.9    c-0.5,1.6-1.1,3.8-1.6,6l-4.3,21.1h-13l9.8-47.2h13V158.9z"/>
		<path fill="#FFC425" d="M735,173.5c0-1.1-0.5-2.2-1.1-3.3c-0.5-1.1-1.6-1.6-2.7-2.2s-2.7-1.1-4.3-1.1c-1.6,0-3.3,0.5-4.9,1.1    c-1.6,0.5-2.7,1.1-3.8,2.2c-1.1,1.1-2.2,2.2-2.7,3.3c-0.5,1.1-1.1,2.7-1.6,3.8h21.7C735.5,176.2,735,174.6,735,173.5 M712.2,186    v0.5v1.1c0,2.7,1.1,4.9,2.7,6.5c1.6,1.6,4.3,2.7,8.1,2.7c1.1,0,2.2,0,3.3-0.5c1.1-0.5,1.6-1.1,2.7-1.6c0.5-0.5,1.6-1.1,2.2-2.2    c0.5-0.5,1.1-1.6,1.6-2.2h13c-1.1,2.7-2.2,4.9-3.8,7c-1.6,2.2-3.3,3.8-4.9,4.9c-2.2,1.6-4.3,2.2-7,3.3c-2.7,0.5-5.4,1.1-9.2,1.1    c-3.3,0-6-0.5-8.7-1.1c-2.7-1.1-4.9-2.2-6.5-3.8c-1.6-1.6-3.3-3.8-4.3-6.5s-1.6-5.4-1.6-9.2c0-3.8,0.5-7.6,1.6-10.8    s2.7-6.5,5.4-9.2c2.2-2.7,4.9-4.9,8.1-6.5c3.3-1.6,7-2.2,10.8-2.2c3.3,0,6.5,0.5,9.2,1.1c2.7,1.1,4.9,2.2,7,3.8    c2.2,1.6,3.3,3.8,4.3,6.5c1.1,2.7,1.6,5.4,1.6,9.2c0,2.2,0,4.9-0.5,7.6h-34.7C712.2,186,712.2,186,712.2,186"/>
	</g>
	<g>
		<path fill="#008E96" d="M54.7,201.7c0.5,3.3,4.3,3.8,6,3.8h4.9c9.8-5.4,34.7-18.4,35.2-19c6-6.5,0.5-13-2.2-17.3l-3.3-4.9    l-36.3,21.1c-4.3,2.7-7,4.3-6,9.2L54.7,201.7z"/>
		<path fill="#00B6C9" d="M60.7,206c-1.6,0-5.4-1.1-6-3.8l4.3,20.1c1.1,4.9,4.3,5.4,9.2,6l47.2,2.7c4.9,0.5,13,0.5,14.6,9.2    c0.5-3.3,2.2-12.5,2.2-12.5c0.5-2.2,0.5-4.3,0-6.5c-1.6-7-8.1-12.5-15.2-12.5L60.7,206z"/>
		<path fill="#82C341" d="M281.3,214.7c0.5-3.3-2.2-5.4-3.8-6l-4.3-2.2c-11.4,0.5-39.6,1.6-40.1,1.6c-8.1,3.8-6,11.4-5.4,16.3l1.1,6    l41.2-2.2c4.9-0.5,8.1-1.1,9.2-6L281.3,214.7z"/>
		<path fill="#2CB34A" d="M98.1,97.6c-4.9-1.6-7.6-2.7-10.8,1.1l-4.9,6c-2.2,2.7-0.5,5.4,0.5,7l2.7,3.8    c10.3,4.3,36.3,15.7,36.9,15.7c8.7,0.5,10.3-7.6,11.9-12.5l1.6-5.4L98.1,97.6z"/>
		<path fill="#C4D82E" d="M191.3,73.8c-1.6-4.9-2.7-7.6-7.6-7.6h-7.6c-3.3,0-4.9,3.3-5.4,4.9l-1.1,4.3c2.7,10.8,10.3,37.9,10.3,38.5    c5.4,7,12.5,3.8,17.3,1.6l5.4-2.2L191.3,73.8z"/>
		<path fill="#F1D312" d="M269.4,120.9l-4.9-6c-2.2-2.7-5.4-1.6-7-1.1l-4.3,1.6c-6.5,9.2-23.3,32-23.8,32    c-2.2,8.7,4.9,11.9,9.2,14.6l5.4,2.7l23.8-33.6C271,127.4,272.1,124.7,269.4,120.9"/>
		<path fill="#008E96" d="M119.8,282.4l3.3-3.8c2.2-11.4,7-39,7-39c-1.6-8.7-9.8-8.7-14.6-9.2l-6-0.5l-6.5,40.7    c-0.5,4.9-0.5,8.1,3.8,10.3l7,3.3C116,285.7,118.7,283.5,119.8,282.4"/>
		<path fill="#82C341" d="M170.7,71.1c0.5-1.6,2.2-4.9,5.4-4.9h-20.6c-4.9,0-6.5,3.3-7.6,7.6l-13,45c-1.6,4.9-3.3,12.5-11.9,12.5    c3.3,1.1,11.4,4.9,11.4,4.9c1.6,0.5,3.8,1.1,6.5,1.1c7.6,0,13.6-5.4,15.7-11.9L170.7,71.1z"/>
		<path fill="#00B6C9" d="M82.9,111.7c-1.1-1.6-2.7-4.3-0.5-7l-13,16.3c-2.7,3.8-1.6,7,1.1,10.8l27.1,38.5    c2.7,4.3,8.1,10.3,2.2,17.3c2.7-1.6,10.8-6,10.8-6c1.6-1.1,3.3-2.2,4.9-4.3c4.9-6,4.3-14.1,0-19.5L82.9,111.7z"/>
		<path fill="#009448" d="M214.1,290c2.7-1.6,2.7-4.9,2.7-6.5l-1.1-4.3c-7.6-8.7-26-29.8-26-30.4c-7.6-4.3-13,2.2-16.3,6l-3.8,4.3    l27.6,30.9c3.3,3.8,6,5.4,10.3,3.8L214.1,290z"/>
		<path fill="#2CB34A" d="M216.8,283.5c0,1.6,0.5,5.4-2.7,6.5l18.4-8.7c4.3-2.2,4.3-5.4,3.8-10.3l-8.1-46.6    c-0.5-4.9-2.7-13,5.4-16.3c-3.3,0-12.5,0.5-12.5,0.5c-2.2,0-4.3,0.5-6.5,1.6c-6.5,3.3-10.3,10.8-8.7,17.9L216.8,283.5z"/>
		<path fill="#00B6C9" d="M119.8,282.4c-1.1,1.1-3.8,3.3-7,2.2l18.4,8.7c4.3,2.2,7,0,10.3-3.8l31.4-35.2c3.8-3.8,8.7-9.8,16.3-6    c-2.2-2.7-8.1-9.2-8.1-9.2c-1.1-1.6-3.3-2.7-5.4-3.8c-6.5-3.3-14.6-1.1-19,4.3L119.8,282.4z"/>
		<path fill="#C4D82E" d="M278.1,208.2c1.6,1.1,4.3,3.3,3.8,6l4.3-20.1c1.1-4.9-1.6-7-6-9.2L239,162.1c-4.3-2.7-11.4-6-9.2-14.6    c-2.2,3.3-7.6,10.3-7.6,10.3c-1.1,1.6-2.2,3.8-2.7,6c-1.6,7,2.2,14.6,8.1,17.9L278.1,208.2z"/>
		<path fill="#F5EB00" d="M257.5,113.9c1.6-0.5,4.9-1.6,7,1.1l-13-16.3c-3.3-3.8-6.5-3.3-10.8-1.1l-43.4,17.9    c-4.9,1.6-11.9,5.4-17.3-1.6c1.1,3.3,3.3,11.9,3.3,11.9c0.5,2.2,1.6,3.8,3.3,6c4.9,6,12.5,7.6,19,4.3L257.5,113.9z"/>
	</g>
</g>
</svg>
